<svg width="1920" height="1536" viewBox="0 0 1920 1536" fill="none" xmlns="http://www.w3.org/2000/svg">
<g clip-path="url(#clip0_219_1862)">
<path opacity="0.2" d="M179.999 -45L385.922 164.005" stroke="white" stroke-width="2" stroke-linecap="round" stroke-linejoin="round" stroke-dasharray="5 5"/>
<path opacity="0.3" d="M819.998 924.52L985.998 795.521" stroke="white" stroke-width="2" stroke-linecap="round" stroke-linejoin="round" stroke-dasharray="5 5"/>
<path d="M522.61 190.13C524.251 189.19 524.601 187.503 524.649 187.254C524.683 187.44 525.049 189.552 526.968 190.442C528.617 191.207 530.697 190.764 532.044 189.29C530.774 189.925 530.203 191.517 530.435 192.901C530.668 194.284 531.556 195.483 532.582 196.452C532.423 196.382 530.643 195.595 528.995 196.565C527.554 197.411 526.849 199.246 527.351 201.017C527.084 199.448 525.958 198.145 524.414 197.671C522.883 197.194 521.189 197.606 520.034 198.739C520.33 198.038 520.933 196.243 520.468 194.018C520.071 192.108 519.08 190.839 518.565 190.264C518.723 190.334 520.689 191.24 522.61 190.13Z" stroke="white" stroke-width="2" stroke-miterlimit="10" stroke-linecap="round" stroke-linejoin="round"/>
<path d="M804.158 928.925C805.693 927.819 805.865 926.105 805.887 925.852C805.94 926.033 806.524 928.096 808.525 928.781C810.244 929.371 812.267 928.713 813.454 927.106C812.256 927.871 811.854 929.514 812.229 930.865C812.605 932.216 813.613 933.316 814.734 934.173C814.569 934.121 812.716 933.523 811.179 934.659C809.834 935.651 809.324 937.549 810.008 939.259C809.579 937.726 808.323 936.547 806.738 936.237C805.166 935.922 803.524 936.509 802.493 937.756C802.715 937.027 803.128 935.179 802.433 933.015C801.839 931.157 800.721 929.997 800.149 929.48C800.314 929.533 802.363 930.229 804.158 928.925Z" stroke="white" stroke-width="2" stroke-miterlimit="10" stroke-linecap="round" stroke-linejoin="round"/>
<path d="M485.512 870.631C486.259 870.093 486.343 869.258 486.353 869.135C486.379 869.224 486.664 870.228 487.638 870.561C488.475 870.849 489.46 870.528 490.038 869.746C489.455 870.118 489.259 870.918 489.442 871.576C489.625 872.234 490.116 872.77 490.662 873.187C490.581 873.162 489.679 872.871 488.93 873.424C488.276 873.907 488.027 874.831 488.36 875.663C488.151 874.917 487.54 874.343 486.768 874.192C486.002 874.039 485.203 874.324 484.701 874.932C484.809 874.577 485.01 873.677 484.672 872.623C484.382 871.718 483.838 871.154 483.559 870.902C483.64 870.928 484.638 871.266 485.512 870.631Z" stroke="white" stroke-width="2" stroke-miterlimit="10" stroke-linecap="round" stroke-linejoin="round"/>
<path d="M244.262 344.741C244.117 342.296 242.362 340.918 242.102 340.719C242.337 340.787 244.997 341.58 247.134 339.866C248.972 338.396 249.657 335.729 248.723 333.316C248.728 335.155 250.245 336.735 251.984 337.263C253.722 337.79 255.624 337.451 257.339 336.82C257.166 336.964 255.228 338.575 255.403 341.044C255.554 343.202 257.276 345.078 259.619 345.516C257.646 344.921 255.485 345.476 254.046 346.994C252.611 348.495 252.113 350.697 252.761 352.689C252.118 351.941 250.385 350.208 247.536 349.465C245.093 348.826 243.049 349.244 242.087 349.51C242.259 349.366 244.442 347.608 244.262 344.741Z" stroke="white" stroke-width="2" stroke-miterlimit="10" stroke-linecap="round" stroke-linejoin="round"/>
<path d="M657.588 64.4183C658.224 66.0452 659.718 66.5935 659.939 66.671C659.764 66.677 657.785 66.7247 656.712 68.3576C655.789 69.7594 655.912 71.7196 657.076 73.1507C656.668 71.9042 655.291 71.1663 653.996 71.1913C652.701 71.2162 651.485 71.8651 650.461 72.6706C650.546 72.535 651.506 71.0153 650.844 69.3786C650.266 67.9479 648.686 67.0547 646.999 67.2734C648.469 67.2424 649.812 66.39 650.454 65.0436C651.098 63.7097 650.951 62.1063 650.072 60.8976C650.673 61.2633 652.231 62.0577 654.327 61.9343C656.125 61.8301 657.419 61.0969 658.014 60.7043C657.928 60.84 656.835 62.513 657.588 64.4183Z" stroke="white" stroke-width="2" stroke-miterlimit="10" stroke-linecap="round" stroke-linejoin="round"/>
<path d="M954.165 182.717C954.283 183.019 954.56 183.121 954.601 183.135C954.569 183.137 954.201 183.145 954.002 183.449C953.83 183.709 953.853 184.073 954.069 184.339C953.994 184.108 953.738 183.971 953.497 183.975C953.256 183.98 953.031 184.101 952.84 184.25C952.856 184.225 953.034 183.943 952.911 183.639C952.804 183.373 952.51 183.207 952.197 183.247C952.47 183.242 952.72 183.083 952.839 182.833C952.959 182.585 952.931 182.287 952.768 182.063C952.88 182.131 953.169 182.278 953.559 182.255C953.893 182.236 954.133 182.1 954.244 182.027C954.228 182.052 954.025 182.363 954.165 182.717Z" stroke="white" stroke-width="2" stroke-miterlimit="10" stroke-linecap="round" stroke-linejoin="round"/>
<path d="M408.573 179.895C409.563 182.427 411.889 183.281 412.232 183.401C411.961 183.411 408.88 183.485 407.21 186.027C405.773 188.209 405.964 191.26 407.777 193.488C407.141 191.547 404.998 190.399 402.982 190.438C400.966 190.477 399.073 191.487 397.479 192.74C397.611 192.529 399.106 190.164 398.076 187.616C397.176 185.389 394.716 183.999 392.091 184.339C394.378 184.291 396.47 182.964 397.469 180.868C398.47 178.792 398.242 176.296 396.874 174.415C397.81 174.984 400.234 176.22 403.497 176.028C406.296 175.866 408.311 174.725 409.236 174.114C409.103 174.325 407.401 176.929 408.573 179.895Z" stroke="white" stroke-width="2" stroke-miterlimit="10" stroke-linecap="round" stroke-linejoin="round"/>
<path d="M821.549 81.8213C820.543 79.3734 824.467 76.1093 826.077 79.3733C827.686 82.6373 822.555 84.2693 821.549 81.8213Z" fill="white"/>
<path d="M528.484 122.293C527.881 120.824 530.235 118.866 531.201 120.824C532.166 122.782 529.088 123.762 528.484 122.293Z" fill="white"/>
<path d="M112.098 418.293C111.494 416.824 113.848 414.866 114.814 416.824C115.78 418.782 112.701 419.762 112.098 418.293Z" fill="white"/>
<path d="M246.098 546.293C245.494 544.824 247.848 542.866 248.814 544.824C249.78 546.782 246.701 547.762 246.098 546.293Z" fill="white"/>
<path d="M69.0976 679.293C68.494 677.824 70.8481 675.866 71.8139 677.824C72.7797 679.782 69.7012 680.762 69.0976 679.293Z" fill="white"/>
<path d="M557.484 318.293C556.881 316.824 559.235 314.866 560.201 316.824C561.166 318.782 558.088 319.762 557.484 318.293Z" fill="white"/>
<path d="M1458.48 674.293C1457.88 672.824 1460.23 670.866 1461.2 672.824C1462.17 674.782 1459.09 675.762 1458.48 674.293Z" fill="white"/>
<path d="M1552.1 34.2928C1551.49 32.824 1553.85 30.8656 1554.81 32.824C1555.78 34.7824 1552.7 35.7616 1552.1 34.2928Z" fill="white"/>
<path d="M830.484 770.293C829.881 768.824 832.235 766.866 833.201 768.824C834.166 770.782 831.088 771.762 830.484 770.293Z" fill="white"/>
<path d="M429.484 381.293C428.881 379.824 431.235 377.866 432.201 379.824C433.166 381.782 430.088 382.762 429.484 381.293Z" fill="white"/>
<path d="M332.098 125.293C331.494 123.824 333.848 121.866 334.814 123.824C335.78 125.782 332.701 126.762 332.098 125.293Z" fill="white"/>
<path d="M1065.1 556.293C1064.49 554.824 1066.85 552.866 1067.81 554.824C1068.78 556.782 1065.7 557.762 1065.1 556.293Z" fill="white"/>
<path d="M1375.1 598.293C1374.49 596.824 1376.85 594.866 1377.81 596.824C1378.78 598.782 1375.7 599.762 1375.1 598.293Z" fill="white"/>
<path d="M322.484 42.2928C321.881 40.824 324.235 38.8656 325.201 40.824C326.166 42.7824 323.088 43.7616 322.484 42.2928Z" fill="#2C7ADF"/>
<path d="M735.163 195.821C734.157 193.373 738.08 190.109 739.69 193.373C741.3 196.637 736.169 198.269 735.163 195.821Z" fill="white"/>
<path d="M1311.99 676.254C1310.47 674.083 1313.6 670.045 1315.88 672.881C1318.16 675.718 1313.5 678.425 1311.99 676.254Z" fill="white"/>
<path d="M1626.42 32.7643C1626.22 32.2747 1627 31.6219 1627.32 32.2747C1627.65 32.9275 1626.62 33.2539 1626.42 32.7643Z" fill="white"/>
<path d="M655.419 206.764C655.218 206.275 656.003 205.622 656.325 206.275C656.647 206.927 655.62 207.254 655.419 206.764Z" fill="white"/>
<path d="M408.419 147.764C408.218 147.275 409.003 146.622 409.325 147.275C409.647 147.927 408.62 148.254 408.419 147.764Z" fill="white"/>
<path opacity="0.3" d="M330.065 108.529C329.663 107.549 331.232 106.244 331.876 107.549C332.52 108.855 330.467 109.508 330.065 108.529Z" fill="white"/>
<path opacity="0.3" d="M498.065 387.529C497.663 386.549 499.232 385.244 499.876 386.549C500.52 387.855 498.467 388.508 498.065 387.529Z" fill="white"/>
<path opacity="0.3" d="M775.065 301.529C774.663 300.549 776.232 299.244 776.876 300.549C777.52 301.855 775.467 302.508 775.065 301.529Z" fill="white"/>
<path opacity="0.3" d="M1198.07 86.5285C1197.66 85.5493 1199.23 84.2437 1199.88 85.5493C1200.52 86.8549 1198.47 87.5077 1198.07 86.5285Z" fill="white"/>
<path opacity="0.3" d="M1366.07 246.529C1365.66 245.549 1367.23 244.244 1367.88 245.549C1368.52 246.855 1366.47 247.508 1366.07 246.529Z" fill="white"/>
<path opacity="0.3" d="M1301.07 35.5285C1300.66 34.5494 1302.23 33.2437 1302.88 34.5493C1303.52 35.8549 1301.47 36.5077 1301.07 35.5285Z" fill="white"/>
<path opacity="0.3" d="M1298.07 145.529C1297.66 144.549 1299.23 143.244 1299.88 144.549C1300.52 145.855 1298.47 146.508 1298.07 145.529Z" fill="white"/>
<path opacity="0.3" d="M1594.07 60.5285C1593.66 59.5494 1595.23 58.2437 1595.88 59.5493C1596.52 60.8549 1594.47 61.5077 1594.07 60.5285Z" fill="white"/>
<path d="M297.419 275.764C297.218 275.275 298.003 274.622 298.325 275.275C298.647 275.927 297.62 276.254 297.419 275.764Z" fill="white"/>
<path d="M348.419 618.764C348.218 618.275 349.003 617.622 349.325 618.275C349.647 618.927 348.62 619.254 348.419 618.764Z" fill="white"/>
<path d="M299.033 880.764C298.831 880.275 299.616 879.622 299.938 880.275C300.26 880.927 299.234 881.254 299.033 880.764Z" fill="white"/>
<path d="M717.419 43.7643C717.218 43.2747 718.003 42.6219 718.325 43.2747C718.647 43.9275 717.62 44.2539 717.419 43.7643Z" fill="white"/>
<path d="M330.419 18.7643C330.218 18.2747 331.003 17.6219 331.325 18.2747C331.647 18.9275 330.62 19.2539 330.419 18.7643Z" fill="white"/>
<path d="M756.419 387.764C756.218 387.275 757.003 386.622 757.325 387.275C757.647 387.927 756.62 388.254 756.419 387.764Z" fill="white"/>
<path d="M1051.42 59.7643C1051.22 59.2747 1052 58.6219 1052.32 59.2747C1052.65 59.9275 1051.62 60.2539 1051.42 59.7643Z" fill="white"/>
<path d="M245.432 32.6907C244.683 30.1526 248.92 27.3076 250.187 30.7194C251.453 34.1311 246.182 35.2289 245.432 32.6907Z" fill="white"/>
<path d="M326.549 710.821C325.543 708.373 329.467 705.109 331.077 708.373C332.686 711.637 327.555 713.269 326.549 710.821Z" fill="white"/>
<path opacity="0.2" d="M264.467 335.106L390.524 202.672" stroke="white" stroke-width="2" stroke-linecap="round" stroke-linejoin="round" stroke-dasharray="5 5"/>
<path opacity="0.2" d="M-50.427 74.4338L75.6292 -58" stroke="white" stroke-width="2" stroke-linecap="round" stroke-linejoin="round" stroke-dasharray="5 5"/>
<path opacity="0.2" d="M-57 125L234.629 333" stroke="white" stroke-width="2" stroke-linecap="round" stroke-linejoin="round" stroke-dasharray="5 5"/>
<path opacity="0.2" d="M428.58 192.323L506.847 195.261" stroke="white" stroke-width="2" stroke-linecap="round" stroke-linejoin="round" stroke-dasharray="5 5"/>
<path opacity="0.2" d="M541.575 189.512L642.883 75.2999" stroke="white" stroke-width="2" stroke-linecap="round" stroke-linejoin="round" stroke-dasharray="5 5"/>
<path opacity="0.2" d="M665.999 71.5906L946 180" stroke="white" stroke-width="2" stroke-linecap="round" stroke-linejoin="round" stroke-dasharray="5 5"/>
<path opacity="0.2" d="M1594 -6.58105L1689.26 87.0416" stroke="white" stroke-width="2" stroke-linecap="round" stroke-linejoin="round" stroke-dasharray="5 5"/>
<path d="M1001.86 643.011C998.626 642.095 996.769 638.81 997.715 635.676C998.662 632.541 1002.05 630.743 1005.29 631.66C1008.53 632.576 1010.39 635.861 1009.44 638.995C1008.49 642.13 1005.1 643.928 1001.86 643.011Z" fill="#FF3D00" stroke="white" stroke-width="2" stroke-miterlimit="10"/>
<path d="M875.865 561.011C874.592 560.651 873.861 559.36 874.234 558.127C874.606 556.895 875.94 556.188 877.213 556.549C878.486 556.909 879.216 558.2 878.844 559.432C878.471 560.665 877.138 561.372 875.865 561.011Z" fill="#FF3D00" stroke="white" stroke-width="2" stroke-miterlimit="10"/>
<path d="M1471.6 139.757C1497.34 139.757 1518.2 119.664 1518.2 94.8785C1518.2 70.0928 1497.34 50 1471.6 50C1445.86 50 1425 70.0928 1425 94.8785C1425 119.664 1445.86 139.757 1471.6 139.757Z" fill="white" stroke="black" stroke-width="2" stroke-miterlimit="10"/>
<path d="M1458.1 131.083C1457.69 128.863 1457.46 126.181 1459.26 124.745C1460.22 123.985 1461.52 123.8 1462.73 123.567C1466.46 122.847 1470.26 121.206 1472.25 118.082C1474.24 114.953 1473.57 110.144 1470.16 108.515C1468.89 107.908 1467.35 107.763 1466.3 106.846C1465.57 106.207 1465.17 105.274 1464.96 104.345C1464.16 100.903 1465.62 97.0743 1468.54 94.947C1472.12 92.3451 1477.15 92.3974 1480.9 90.0449C1485.2 87.3506 1486.93 81.4271 1484.71 76.9714C1484.12 75.7851 1483.29 74.3897 1484.01 73.2758C1484.32 72.7932 1484.86 72.4997 1485.4 72.2624C1490.44 70.0346 1496.92 71.3656 1500.58 75.383C1504.24 79.3963 1504.76 85.7621 1501.81 90.2862C1499.08 94.4724 1493.76 97.1909 1492.69 102.024C1491.41 107.847 1496.88 114.692 1493.04 119.361C1489.17 124.066 1480.1 120.732 1475.87 125.147" stroke="black" stroke-width="2" stroke-miterlimit="10"/>
<path d="M1482.28 111.812C1482.17 111.374 1482 110.948 1481.77 110.55C1481.19 109.548 1480.28 108.764 1479.55 107.859C1478.34 106.351 1477.62 104.349 1478.13 102.507C1478.65 100.665 1480.67 99.1815 1482.6 99.6278C1484.53 100.07 1485.55 102.78 1484.09 104.079" stroke="black" stroke-width="2" stroke-miterlimit="10"/>
<path d="M1459.17 86.5905C1461.21 86.2326 1463.31 86.5985 1465.4 86.6427C1467.48 86.687 1469.74 86.3291 1471.17 84.8693C1472.83 83.1602 1472.83 80.5303 1472.56 78.1979C1472.26 75.5558 1471.68 72.8132 1469.93 70.7583C1468.61 69.2101 1466.73 68.1967 1465.26 66.7731C1463.79 65.3496 1462.73 63.166 1463.63 61.3564C1464.33 59.9368 1465.99 59.221 1467.58 58.835C1470.65 58.083 1473.94 58.1352 1476.99 58.9878" stroke="black" stroke-width="2" stroke-miterlimit="10"/>
<path d="M1448.85 67.3643C1451.5 67.1994 1453.76 69.2222 1455.17 71.3897C1456.95 74.1121 1457.95 77.2971 1458.05 80.5101C1458.08 81.1656 1458.03 81.9015 1457.53 82.3519C1457.17 82.6696 1456.66 82.7702 1456.18 82.8466C1451.38 83.6267 1446.46 83.8077 1441.61 83.3854C1440.52 83.2889 1439.38 83.1441 1438.51 82.5047C1436.92 81.3426 1436.94 78.8172 1438.27 77.3936C1439.61 75.97 1441.86 75.6001 1443.79 76.1027" stroke="black" stroke-width="2" stroke-miterlimit="10"/>
<path d="M1445.21 96.4468C1446.03 96.4468 1446.91 96.4589 1447.58 96.9053C1448.08 97.239 1448.4 97.7739 1448.71 98.2926C1450.56 101.465 1452.41 104.638 1454.27 107.811C1455.01 109.086 1455.77 110.397 1455.97 111.849C1456.21 113.542 1455.66 115.235 1455.12 116.863C1454.3 119.328 1453.48 121.794 1452.66 124.255C1452.27 125.445 1451.27 126.929 1450.08 126.434C1449.77 126.305 1449.54 126.064 1449.32 125.827C1445.24 121.492 1441.16 117.161 1437.08 112.826C1436.45 112.15 1435.79 111.451 1435.48 110.59C1435.16 109.729 1435.26 108.66 1435.98 108.057C1436.42 107.683 1437.02 107.542 1437.59 107.425C1439.53 107.023 1441.58 106.713 1443.45 107.345C1445.31 107.976 1446.87 109.846 1446.42 111.704" stroke="black" stroke-width="2" stroke-miterlimit="10"/>
<path d="M1502.88 113.53C1503.12 111.294 1503.17 109.042 1503.04 106.798C1502.96 105.595 1502.83 104.361 1503.18 103.203C1503.52 102.045 1504.46 100.951 1505.7 100.814C1507.17 100.653 1508.49 101.912 1508.77 103.299C1509.06 104.687 1508.53 106.118 1507.81 107.353C1507.09 108.587 1506.17 109.713 1505.56 110.996" stroke="black" stroke-width="2" stroke-miterlimit="10"/>
<path d="M427.042 861.284C411.897 875.771 387.688 875.075 372.969 859.688C358.25 844.301 358.629 820.084 373.774 805.597C388.918 791.11 413.128 791.806 427.847 807.193C442.566 822.58 442.187 846.797 427.042 861.284Z" fill="white" stroke="black" stroke-width="2"/>
<path d="M409.276 871.186L317.639 944.746" stroke="black" stroke-width="2" stroke-linecap="round" stroke-linejoin="round"/>
<path d="M365.7 851.415L274.063 924.975" stroke="black" stroke-width="2" stroke-linecap="round" stroke-linejoin="round"/>
<path d="M370.645 808.521L279.009 882.08" stroke="black" stroke-width="2" stroke-linecap="round" stroke-linejoin="round"/>
<path d="M369.689 856.19L312.319 902.209" stroke="black" stroke-width="2" stroke-linecap="round" stroke-linejoin="round"/>
</g>
<defs>
<clipPath id="clip0_219_1862">
<rect width="1920" height="1536" fill="white"/>
</clipPath>
</defs>
</svg>
