<svg xmlns="http://www.w3.org/2000/svg" xmlns:xlink="http://www.w3.org/1999/xlink" width="500" zoomAndPan="magnify" viewBox="0 0 375 374.999991" height="500" preserveAspectRatio="xMidYMid meet" version="1.0"><defs><clipPath id="fd2d31e201"><path d="M 8 8 L 367 8 L 367 361.246094 L 8 361.246094 Z M 8 8 " clip-rule="nonzero"/></clipPath></defs><path fill="#ffffff" d="M 364.796875 23.410156 C 364.695312 15.394531 358.171875 8.953125 350.164062 8.953125 L 328.453125 8.953125 L 327.660156 25.019531 C 331.261719 26.121094 333.835938 29.042969 333.835938 32.484375 C 333.835938 36.867188 329.660156 40.421875 324.503906 40.421875 C 319.351562 40.421875 315.171875 36.867188 315.171875 32.484375 C 315.171875 29.207031 317.503906 26.398438 320.832031 25.183594 L 320.429688 8.949219 L 283.65625 8.949219 L 282.867188 25.019531 C 286.464844 26.121094 289.039062 29.042969 289.039062 32.484375 C 289.039062 36.867188 284.863281 40.421875 279.707031 40.421875 C 274.554688 40.421875 270.375 36.867188 270.375 32.484375 C 270.375 29.207031 272.707031 26.398438 276.035156 25.183594 L 275.632812 8.949219 L 238.859375 8.949219 L 238.066406 25.019531 C 241.667969 26.121094 244.242188 29.042969 244.242188 32.484375 C 244.242188 36.867188 240.066406 40.421875 234.910156 40.421875 C 229.757812 40.421875 225.578125 36.867188 225.578125 32.484375 C 225.578125 29.207031 227.910156 26.398438 231.238281 25.183594 L 230.835938 8.949219 L 194.0625 8.949219 L 193.269531 25.019531 C 196.871094 26.121094 199.445312 29.042969 199.445312 32.484375 C 199.445312 36.867188 195.269531 40.421875 190.113281 40.421875 C 184.960938 40.421875 180.78125 36.867188 180.78125 32.484375 C 180.78125 29.207031 183.113281 26.398438 186.4375 25.183594 L 186.039062 8.949219 L 149.265625 8.949219 L 148.472656 25.019531 C 152.070312 26.121094 154.648438 29.042969 154.648438 32.484375 C 154.648438 36.867188 150.472656 40.421875 145.316406 40.421875 C 140.164062 40.421875 135.984375 36.867188 135.984375 32.484375 C 135.984375 29.207031 138.316406 26.398438 141.640625 25.183594 L 141.242188 8.949219 L 104.46875 8.949219 L 103.675781 25.019531 C 107.273438 26.121094 109.851562 29.042969 109.851562 32.484375 C 109.851562 36.867188 105.671875 40.421875 100.519531 40.421875 C 95.363281 40.421875 91.1875 36.867188 91.1875 32.484375 C 91.1875 29.207031 93.519531 26.398438 96.84375 25.183594 L 96.445312 8.953125 L 59.671875 8.953125 L 58.878906 25.019531 C 62.476562 26.121094 65.054688 29.042969 65.054688 32.484375 C 65.054688 36.867188 60.875 40.421875 55.722656 40.421875 C 50.566406 40.421875 46.390625 36.867188 46.390625 32.484375 C 46.390625 29.210938 48.722656 26.398438 52.046875 25.1875 L 51.648438 8.953125 L 29.105469 8.953125 C 25.199219 8.953125 21.453125 10.515625 18.703125 13.296875 C 15.953125 16.078125 14.429688 19.84375 14.472656 23.757812 C 14.980469 71.359375 16 131.480469 14.304688 191.347656 C 12.027344 271.75 10.566406 318.296875 9.078125 344.652344 C 8.851562 348.703125 10.222656 352.679688 12.988281 355.644531 C 15.757812 358.609375 19.628906 360.289062 23.683594 360.289062 L 344.507812 360.289062 C 352.25 360.289062 358.652344 354.257812 359.117188 346.527344 C 360.609375 321.757812 362 275.652344 364.601562 191.347656 C 366.445312 131.628906 365.417969 71.132812 364.796875 23.410156 Z M 364.796875 23.410156 " fill-opacity="1" fill-rule="nonzero"/><g clip-path="url(#fd2d31e201)"><path fill="#000000" d="M 344.507812 361.1875 L 23.683594 361.1875 C 19.398438 361.1875 15.261719 359.390625 12.335938 356.257812 C 9.453125 353.171875 7.941406 348.921875 8.183594 344.601562 C 9.679688 318.074219 11.175781 270.265625 13.410156 191.320312 C 14.90625 138.527344 14.277344 84.507812 13.773438 41.101562 C 13.703125 35.164062 13.636719 29.378906 13.578125 23.765625 C 13.53125 19.644531 15.167969 15.597656 18.066406 12.667969 C 20.964844 9.734375 24.988281 8.054688 29.109375 8.054688 L 51.648438 8.054688 C 52.136719 8.054688 52.53125 8.441406 52.542969 8.929688 L 52.945312 25.164062 C 52.953125 25.546875 52.71875 25.894531 52.355469 26.027344 C 49.277344 27.152344 47.285156 29.683594 47.285156 32.484375 C 47.285156 36.367188 51.070312 39.527344 55.722656 39.527344 C 60.375 39.527344 64.160156 36.367188 64.160156 32.484375 C 64.160156 29.546875 61.933594 26.894531 58.617188 25.878906 C 58.222656 25.757812 57.964844 25.386719 57.984375 24.976562 L 58.777344 8.90625 C 58.800781 8.429688 59.195312 8.054688 59.671875 8.054688 L 96.445312 8.054688 C 96.929688 8.054688 97.328125 8.441406 97.339844 8.929688 L 97.742188 25.164062 C 97.75 25.546875 97.511719 25.894531 97.152344 26.027344 C 94.070312 27.152344 92.082031 29.683594 92.082031 32.484375 C 92.082031 36.367188 95.867188 39.527344 100.519531 39.527344 C 105.171875 39.527344 108.953125 36.367188 108.953125 32.484375 C 108.953125 29.546875 106.726562 26.894531 103.414062 25.878906 C 103.019531 25.757812 102.757812 25.386719 102.78125 24.976562 L 103.570312 8.90625 C 103.59375 8.429688 103.988281 8.054688 104.46875 8.054688 L 141.242188 8.054688 C 141.726562 8.054688 142.125 8.441406 142.136719 8.929688 L 142.539062 25.164062 C 142.546875 25.546875 142.308594 25.894531 141.949219 26.027344 C 138.867188 27.152344 136.878906 29.683594 136.878906 32.484375 C 136.878906 36.367188 140.664062 39.527344 145.316406 39.527344 C 149.964844 39.527344 153.75 36.367188 153.75 32.484375 C 153.75 29.546875 151.523438 26.894531 148.210938 25.878906 C 147.816406 25.757812 147.554688 25.386719 147.578125 24.976562 L 148.367188 8.90625 C 148.390625 8.429688 148.785156 8.054688 149.265625 8.054688 L 186.039062 8.054688 C 186.523438 8.054688 186.921875 8.441406 186.933594 8.929688 L 187.332031 25.164062 C 187.34375 25.550781 187.105469 25.898438 186.746094 26.027344 C 183.664062 27.152344 181.675781 29.6875 181.675781 32.484375 C 181.675781 36.367188 185.460938 39.523438 190.113281 39.523438 C 194.765625 39.523438 198.546875 36.367188 198.546875 32.484375 C 198.546875 29.546875 196.320312 26.894531 193.007812 25.878906 C 192.613281 25.757812 192.351562 25.386719 192.371094 24.976562 L 193.164062 8.90625 C 193.1875 8.429688 193.582031 8.054688 194.0625 8.054688 L 230.832031 8.054688 C 231.320312 8.054688 231.71875 8.441406 231.730469 8.929688 L 232.128906 25.164062 C 232.140625 25.546875 231.902344 25.898438 231.542969 26.027344 C 228.460938 27.152344 226.472656 29.6875 226.472656 32.484375 C 226.472656 36.367188 230.257812 39.523438 234.910156 39.523438 C 239.5625 39.523438 243.34375 36.367188 243.34375 32.484375 C 243.34375 29.546875 241.117188 26.894531 237.800781 25.878906 C 237.410156 25.757812 237.148438 25.386719 237.167969 24.976562 L 237.960938 8.90625 C 237.984375 8.429688 238.378906 8.054688 238.855469 8.054688 L 275.632812 8.054688 C 276.117188 8.054688 276.515625 8.441406 276.527344 8.929688 L 276.925781 25.164062 C 276.9375 25.546875 276.699219 25.894531 276.339844 26.027344 C 273.257812 27.152344 271.269531 29.683594 271.269531 32.484375 C 271.269531 36.367188 275.054688 39.523438 279.703125 39.523438 C 284.355469 39.523438 288.140625 36.367188 288.140625 32.484375 C 288.140625 29.546875 285.914062 26.894531 282.601562 25.878906 C 282.207031 25.757812 281.945312 25.386719 281.964844 24.976562 L 282.757812 8.90625 C 282.78125 8.429688 283.175781 8.054688 283.652344 8.054688 L 320.425781 8.054688 C 320.914062 8.054688 321.3125 8.441406 321.324219 8.929688 L 321.722656 25.164062 C 321.734375 25.546875 321.496094 25.894531 321.132812 26.027344 C 318.054688 27.152344 316.066406 29.683594 316.066406 32.484375 C 316.066406 36.367188 319.847656 39.523438 324.5 39.523438 C 329.152344 39.523438 332.9375 36.367188 332.9375 32.484375 C 332.9375 29.546875 330.710938 26.894531 327.394531 25.878906 C 327.003906 25.757812 326.742188 25.386719 326.761719 24.976562 L 327.554688 8.90625 C 327.578125 8.429688 327.972656 8.054688 328.449219 8.054688 L 350.160156 8.054688 C 358.613281 8.054688 365.582031 14.9375 365.691406 23.398438 L 365.835938 34.371094 C 366.441406 79.707031 367.199219 136.125 365.492188 191.375 L 365.160156 202.128906 C 362.761719 279.988281 361.4375 322.875 360.007812 346.578125 C 359.519531 354.769531 352.710938 361.1875 344.507812 361.1875 Z M 29.109375 9.847656 C 25.464844 9.847656 21.90625 11.335938 19.339844 13.929688 C 16.777344 16.519531 15.332031 20.101562 15.371094 23.746094 C 15.429688 29.359375 15.496094 35.140625 15.566406 41.078125 C 16.070312 84.5 16.699219 138.542969 15.203125 191.371094 C 12.964844 270.332031 11.472656 318.15625 9.976562 344.703125 C 9.757812 348.535156 11.097656 352.300781 13.644531 355.03125 C 16.234375 357.800781 19.890625 359.390625 23.683594 359.390625 L 344.507812 359.390625 C 351.761719 359.390625 357.789062 353.71875 358.222656 346.472656 C 359.652344 322.792969 360.972656 279.914062 363.371094 202.074219 L 363.703125 191.316406 C 365.410156 136.109375 364.652344 79.710938 364.046875 34.394531 L 363.902344 23.421875 C 363.804688 15.9375 357.640625 9.847656 350.164062 9.847656 L 329.308594 9.847656 L 328.589844 24.390625 C 332.292969 25.78125 334.734375 28.960938 334.734375 32.484375 C 334.734375 37.355469 330.144531 41.320312 324.503906 41.320312 C 318.863281 41.320312 314.277344 37.355469 314.277344 32.484375 C 314.277344 29.113281 316.46875 26.074219 319.917969 24.582031 L 319.554688 9.847656 L 284.511719 9.847656 L 283.792969 24.390625 C 287.496094 25.78125 289.9375 28.960938 289.9375 32.484375 C 289.9375 37.355469 285.347656 41.320312 279.707031 41.320312 C 274.066406 41.320312 269.476562 37.355469 269.476562 32.484375 C 269.476562 29.113281 271.671875 26.074219 275.121094 24.582031 L 274.757812 9.847656 L 239.710938 9.847656 L 238.996094 24.390625 C 242.699219 25.78125 245.140625 28.960938 245.140625 32.484375 C 245.140625 37.355469 240.550781 41.320312 234.910156 41.320312 C 229.269531 41.320312 224.679688 37.355469 224.679688 32.484375 C 224.679688 29.113281 226.875 26.074219 230.324219 24.582031 L 229.960938 9.847656 L 194.914062 9.847656 L 194.199219 24.390625 C 197.902344 25.78125 200.34375 28.960938 200.34375 32.484375 C 200.34375 37.355469 195.753906 41.320312 190.113281 41.320312 C 184.472656 41.320312 179.882812 37.355469 179.882812 32.484375 C 179.882812 29.113281 182.078125 26.074219 185.527344 24.582031 L 185.164062 9.847656 L 150.117188 9.847656 L 149.402344 24.390625 C 153.105469 25.78125 155.546875 28.960938 155.546875 32.484375 C 155.546875 37.355469 150.957031 41.320312 145.316406 41.320312 C 139.675781 41.320312 135.085938 37.355469 135.085938 32.484375 C 135.085938 29.113281 137.28125 26.074219 140.730469 24.582031 L 140.367188 9.847656 L 105.320312 9.847656 L 104.605469 24.390625 C 108.308594 25.78125 110.746094 28.960938 110.746094 32.484375 C 110.746094 37.355469 106.160156 41.320312 100.519531 41.320312 C 94.878906 41.320312 90.289062 37.355469 90.289062 32.484375 C 90.289062 29.113281 92.484375 26.074219 95.933594 24.582031 L 95.570312 9.847656 L 60.523438 9.847656 L 59.808594 24.390625 C 63.507812 25.78125 65.949219 28.960938 65.949219 32.484375 C 65.949219 37.355469 61.363281 41.320312 55.722656 41.320312 C 50.082031 41.320312 45.492188 37.355469 45.492188 32.484375 C 45.492188 29.117188 47.6875 26.074219 51.136719 24.582031 L 50.773438 9.851562 L 29.109375 9.851562 Z M 29.109375 9.847656 " fill-opacity="1" fill-rule="nonzero"/></g></svg>