<svg xmlns="http://www.w3.org/2000/svg" xmlns:xlink="http://www.w3.org/1999/xlink" width="500" zoomAndPan="magnify" viewBox="0 0 375 374.999991" height="500" preserveAspectRatio="xMidYMid meet" version="1.0"><defs><clipPath id="76a9c60b42"><path d="M 11.632812 18 L 349.882812 18 L 349.882812 348.910156 L 11.632812 348.910156 Z M 11.632812 18 " clip-rule="nonzero"/></clipPath></defs><path fill="#ffffff" d="M 343.382812 302.25 L 63.480469 336.289062 L 30.667969 63.125 L 310.570312 29.085938 L 343.382812 302.25 " fill-opacity="1" fill-rule="nonzero"/><path fill="#000000" d="M 31.78125 64.007812 L 64.355469 335.167969 L 342.265625 301.367188 L 309.695312 30.207031 Z M 62.605469 337.410156 L 62.484375 336.410156 L 29.550781 62.246094 L 311.445312 27.960938 L 311.566406 28.964844 L 344.5 303.128906 L 62.605469 337.410156 " fill-opacity="1" fill-rule="nonzero"/><path fill="#ffffff" d="M 291.804688 347.636719 L 12.828125 287.726562 L 69.722656 19.496094 L 348.703125 79.40625 L 291.804688 347.636719 " fill-opacity="1" fill-rule="nonzero"/><g clip-path="url(#76a9c60b42)"><path fill="#000000" d="M 14.015625 286.949219 L 291.03125 346.441406 L 347.511719 80.183594 L 70.496094 20.695312 Z M 292.574219 348.835938 L 291.59375 348.625 L 11.636719 288.503906 L 68.953125 18.300781 L 69.933594 18.511719 L 349.890625 78.632812 L 292.574219 348.835938 " fill-opacity="1" fill-rule="nonzero"/></g><path fill="#ffffff" d="M 329.65625 320.703125 L 44.394531 320.703125 L 44.394531 46.433594 L 329.65625 46.433594 L 329.65625 320.703125 " fill-opacity="1" fill-rule="nonzero"/><path fill="#000000" d="M 45.398438 319.695312 L 328.652344 319.695312 L 328.652344 47.441406 L 45.398438 47.441406 Z M 330.65625 321.710938 L 43.390625 321.710938 L 43.390625 45.421875 L 330.65625 45.421875 L 330.65625 321.710938 " fill-opacity="1" fill-rule="nonzero"/><path fill="#000000" d="M 154.292969 95.707031 C 152.304688 94.574219 150.476562 92.988281 149.058594 91.082031 C 142.398438 82.132812 151.574219 65.648438 174.835938 25.90625 C 175.664062 24.488281 178.191406 20.175781 183.300781 18.195312 C 187.085938 16.726562 190.535156 17.1875 191.84375 17.449219 C 192.414062 17.566406 197.523438 18.628906 200.523438 22.410156 C 204.457031 27.371094 203.964844 35.976562 198.679688 43.078125 C 196.785156 43.207031 194.890625 43.335938 192.992188 43.460938 C 198.378906 36.796875 199.308594 29.207031 196.40625 25.742188 C 195.574219 24.75 193.675781 23.234375 190.992188 22.691406 C 190.347656 22.5625 188.054688 22.210938 185.542969 23.183594 C 182.101562 24.519531 180.308594 27.585938 179.632812 28.738281 C 160.980469 60.601562 148.660156 81.652344 153.441406 88.082031 C 155.261719 90.53125 158.121094 92.203125 160.558594 92.246094 C 165.277344 92.332031 168.964844 85.128906 175.667969 72.050781 C 176.1875 71.039062 176.722656 69.988281 177.28125 68.90625 C 179.691406 64.226562 182.816406 55.421875 180.945312 51.703125 C 180.4375 50.691406 180.078125 50.402344 179.863281 50.332031 C 179.1875 50.121094 177.628906 51.269531 177.117188 51.644531 C 175.761719 52.644531 174.960938 53.84375 173.875 55.84375 C 172.398438 58.566406 171.128906 61.480469 170.105469 64.503906 C 169.695312 66.144531 167.890625 66.949219 166.417969 66.339844 C 165.027344 65.765625 164.25 64.054688 164.886719 62.597656 C 166.15625 58.488281 167.796875 55.367188 169 53.152344 C 170.371094 50.621094 171.578125 48.855469 173.675781 47.3125 C 175.054688 46.296875 177.929688 44.179688 181.308594 45.246094 C 184.136719 46.136719 185.425781 48.703125 185.851562 49.546875 C 189.453125 56.71875 183.449219 69.09375 182.210938 71.5 C 181.65625 72.582031 181.117188 73.625 180.601562 74.636719 C 172.714844 90.023438 168.757812 97.746094 160.734375 97.601562 C 158.597656 97.5625 156.355469 96.878906 154.292969 95.707031 " fill-opacity="1" fill-rule="nonzero"/></svg>