<svg xmlns="http://www.w3.org/2000/svg" xmlns:xlink="http://www.w3.org/1999/xlink" width="500" zoomAndPan="magnify" viewBox="0 0 375 374.999991" height="500" preserveAspectRatio="xMidYMid meet" version="1.0"><defs><clipPath id="a7067d6025"><path d="M 19 24 L 356.84375 24 L 356.84375 355 L 19 355 Z M 19 24 " clip-rule="nonzero"/></clipPath></defs><g clip-path="url(#a7067d6025)"><path fill="#000000" d="M 36 229.105469 C 35.304688 225.644531 35.132812 223.359375 35.113281 223.054688 L 19.914062 57.054688 C 19.800781 55.835938 20.699219 54.753906 21.917969 54.640625 L 158.835938 42.0625 L 158.515625 38.542969 C 157.914062 31.976562 162.738281 26.164062 169.292969 25.5625 L 176.109375 24.9375 C 182.664062 24.332031 188.464844 29.167969 189.066406 35.734375 L 189.386719 39.253906 L 326.304688 26.671875 C 327.523438 26.5625 328.605469 27.460938 328.714844 28.683594 L 356.640625 333.574219 C 356.75 334.796875 355.851562 335.878906 354.632812 335.992188 L 150.105469 354.785156 C 150.058594 354.789062 150.019531 354.792969 149.976562 354.792969 C 144.042969 354.992188 138.121094 354.21875 132.828125 352.457031 C 132.707031 352.433594 132.582031 352.402344 132.460938 352.355469 C 132.054688 352.207031 131.644531 352.050781 131.234375 351.886719 C 130.019531 351.425781 128.84375 350.910156 127.714844 350.335938 C 104.917969 339.355469 77.519531 308.632812 58.6875 279.882812 C 45.207031 259.296875 36.179688 239.699219 36 229.105469 Z M 163.253906 41.65625 L 184.972656 39.660156 L 184.648438 36.140625 C 184.273438 32.019531 180.628906 28.984375 176.515625 29.359375 L 169.699219 29.988281 C 165.582031 30.367188 162.550781 34.011719 162.929688 38.136719 Z M 185.375 44.082031 L 24.53125 58.863281 L 39.53125 222.675781 C 39.535156 222.699219 39.539062 222.71875 39.539062 222.742188 C 39.539062 222.742188 39.667969 224.894531 40.347656 228.292969 C 40.375 228.402344 40.398438 228.511719 40.414062 228.625 C 41.734375 235.070312 44.976562 245.707031 52.777344 254.785156 C 76.371094 282.25 104.5625 293.117188 128.433594 295.589844 C 129.226562 295.671875 129.914062 296.171875 130.234375 296.902344 C 130.558594 297.632812 130.460938 298.476562 129.988281 299.121094 C 116.566406 317.289062 115.304688 330.289062 120.8125 338.75 C 122.734375 341.699219 125.433594 344.058594 128.640625 345.859375 C 130.453125 346.765625 132.234375 347.542969 133.984375 348.183594 C 134.074219 348.214844 134.160156 348.253906 134.242188 348.296875 C 139.019531 349.871094 144.398438 350.53125 149.761719 350.355469 L 352.019531 331.769531 L 324.503906 31.300781 L 189.792969 43.675781 L 192.621094 74.578125 C 192.894531 77.539062 191.980469 80.488281 190.078125 82.773438 C 188.183594 85.0625 185.453125 86.496094 182.496094 86.769531 C 179.539062 87.039062 176.597656 86.125 174.3125 84.222656 C 172.03125 82.320312 170.59375 79.585938 170.324219 76.628906 L 168.386719 55.46875 C 168.273438 54.246094 169.171875 53.164062 170.390625 53.050781 C 171.609375 52.9375 172.691406 53.839844 172.800781 55.0625 L 174.738281 76.222656 C 174.902344 78.007812 175.769531 79.660156 177.152344 80.808594 C 178.527344 81.957031 180.304688 82.511719 182.089844 82.347656 C 183.875 82.183594 185.523438 81.3125 186.671875 79.933594 C 187.816406 78.554688 188.371094 76.769531 188.207031 74.984375 Z M 52.535156 261.195312 C 55.433594 266.417969 58.757812 271.886719 62.394531 277.445312 C 76.890625 299.578125 96.492188 323.027344 115.023438 337.160156 C 111.5 328.25 113.113281 315.765625 124.230469 299.558594 C 101.339844 296.417969 75.125 285.773438 52.535156 261.195312 Z M 52.535156 261.195312 " fill-opacity="1" fill-rule="evenodd"/></g></svg>