<svg xmlns="http://www.w3.org/2000/svg" xmlns:xlink="http://www.w3.org/1999/xlink" width="500" zoomAndPan="magnify" viewBox="0 0 375 374.999991" height="500" preserveAspectRatio="xMidYMid meet" version="1.0"><defs><clipPath id="e091d2df1b"><path d="M 17.640625 21 L 364.890625 21 L 364.890625 362.269531 L 17.640625 362.269531 Z M 17.640625 21 " clip-rule="nonzero"/></clipPath><clipPath id="9dc32af1f9"><path d="M 60 12.769531 L 70 12.769531 L 70 49 L 60 49 Z M 60 12.769531 " clip-rule="nonzero"/></clipPath><clipPath id="676317b036"><path d="M 103 12.769531 L 113 12.769531 L 113 49 L 103 49 Z M 103 12.769531 " clip-rule="nonzero"/></clipPath><clipPath id="313fe6be8c"><path d="M 146 12.769531 L 156 12.769531 L 156 49 L 146 49 Z M 146 12.769531 " clip-rule="nonzero"/></clipPath><clipPath id="437630553e"><path d="M 189 12.769531 L 199 12.769531 L 199 49 L 189 49 Z M 189 12.769531 " clip-rule="nonzero"/></clipPath><clipPath id="e3af28ab0d"><path d="M 232 12.769531 L 242 12.769531 L 242 49 L 232 49 Z M 232 12.769531 " clip-rule="nonzero"/></clipPath><clipPath id="c09782318f"><path d="M 275 12.769531 L 285 12.769531 L 285 49 L 275 49 Z M 275 12.769531 " clip-rule="nonzero"/></clipPath><clipPath id="e78c51a90b"><path d="M 318 12.769531 L 328 12.769531 L 328 49 L 318 49 Z M 318 12.769531 " clip-rule="nonzero"/></clipPath></defs><path fill="#ffffff" d="M 362.386719 36.109375 C 362.289062 28.371094 355.992188 22.152344 348.257812 22.152344 L 38.277344 22.152344 C 34.503906 22.152344 30.886719 23.664062 28.230469 26.347656 C 25.574219 29.03125 24.105469 32.667969 24.144531 36.445312 C 24.636719 82.394531 25.621094 140.429688 23.984375 198.21875 C 21.785156 275.832031 20.371094 320.765625 18.941406 346.203125 C 18.71875 350.113281 20.042969 353.953125 22.714844 356.816406 C 25.386719 359.675781 29.125 361.300781 33.039062 361.300781 L 342.800781 361.300781 C 350.273438 361.300781 356.457031 355.480469 356.90625 348.015625 C 358.34375 324.105469 359.6875 279.601562 362.199219 198.21875 C 363.976562 140.574219 362.988281 82.175781 362.386719 36.109375 Z M 362.386719 36.109375 " fill-opacity="1" fill-rule="nonzero"/><g clip-path="url(#e091d2df1b)"><path fill="#000000" d="M 342.800781 362.242188 L 33.039062 362.242188 C 28.878906 362.242188 24.867188 360.5 22.027344 357.457031 C 19.230469 354.464844 17.761719 350.34375 18 346.152344 C 19.441406 320.542969 20.886719 274.394531 23.042969 198.191406 C 24.484375 147.230469 23.878906 95.082031 23.394531 53.179688 C 23.328125 47.449219 23.261719 41.867188 23.203125 36.453125 C 23.160156 32.453125 24.75 28.527344 27.558594 25.683594 C 30.371094 22.839844 34.277344 21.207031 38.277344 21.207031 L 348.257812 21.207031 C 356.460938 21.207031 363.222656 27.886719 363.332031 36.09375 L 363.472656 46.6875 C 364.058594 90.449219 364.785156 144.914062 363.140625 198.246094 L 362.816406 208.667969 C 360.5 283.800781 359.222656 325.191406 357.847656 348.070312 C 357.367188 356.019531 350.757812 362.242188 342.800781 362.242188 Z M 38.277344 23.09375 C 34.777344 23.09375 31.359375 24.523438 28.898438 27.011719 C 26.441406 29.5 25.050781 32.933594 25.085938 36.433594 C 25.144531 41.847656 25.210938 47.429688 25.277344 53.160156 C 25.765625 95.078125 26.371094 147.246094 24.925781 198.246094 C 22.765625 274.464844 21.324219 320.628906 19.878906 346.257812 C 19.671875 349.9375 20.957031 353.550781 23.402344 356.171875 C 25.886719 358.832031 29.398438 360.355469 33.039062 360.355469 L 342.796875 360.355469 C 349.761719 360.355469 355.546875 354.910156 355.964844 347.957031 C 357.339844 325.101562 358.617188 283.726562 360.933594 208.609375 L 361.257812 198.1875 C 362.898438 144.898438 362.171875 90.457031 361.585938 46.710938 L 361.445312 36.121094 C 361.351562 28.9375 355.4375 23.09375 348.257812 23.09375 Z M 38.277344 23.09375 " fill-opacity="1" fill-rule="nonzero"/></g><path fill="#ffffff" d="M 65.15625 52.5 C 60.210938 52.5 56.203125 49.09375 56.203125 44.890625 C 56.203125 40.683594 60.210938 37.277344 65.15625 37.277344 C 70.097656 37.277344 74.105469 40.683594 74.105469 44.890625 C 74.105469 49.09375 70.097656 52.5 65.15625 52.5 Z M 108.113281 52.5 C 103.171875 52.5 99.164062 49.09375 99.164062 44.890625 C 99.164062 40.683594 103.171875 37.277344 108.113281 37.277344 C 113.058594 37.277344 117.0625 40.683594 117.0625 44.890625 C 117.0625 49.09375 113.058594 52.5 108.113281 52.5 Z M 151.074219 52.5 C 146.132812 52.5 142.125 49.09375 142.125 44.890625 C 142.125 40.683594 146.132812 37.277344 151.074219 37.277344 C 156.015625 37.277344 160.023438 40.683594 160.023438 44.890625 C 160.023438 49.09375 156.015625 52.5 151.074219 52.5 Z M 194.035156 52.5 C 189.089844 52.5 185.082031 49.09375 185.082031 44.890625 C 185.082031 40.683594 189.089844 37.277344 194.035156 37.277344 C 198.976562 37.277344 202.984375 40.683594 202.984375 44.890625 C 202.984375 49.09375 198.976562 52.5 194.035156 52.5 Z M 236.992188 52.5 C 232.050781 52.5 228.042969 49.09375 228.042969 44.890625 C 228.042969 40.683594 232.050781 37.277344 236.992188 37.277344 C 241.9375 37.277344 245.941406 40.683594 245.941406 44.890625 C 245.941406 49.09375 241.9375 52.5 236.992188 52.5 Z M 279.953125 52.5 C 275.011719 52.5 271.003906 49.09375 271.003906 44.890625 C 271.003906 40.683594 275.011719 37.277344 279.953125 37.277344 C 284.894531 37.277344 288.902344 40.683594 288.902344 44.890625 C 288.902344 49.09375 284.894531 52.5 279.953125 52.5 Z M 322.914062 52.5 C 317.96875 52.5 313.960938 49.09375 313.960938 44.890625 C 313.960938 40.683594 317.96875 37.277344 322.914062 37.277344 C 327.855469 37.277344 331.863281 40.683594 331.863281 44.890625 C 331.863281 49.09375 327.855469 52.5 322.914062 52.5 Z M 322.914062 52.5 " fill-opacity="1" fill-rule="nonzero"/><path fill="#000000" d="M 322.914062 53.171875 C 317.609375 53.171875 313.292969 49.457031 313.292969 44.890625 C 313.292969 40.320312 317.609375 36.605469 322.914062 36.605469 C 328.21875 36.605469 332.535156 40.320312 332.535156 44.890625 C 332.535156 49.457031 328.21875 53.171875 322.914062 53.171875 Z M 322.914062 37.949219 C 318.347656 37.949219 314.632812 41.0625 314.632812 44.890625 C 314.632812 48.714844 318.347656 51.828125 322.914062 51.828125 C 327.476562 51.828125 331.191406 48.714844 331.191406 44.890625 C 331.191406 41.0625 327.476562 37.949219 322.914062 37.949219 Z M 279.953125 53.171875 C 274.648438 53.171875 270.332031 49.457031 270.332031 44.890625 C 270.332031 40.320312 274.648438 36.605469 279.953125 36.605469 C 285.257812 36.605469 289.574219 40.320312 289.574219 44.890625 C 289.574219 49.457031 285.257812 53.171875 279.953125 53.171875 Z M 279.953125 37.949219 C 275.386719 37.949219 271.675781 41.0625 271.675781 44.890625 C 271.675781 48.714844 275.386719 51.828125 279.953125 51.828125 C 284.519531 51.828125 288.230469 48.714844 288.230469 44.890625 C 288.230469 41.0625 284.515625 37.949219 279.953125 37.949219 Z M 236.992188 53.171875 C 231.6875 53.171875 227.371094 49.457031 227.371094 44.890625 C 227.371094 40.320312 231.6875 36.605469 236.992188 36.605469 C 242.296875 36.605469 246.613281 40.320312 246.613281 44.890625 C 246.613281 49.457031 242.300781 53.171875 236.992188 53.171875 Z M 236.992188 37.949219 C 232.425781 37.949219 228.714844 41.0625 228.714844 44.890625 C 228.714844 48.714844 232.429688 51.828125 236.992188 51.828125 C 241.558594 51.828125 245.273438 48.714844 245.273438 44.890625 C 245.273438 41.0625 241.558594 37.949219 236.992188 37.949219 Z M 194.035156 53.171875 C 188.726562 53.171875 184.414062 49.457031 184.414062 44.890625 C 184.414062 40.320312 188.726562 36.605469 194.035156 36.605469 C 199.339844 36.605469 203.65625 40.320312 203.65625 44.890625 C 203.65625 49.457031 199.339844 53.171875 194.035156 53.171875 Z M 194.035156 37.949219 C 189.46875 37.949219 185.753906 41.0625 185.753906 44.890625 C 185.753906 48.714844 189.46875 51.828125 194.035156 51.828125 C 198.597656 51.828125 202.3125 48.714844 202.3125 44.890625 C 202.3125 41.0625 198.597656 37.949219 194.035156 37.949219 Z M 151.074219 53.171875 C 145.769531 53.171875 141.453125 49.457031 141.453125 44.890625 C 141.453125 40.320312 145.769531 36.605469 151.074219 36.605469 C 156.378906 36.605469 160.695312 40.320312 160.695312 44.890625 C 160.695312 49.457031 156.378906 53.171875 151.074219 53.171875 Z M 151.074219 37.949219 C 146.507812 37.949219 142.796875 41.0625 142.796875 44.890625 C 142.796875 48.714844 146.507812 51.828125 151.074219 51.828125 C 155.640625 51.828125 159.351562 48.714844 159.351562 44.890625 C 159.351562 41.0625 155.640625 37.949219 151.074219 37.949219 Z M 108.113281 53.171875 C 102.808594 53.171875 98.492188 49.457031 98.492188 44.890625 C 98.492188 40.320312 102.808594 36.605469 108.113281 36.605469 C 113.417969 36.605469 117.734375 40.320312 117.734375 44.890625 C 117.734375 49.457031 113.417969 53.171875 108.113281 53.171875 Z M 108.113281 37.949219 C 103.550781 37.949219 99.835938 41.0625 99.835938 44.890625 C 99.835938 48.714844 103.550781 51.828125 108.113281 51.828125 C 112.679688 51.828125 116.394531 48.714844 116.394531 44.890625 C 116.394531 41.0625 112.679688 37.949219 108.113281 37.949219 Z M 65.15625 53.171875 C 59.847656 53.171875 55.535156 49.457031 55.535156 44.890625 C 55.535156 40.320312 59.847656 36.605469 65.15625 36.605469 C 70.460938 36.605469 74.777344 40.320312 74.777344 44.890625 C 74.777344 49.457031 70.460938 53.171875 65.15625 53.171875 Z M 65.15625 37.949219 C 60.589844 37.949219 56.875 41.0625 56.875 44.890625 C 56.875 48.714844 60.589844 51.828125 65.15625 51.828125 C 69.71875 51.828125 73.433594 48.714844 73.433594 44.890625 C 73.433594 41.0625 69.71875 37.949219 65.15625 37.949219 Z M 65.15625 37.949219 " fill-opacity="1" fill-rule="nonzero"/><path fill="#afdff9" d="M 65.15625 48.023438 C 62.929688 48.023438 61.128906 46.21875 61.128906 43.992188 L 61.128906 17.445312 C 61.128906 15.21875 62.929688 13.414062 65.15625 13.414062 C 67.378906 13.414062 69.183594 15.21875 69.183594 17.445312 L 69.183594 43.992188 C 69.183594 46.21875 67.378906 48.023438 65.15625 48.023438 Z M 65.15625 48.023438 " fill-opacity="1" fill-rule="nonzero"/><g clip-path="url(#9dc32af1f9)"><path fill="#000000" d="M 65.15625 48.695312 C 62.5625 48.695312 60.457031 46.585938 60.457031 43.992188 L 60.457031 17.445312 C 60.457031 14.855469 62.5625 12.746094 65.15625 12.746094 C 67.746094 12.746094 69.851562 14.855469 69.851562 17.445312 L 69.851562 43.992188 C 69.851562 46.585938 67.746094 48.695312 65.15625 48.695312 Z M 65.15625 14.089844 C 63.304688 14.089844 61.796875 15.59375 61.796875 17.445312 L 61.796875 43.992188 C 61.796875 45.84375 63.304688 47.351562 65.15625 47.351562 C 67.003906 47.351562 68.511719 45.84375 68.511719 43.992188 L 68.511719 17.445312 C 68.511719 15.59375 67.003906 14.089844 65.15625 14.089844 Z M 65.15625 14.089844 " fill-opacity="1" fill-rule="nonzero"/></g><path fill="#afdff9" d="M 108.113281 48.023438 C 105.890625 48.023438 104.085938 46.21875 104.085938 43.992188 L 104.085938 17.445312 C 104.085938 15.21875 105.890625 13.414062 108.113281 13.414062 C 110.339844 13.414062 112.140625 15.21875 112.140625 17.445312 L 112.140625 43.992188 C 112.140625 46.21875 110.339844 48.023438 108.113281 48.023438 Z M 108.113281 48.023438 " fill-opacity="1" fill-rule="nonzero"/><g clip-path="url(#676317b036)"><path fill="#000000" d="M 108.113281 48.695312 C 105.523438 48.695312 103.414062 46.585938 103.414062 43.992188 L 103.414062 17.445312 C 103.414062 14.855469 105.523438 12.746094 108.113281 12.746094 C 110.707031 12.746094 112.8125 14.855469 112.8125 17.445312 L 112.8125 43.992188 C 112.8125 46.585938 110.707031 48.695312 108.113281 48.695312 Z M 108.113281 14.089844 C 106.261719 14.089844 104.757812 15.59375 104.757812 17.445312 L 104.757812 43.992188 C 104.757812 45.84375 106.261719 47.351562 108.113281 47.351562 C 109.964844 47.351562 111.472656 45.84375 111.472656 43.992188 L 111.472656 17.445312 C 111.46875 15.59375 109.964844 14.089844 108.113281 14.089844 Z M 108.113281 14.089844 " fill-opacity="1" fill-rule="nonzero"/></g><path fill="#afdff9" d="M 151.074219 48.023438 C 148.851562 48.023438 147.046875 46.21875 147.046875 43.992188 L 147.046875 17.445312 C 147.046875 15.21875 148.851562 13.414062 151.074219 13.414062 C 153.296875 13.414062 155.101562 15.21875 155.101562 17.445312 L 155.101562 43.992188 C 155.101562 46.21875 153.296875 48.023438 151.074219 48.023438 Z M 151.074219 48.023438 " fill-opacity="1" fill-rule="nonzero"/><g clip-path="url(#313fe6be8c)"><path fill="#000000" d="M 151.074219 48.695312 C 148.484375 48.695312 146.375 46.585938 146.375 43.992188 L 146.375 17.445312 C 146.375 14.855469 148.484375 12.746094 151.074219 12.746094 C 153.664062 12.746094 155.773438 14.855469 155.773438 17.445312 L 155.773438 43.992188 C 155.773438 46.585938 153.664062 48.695312 151.074219 48.695312 Z M 151.074219 14.089844 C 149.222656 14.089844 147.71875 15.59375 147.71875 17.445312 L 147.71875 43.992188 C 147.71875 45.84375 149.222656 47.351562 151.074219 47.351562 C 152.925781 47.351562 154.429688 45.84375 154.429688 43.992188 L 154.429688 17.445312 C 154.429688 15.59375 152.925781 14.089844 151.074219 14.089844 Z M 151.074219 14.089844 " fill-opacity="1" fill-rule="nonzero"/></g><path fill="#afdff9" d="M 194.035156 48.023438 C 191.808594 48.023438 190.007812 46.21875 190.007812 43.992188 L 190.007812 17.445312 C 190.007812 15.21875 191.808594 13.414062 194.035156 13.414062 C 196.257812 13.414062 198.0625 15.21875 198.0625 17.445312 L 198.0625 43.992188 C 198.0625 46.21875 196.257812 48.023438 194.035156 48.023438 Z M 194.035156 48.023438 " fill-opacity="1" fill-rule="nonzero"/><g clip-path="url(#437630553e)"><path fill="#000000" d="M 194.035156 48.695312 C 191.441406 48.695312 189.335938 46.585938 189.335938 43.992188 L 189.335938 17.445312 C 189.335938 14.855469 191.441406 12.746094 194.035156 12.746094 C 196.625 12.746094 198.730469 14.855469 198.730469 17.445312 L 198.730469 43.992188 C 198.730469 46.585938 196.625 48.695312 194.035156 48.695312 Z M 194.035156 14.089844 C 192.183594 14.089844 190.675781 15.59375 190.675781 17.445312 L 190.675781 43.992188 C 190.675781 45.84375 192.183594 47.351562 194.035156 47.351562 C 195.882812 47.351562 197.390625 45.84375 197.390625 43.992188 L 197.390625 17.445312 C 197.390625 15.59375 195.882812 14.089844 194.035156 14.089844 Z M 194.035156 14.089844 " fill-opacity="1" fill-rule="nonzero"/></g><path fill="#afdff9" d="M 236.992188 48.023438 C 234.769531 48.023438 232.964844 46.21875 232.964844 43.992188 L 232.964844 17.445312 C 232.964844 15.21875 234.769531 13.414062 236.992188 13.414062 C 239.21875 13.414062 241.019531 15.21875 241.019531 17.445312 L 241.019531 43.992188 C 241.019531 46.21875 239.21875 48.023438 236.992188 48.023438 Z M 236.992188 48.023438 " fill-opacity="1" fill-rule="nonzero"/><g clip-path="url(#e3af28ab0d)"><path fill="#000000" d="M 236.992188 48.695312 C 234.402344 48.695312 232.292969 46.585938 232.292969 43.992188 L 232.292969 17.445312 C 232.292969 14.855469 234.402344 12.746094 236.992188 12.746094 C 239.585938 12.746094 241.691406 14.855469 241.691406 17.445312 L 241.691406 43.992188 C 241.691406 46.585938 239.585938 48.695312 236.992188 48.695312 Z M 236.992188 14.089844 C 235.144531 14.089844 233.636719 15.59375 233.636719 17.445312 L 233.636719 43.992188 C 233.636719 45.84375 235.144531 47.351562 236.992188 47.351562 C 238.84375 47.351562 240.347656 45.84375 240.347656 43.992188 L 240.347656 17.445312 C 240.351562 15.59375 238.84375 14.089844 236.992188 14.089844 Z M 236.992188 14.089844 " fill-opacity="1" fill-rule="nonzero"/></g><path fill="#afdff9" d="M 279.953125 48.023438 C 277.726562 48.023438 275.925781 46.21875 275.925781 43.992188 L 275.925781 17.445312 C 275.925781 15.21875 277.726562 13.414062 279.953125 13.414062 C 282.175781 13.414062 283.980469 15.21875 283.980469 17.445312 L 283.980469 43.992188 C 283.980469 46.21875 282.175781 48.023438 279.953125 48.023438 Z M 279.953125 48.023438 " fill-opacity="1" fill-rule="nonzero"/><g clip-path="url(#c09782318f)"><path fill="#000000" d="M 279.953125 48.695312 C 277.363281 48.695312 275.253906 46.585938 275.253906 43.992188 L 275.253906 17.445312 C 275.253906 14.855469 277.363281 12.746094 279.953125 12.746094 C 282.542969 12.746094 284.652344 14.855469 284.652344 17.445312 L 284.652344 43.992188 C 284.652344 46.585938 282.542969 48.695312 279.953125 48.695312 Z M 279.953125 14.089844 C 278.101562 14.089844 276.597656 15.59375 276.597656 17.445312 L 276.597656 43.992188 C 276.597656 45.84375 278.101562 47.351562 279.953125 47.351562 C 281.804688 47.351562 283.308594 45.84375 283.308594 43.992188 L 283.308594 17.445312 C 283.308594 15.59375 281.804688 14.089844 279.953125 14.089844 Z M 279.953125 14.089844 " fill-opacity="1" fill-rule="nonzero"/></g><path fill="#afdff9" d="M 322.914062 48.023438 C 320.6875 48.023438 318.882812 46.21875 318.882812 43.992188 L 318.882812 17.445312 C 318.882812 15.21875 320.6875 13.414062 322.914062 13.414062 C 325.136719 13.414062 326.941406 15.21875 326.941406 17.445312 L 326.941406 43.992188 C 326.941406 46.21875 325.136719 48.023438 322.914062 48.023438 Z M 322.914062 48.023438 " fill-opacity="1" fill-rule="nonzero"/><g clip-path="url(#e78c51a90b)"><path fill="#000000" d="M 322.914062 48.695312 C 320.320312 48.695312 318.214844 46.585938 318.214844 43.992188 L 318.214844 17.445312 C 318.214844 14.855469 320.320312 12.746094 322.914062 12.746094 C 325.503906 12.746094 327.613281 14.855469 327.613281 17.445312 L 327.613281 43.992188 C 327.613281 46.585938 325.503906 48.695312 322.914062 48.695312 Z M 322.914062 14.089844 C 321.0625 14.089844 319.554688 15.59375 319.554688 17.445312 L 319.554688 43.992188 C 319.554688 45.84375 321.0625 47.351562 322.914062 47.351562 C 324.761719 47.351562 326.269531 45.84375 326.269531 43.992188 L 326.269531 17.445312 C 326.269531 15.59375 324.761719 14.089844 322.914062 14.089844 Z M 322.914062 14.089844 " fill-opacity="1" fill-rule="nonzero"/></g></svg>