<svg width="627" height="649" viewBox="0 0 627 649" fill="none" xmlns="http://www.w3.org/2000/svg">
<g clip-path="url(#clip0_338_6648)">
<path d="M605.91 62.4933C605.747 49.101 595.219 38.3384 582.287 38.3384H63.9996C57.6905 38.3384 51.6425 40.9547 47.2013 45.5991C42.76 50.2435 40.3043 56.5374 40.3696 63.0747C41.1925 142.598 42.8384 243.037 40.1018 343.051C36.4247 477.373 34.0604 555.138 31.67 599.162C31.2977 605.929 33.5118 612.575 37.9791 617.53C42.4465 622.479 48.6969 625.291 55.2412 625.291H573.163C585.657 625.291 595.996 615.218 596.747 602.299C599.151 560.919 601.397 483.897 605.597 343.051C608.569 243.287 606.916 142.219 605.91 62.4933Z" fill="white"/>
<mask id="mask0_338_6648" style="mask-type:luminance" maskUnits="userSpaceOnUse" x="113" y="34" width="581" height="591">
<path d="M113 34H693.602V624.624H113V34Z" fill="white"/>
</mask>
<g mask="url(#mask0_338_6648)">
<path d="M573.163 626.921H55.2412C48.2854 626.921 41.5778 623.906 36.8296 618.639C32.1532 613.461 29.6975 606.329 30.0959 599.075C32.5059 554.753 34.9225 474.886 38.5277 343.004C40.9378 254.807 39.9254 164.556 39.1155 92.0367C39.0045 82.1191 38.8935 72.4585 38.7955 63.0885C38.7237 56.1659 41.3819 49.3717 46.0779 44.4501C50.7804 39.5285 57.3116 36.7026 63.9996 36.7026H582.287C596.003 36.7026 607.308 48.2629 607.491 62.4666L607.726 80.8008C608.706 156.538 609.921 250.798 607.171 343.098L606.629 361.135C602.756 491.165 600.62 562.798 598.321 602.394C597.518 616.152 586.467 626.921 573.163 626.921ZM63.9996 39.9679C58.1476 39.9679 52.4328 42.4422 48.3181 46.7486C44.2099 51.055 41.8848 56.9974 41.9436 63.0547C42.0415 72.4247 42.1526 82.0853 42.2636 92.0028C43.08 164.549 44.0924 254.834 41.6758 343.098C38.064 475.008 35.654 554.902 33.2374 599.257C32.8913 605.626 35.04 611.879 39.1286 616.415C43.2825 621.019 49.1541 623.656 55.2412 623.656H573.156C584.802 623.656 594.474 614.232 595.173 602.198C597.472 562.643 599.608 491.036 603.481 361.034L604.023 342.997C606.766 250.771 605.551 156.551 604.572 80.8414L604.337 62.5139C604.18 50.0815 594.291 39.9679 582.287 39.9679H63.9996Z" fill="black"/>
</g>
<path d="M108.941 90.86C100.673 90.86 93.9717 84.9649 93.9717 77.6907C93.9717 70.4097 100.673 64.5146 108.941 64.5146C117.203 64.5146 123.904 70.4097 123.904 77.6907C123.904 84.9649 117.203 90.86 108.941 90.86ZM180.765 90.86C172.503 90.86 165.802 84.9649 165.802 77.6907C165.802 70.4097 172.503 64.5146 180.765 64.5146C189.034 64.5146 195.729 70.4097 195.729 77.6907C195.729 84.9649 189.034 90.86 180.765 90.86ZM252.596 90.86C244.334 90.86 237.633 84.9649 237.633 77.6907C237.633 70.4097 244.334 64.5146 252.596 64.5146C260.858 64.5146 267.559 70.4097 267.559 77.6907C267.559 84.9649 260.858 90.86 252.596 90.86ZM324.427 90.86C316.158 90.86 309.457 84.9649 309.457 77.6907C309.457 70.4097 316.158 64.5146 324.427 64.5146C332.689 64.5146 339.39 70.4097 339.39 77.6907C339.39 84.9649 332.689 90.86 324.427 90.86ZM396.251 90.86C387.989 90.86 381.288 84.9649 381.288 77.6907C381.288 70.4097 387.989 64.5146 396.251 64.5146C404.52 64.5146 411.214 70.4097 411.214 77.6907C411.214 84.9649 404.52 90.86 396.251 90.86ZM468.082 90.86C459.82 90.86 453.119 84.9649 453.119 77.6907C453.119 70.4097 459.82 64.5146 468.082 64.5146C476.344 64.5146 483.045 70.4097 483.045 77.6907C483.045 84.9649 476.344 90.86 468.082 90.86ZM539.912 90.86C531.644 90.86 524.943 84.9649 524.943 77.6907C524.943 70.4097 531.644 64.5146 539.912 64.5146C548.174 64.5146 554.875 70.4097 554.875 77.6907C554.875 84.9649 548.174 90.86 539.912 90.86Z" fill="white"/>
<path d="M539.912 92.023C531.043 92.023 523.826 85.5938 523.826 77.6909C523.826 69.7812 531.043 63.3521 539.912 63.3521C548.782 63.3521 555.999 69.7812 555.999 77.6909C555.999 85.5938 548.782 92.023 539.912 92.023ZM539.912 65.6776C532.277 65.6776 526.066 71.0657 526.066 77.6909C526.066 84.3093 532.277 89.6974 539.912 89.6974C547.541 89.6974 553.752 84.3093 553.752 77.6909C553.752 71.0657 547.541 65.6776 539.912 65.6776ZM468.082 92.023C459.212 92.023 451.995 85.5938 451.995 77.6909C451.995 69.7812 459.212 63.3521 468.082 63.3521C476.951 63.3521 484.168 69.7812 484.168 77.6909C484.168 85.5938 476.951 92.023 468.082 92.023ZM468.082 65.6776C460.447 65.6776 454.242 71.0657 454.242 77.6909C454.242 84.3093 460.447 89.6974 468.082 89.6974C475.717 89.6974 481.921 84.3093 481.921 77.6909C481.921 71.0657 475.71 65.6776 468.082 65.6776ZM396.251 92.023C387.381 92.023 380.164 85.5938 380.164 77.6909C380.164 69.7812 387.381 63.3521 396.251 63.3521C405.12 63.3521 412.337 69.7812 412.337 77.6909C412.337 85.5938 405.127 92.023 396.251 92.023ZM396.251 65.6776C388.616 65.6776 382.411 71.0657 382.411 77.6909C382.411 84.3093 388.622 89.6974 396.251 89.6974C403.886 89.6974 410.097 84.3093 410.097 77.6909C410.097 71.0657 403.886 65.6776 396.251 65.6776ZM324.427 92.023C315.551 92.023 308.34 85.5938 308.34 77.6909C308.34 69.7812 315.551 63.3521 324.427 63.3521C333.296 63.3521 340.513 69.7812 340.513 77.6909C340.513 85.5938 333.296 92.023 324.427 92.023ZM324.427 65.6776C316.792 65.6776 310.58 71.0657 310.58 77.6909C310.58 84.3093 316.792 89.6974 324.427 89.6974C332.055 89.6974 338.266 84.3093 338.266 77.6909C338.266 71.0657 332.055 65.6776 324.427 65.6776ZM252.596 92.023C243.727 92.023 236.51 85.5938 236.51 77.6909C236.51 69.7812 243.727 63.3521 252.596 63.3521C261.465 63.3521 268.683 69.7812 268.683 77.6909C268.683 85.5938 261.465 92.023 252.596 92.023ZM252.596 65.6776C244.961 65.6776 238.756 71.0657 238.756 77.6909C238.756 84.3093 244.961 89.6974 252.596 89.6974C260.231 89.6974 266.436 84.3093 266.436 77.6909C266.436 71.0657 260.231 65.6776 252.596 65.6776ZM180.765 92.023C171.896 92.023 164.679 85.5938 164.679 77.6909C164.679 69.7812 171.896 63.3521 180.765 63.3521C189.635 63.3521 196.852 69.7812 196.852 77.6909C196.852 85.5938 189.635 92.023 180.765 92.023ZM180.765 65.6776C173.137 65.6776 166.926 71.0657 166.926 77.6909C166.926 84.3093 173.137 89.6974 180.765 89.6974C188.4 89.6974 194.612 84.3093 194.612 77.6909C194.612 71.0657 188.4 65.6776 180.765 65.6776ZM108.941 92.023C100.065 92.023 92.8547 85.5938 92.8547 77.6909C92.8547 69.7812 100.065 63.3521 108.941 63.3521C117.811 63.3521 125.028 69.7812 125.028 77.6909C125.028 85.5938 117.811 92.023 108.941 92.023ZM108.941 65.6776C101.306 65.6776 95.095 71.0657 95.095 77.6909C95.095 84.3093 101.306 89.6974 108.941 89.6974C116.57 89.6974 122.781 84.3093 122.781 77.6909C122.781 71.0657 116.57 65.6776 108.941 65.6776Z" fill="black"/>
<path d="M108.941 83.1126C105.218 83.1126 102.208 79.9893 102.208 76.1359V30.1921C102.208 26.3386 105.218 23.2153 108.941 23.2153C112.658 23.2153 115.675 26.3386 115.675 30.1921V76.1359C115.675 79.9893 112.658 83.1126 108.941 83.1126Z" fill="#58CC18"/>
<mask id="mask1_338_6648" style="mask-type:luminance" maskUnits="userSpaceOnUse" x="100" y="22" width="18" height="63">
<path d="M100.32 22.0996H117.04V84.8025H100.32V22.0996Z" fill="white"/>
</mask>
<g mask="url(#mask1_338_6648)">
<path d="M108.941 84.2752C104.605 84.2752 101.084 80.6246 101.084 76.1357V30.1919C101.084 25.7097 104.605 22.0591 108.941 22.0591C113.272 22.0591 116.792 25.7097 116.792 30.1919V76.1357C116.792 80.6246 113.272 84.2752 108.941 84.2752ZM108.941 24.3847C105.846 24.3847 103.324 26.9874 103.324 30.1919V76.1357C103.324 79.3401 105.846 81.9496 108.941 81.9496C112.031 81.9496 114.552 79.3401 114.552 76.1357V30.1919C114.552 26.9874 112.031 24.3847 108.941 24.3847Z" fill="black"/>
</g>
<path d="M180.765 83.1126C177.049 83.1126 174.032 79.9893 174.032 76.1359V30.1921C174.032 26.3386 177.049 23.2153 180.765 23.2153C184.488 23.2153 187.499 26.3386 187.499 30.1921V76.1359C187.499 79.9893 184.488 83.1126 180.765 83.1126Z" fill="#58CC18"/>
<mask id="mask2_338_6648" style="mask-type:luminance" maskUnits="userSpaceOnUse" x="172" y="22" width="17" height="63">
<path d="M172.216 22.0996H188.936V84.8025H172.216V22.0996Z" fill="white"/>
</mask>
<g mask="url(#mask2_338_6648)">
<path d="M180.766 84.2752C176.435 84.2752 172.908 80.6246 172.908 76.1357V30.1919C172.908 25.7097 176.435 22.0591 180.766 22.0591C185.102 22.0591 188.623 25.7097 188.623 30.1919V76.1357C188.623 80.6246 185.102 84.2752 180.766 84.2752ZM180.766 24.3847C177.67 24.3847 175.155 26.9874 175.155 30.1919V76.1357C175.155 79.3401 177.67 81.9496 180.766 81.9496C183.861 81.9496 186.382 79.3401 186.382 76.1357V30.1919C186.376 26.9874 183.861 24.3847 180.766 24.3847Z" fill="black"/>
</g>
<path d="M252.596 83.1126C248.88 83.1126 245.862 79.9893 245.862 76.1359V30.1921C245.862 26.3386 248.88 23.2153 252.596 23.2153C256.312 23.2153 259.33 26.3386 259.33 30.1921V76.1359C259.33 79.9893 256.312 83.1126 252.596 83.1126Z" fill="#58CC18"/>
<mask id="mask3_338_6648" style="mask-type:luminance" maskUnits="userSpaceOnUse" x="244" y="22" width="17" height="63">
<path d="M244.112 22.0996H260.832V84.8025H244.112V22.0996Z" fill="white"/>
</mask>
<g mask="url(#mask3_338_6648)">
<path d="M252.596 84.2752C248.266 84.2752 244.739 80.6246 244.739 76.1357V30.1919C244.739 25.7097 248.266 22.0591 252.596 22.0591C256.926 22.0591 260.453 25.7097 260.453 30.1919V76.1357C260.453 80.6246 256.926 84.2752 252.596 84.2752ZM252.596 24.3847C249.5 24.3847 246.986 26.9874 246.986 30.1919V76.1357C246.986 79.3401 249.5 81.9496 252.596 81.9496C255.692 81.9496 258.206 79.3401 258.206 76.1357V30.1919C258.206 26.9874 255.692 24.3847 252.596 24.3847Z" fill="black"/>
</g>
<path d="M324.427 83.1126C320.704 83.1126 317.693 79.9893 317.693 76.1359V30.1921C317.693 26.3386 320.704 23.2153 324.427 23.2153C328.143 23.2153 331.161 26.3386 331.161 30.1921V76.1359C331.161 79.9893 328.143 83.1126 324.427 83.1126Z" fill="#58CC18"/>
<mask id="mask4_338_6648" style="mask-type:luminance" maskUnits="userSpaceOnUse" x="316" y="22" width="17" height="63">
<path d="M316.008 22.0996H332.728V84.8025H316.008V22.0996Z" fill="white"/>
</mask>
<g mask="url(#mask4_338_6648)">
<path d="M324.427 84.2752C320.09 84.2752 316.57 80.6246 316.57 76.1357V30.1919C316.57 25.7097 320.09 22.0591 324.427 22.0591C328.757 22.0591 332.277 25.7097 332.277 30.1919V76.1357C332.277 80.6246 328.757 84.2752 324.427 84.2752ZM324.427 24.3847C321.331 24.3847 318.81 26.9874 318.81 30.1919V76.1357C318.81 79.3401 321.331 81.9496 324.427 81.9496C327.516 81.9496 330.037 79.3401 330.037 76.1357V30.1919C330.037 26.9874 327.516 24.3847 324.427 24.3847Z" fill="black"/>
</g>
<path d="M396.251 83.1126C392.535 83.1126 389.517 79.9893 389.517 76.1359V30.1921C389.517 26.3386 392.535 23.2153 396.251 23.2153C399.974 23.2153 402.985 26.3386 402.985 30.1921V76.1359C402.985 79.9893 399.974 83.1126 396.251 83.1126Z" fill="#58CC18"/>
<mask id="mask5_338_6648" style="mask-type:luminance" maskUnits="userSpaceOnUse" x="387" y="22" width="18" height="63">
<path d="M387.904 22.0996H404.624V84.8025H387.904V22.0996Z" fill="white"/>
</mask>
<g mask="url(#mask5_338_6648)">
<path d="M396.251 84.2752C391.921 84.2752 388.394 80.6246 388.394 76.1357V30.1919C388.394 25.7097 391.921 22.0591 396.251 22.0591C400.588 22.0591 404.108 25.7097 404.108 30.1919V76.1357C404.108 80.6246 400.588 84.2752 396.251 84.2752ZM396.251 24.3847C393.162 24.3847 390.641 26.9874 390.641 30.1919V76.1357C390.641 79.3401 393.162 81.9496 396.251 81.9496C399.347 81.9496 401.861 79.3401 401.861 76.1357V30.1919C401.868 26.9874 399.347 24.3847 396.251 24.3847Z" fill="black"/>
</g>
<path d="M468.082 83.1126C464.359 83.1126 461.348 79.9893 461.348 76.1359V30.1921C461.348 26.3386 464.359 23.2153 468.082 23.2153C471.798 23.2153 474.815 26.3386 474.815 30.1921V76.1359C474.815 79.9893 471.798 83.1126 468.082 83.1126Z" fill="#58CC18"/>
<mask id="mask6_338_6648" style="mask-type:luminance" maskUnits="userSpaceOnUse" x="459" y="22" width="18" height="63">
<path d="M459.8 22.0996H476.52V84.8025H459.8V22.0996Z" fill="white"/>
</mask>
<g mask="url(#mask6_338_6648)">
<path d="M468.082 84.2752C463.751 84.2752 460.225 80.6246 460.225 76.1357V30.1919C460.225 25.7097 463.751 22.0591 468.082 22.0591C472.412 22.0591 475.939 25.7097 475.939 30.1919V76.1357C475.939 80.6246 472.412 84.2752 468.082 84.2752ZM468.082 24.3847C464.986 24.3847 462.471 26.9874 462.471 30.1919V76.1357C462.471 79.3401 464.986 81.9496 468.082 81.9496C471.178 81.9496 473.692 79.3401 473.692 76.1357V30.1919C473.692 26.9874 471.178 24.3847 468.082 24.3847Z" fill="black"/>
</g>
<path d="M539.912 83.1126C536.19 83.1126 533.172 79.9893 533.172 76.1359V30.1921C533.172 26.3386 536.19 23.2153 539.912 23.2153C543.629 23.2153 546.646 26.3386 546.646 30.1921V76.1359C546.646 79.9893 543.629 83.1126 539.912 83.1126Z" fill="#58CC18"/>
<mask id="mask7_338_6648" style="mask-type:luminance" maskUnits="userSpaceOnUse" x="531" y="22" width="18" height="63">
<path d="M531.696 22.0996H548.416V84.8025H531.696V22.0996Z" fill="white"/>
</mask>
<g mask="url(#mask7_338_6648)">
<path d="M539.912 84.2752C535.576 84.2752 532.055 80.6246 532.055 76.1357V30.1919C532.055 25.7097 535.576 22.0591 539.912 22.0591C544.243 22.0591 547.769 25.7097 547.769 30.1919V76.1357C547.769 80.6246 544.243 84.2752 539.912 84.2752ZM539.912 24.3847C536.817 24.3847 534.296 26.9874 534.296 30.1919V76.1357C534.296 79.3401 536.817 81.9496 539.912 81.9496C543.002 81.9496 545.523 79.3401 545.523 76.1357V30.1919C545.523 26.9874 543.002 24.3847 539.912 24.3847Z" fill="black"/>
</g>
</g>
<defs>
<clipPath id="clip0_338_6648">
<rect width="627" height="649" fill="white"/>
</clipPath>
</defs>
</svg>
