<svg width="208" height="40" viewBox="0 0 208 40" fill="none" xmlns="http://www.w3.org/2000/svg">
<path d="M1.96249 40C0.974571 39.3067 0.320407 38.2267 0 36.76C0.881119 36.2533 1.77559 35.64 2.68341 34.92C3.59123 34.2 4.4056 33.44 5.12651 32.64C4.8328 31.2 4.63255 29.3333 4.52575 27.04C4.41895 24.7467 4.36554 21.72 4.36554 17.96H4.4056L4.36554 17.92C4.36554 15.5467 4.39224 13.5333 4.44565 11.88C4.49905 10.2267 4.60585 8.84 4.76605 7.72C4.92626 6.6 5.12651 5.65333 5.36682 4.88C5.63382 4.08 5.96758 3.36 6.36809 2.72C6.9555 1.76 7.67642 1.06667 8.53083 0.640001C9.41195 0.213334 10.3732 0 11.4145 0C13.4971 0 15.0992 0.92 16.2206 2.76C17.342 4.6 17.9027 7.13333 17.9027 10.36C17.9027 12.68 17.6491 14.9867 17.1418 17.28C16.6612 19.5467 15.9936 21.7067 15.1392 23.76C14.3115 25.8133 13.3636 27.6933 12.2956 29.4C11.2276 31.08 10.1195 32.5067 8.97139 33.68C8.99809 33.76 9.03815 33.8533 9.09155 33.96C9.46535 34.84 10.0127 35.5067 10.7336 35.96C11.4545 36.3867 12.2823 36.6 13.2168 36.6C13.5906 36.6 13.8843 36.76 14.0979 37.08C14.3382 37.3733 14.4584 37.7867 14.4584 38.32C14.4584 39.44 13.9644 40 12.9765 40C11.4545 40 10.1062 39.6667 8.93134 39C7.78322 38.3067 6.9288 37.4533 6.36809 36.44C5.80738 37.0267 5.16656 37.6133 4.44565 38.2C3.75143 38.76 2.92371 39.36 1.96249 40ZM7.93007 18.16C7.93007 20.9067 7.94342 23.1867 7.97012 25C8.02352 26.7867 8.09027 28.2667 8.17038 29.44C9.3185 27.8933 10.3598 26.08 11.2943 24C12.2289 21.8933 12.9631 19.6667 13.4971 17.32C14.0579 14.9733 14.3382 12.64 14.3382 10.32C14.3382 8.10667 14.0846 6.41333 13.5772 5.24C13.0699 4.04 12.349 3.44 11.4145 3.44C10.3732 3.44 9.58551 4.05333 9.0515 5.28C8.78449 5.92 8.55754 6.73333 8.37063 7.72C8.21043 8.68 8.09028 9.98667 8.01017 11.64C7.95677 13.2933 7.93007 15.4667 7.93007 18.16Z" fill="#21B6F8"/>
<path d="M13.0225 40C12.6754 40 12.3817 39.84 12.1414 39.52C11.9011 39.2 11.7809 38.8133 11.7809 38.36C11.7809 37.8 11.9144 37.3733 12.1814 37.08C12.4217 36.76 12.7555 36.6 13.1827 36.6C14.4376 36.6 15.7059 36.44 16.9875 36.12C18.2424 35.8 19.5908 35.2267 21.0326 34.4C20.2316 32.64 19.8311 30.6667 19.8311 28.48C19.8311 26.8533 20.1382 25.4133 20.7523 24.16C21.3931 22.88 22.2475 21.8667 23.3155 21.12C24.4103 20.3733 25.6385 20 27.0002 20C28.1484 20 29.1763 20.2667 30.0841 20.8C30.992 21.3333 31.7129 22.0533 32.2469 22.96C32.7809 23.8667 33.0479 24.8933 33.0479 26.04C33.0479 27.7467 32.4471 29.3733 31.2456 30.92C30.0441 32.4667 28.2952 33.92 25.999 35.28C27.0403 36.16 28.4821 36.6 30.3244 36.6C30.6716 36.6 30.9519 36.76 31.1655 37.08C31.4058 37.4 31.526 37.8267 31.526 38.36C31.526 38.8667 31.3925 39.2667 31.1255 39.56C30.8852 39.8533 30.5514 40 30.1242 40C28.629 40 27.2539 39.76 25.999 39.28C24.744 38.7733 23.7161 38.08 22.915 37.2C19.4974 39.0667 16.1998 40 13.0225 40ZM23.2755 28.36C23.2755 30.12 23.5959 31.5333 24.2367 32.6C27.7879 30.5467 29.5635 28.36 29.5635 26.04C29.5635 25.1867 29.3365 24.52 28.8826 24.04C28.4287 23.56 27.8012 23.32 27.0002 23.32C25.9322 23.32 25.0377 23.8 24.3168 24.76C23.6226 25.6933 23.2755 26.8933 23.2755 28.36Z" fill="#21B6F8"/>
<path d="M30.1154 40C29.7416 40 29.4479 39.84 29.2343 39.52C28.994 39.2 28.8739 38.7867 28.8739 38.28C28.8739 37.7467 29.0074 37.3333 29.2744 37.04C29.5414 36.7467 29.8885 36.6 30.3157 36.6C31.9177 36.6 33.3863 36.1733 34.7213 35.32C36.083 34.44 37.2044 33.2533 38.0856 31.76C38.0322 31.36 38.0055 30.9333 38.0055 30.48C38.0055 28.4533 38.406 26.6533 39.207 25.08C40.008 23.5067 41.0894 22.2667 42.4511 21.36C43.8395 20.4533 45.4149 20 47.1771 20C48.1116 20 49.0328 20.1867 49.9406 20.56C50.8484 20.9067 51.6094 21.3867 52.2235 22V20.36C52.4638 20.28 52.7442 20.2133 53.0646 20.16C53.385 20.1067 53.7187 20.08 54.0658 20.08C54.7067 20.08 55.3074 20.1733 55.8681 20.36V32.44C55.8681 33.9067 56.055 34.96 56.4289 35.6C56.8294 36.24 57.4568 36.56 58.3112 36.56C58.6851 36.56 58.9654 36.72 59.1523 37.04C59.3659 37.36 59.4727 37.7867 59.4727 38.32C59.4727 38.7467 59.3526 39.1333 59.1123 39.48C58.8987 39.8267 58.5382 40 58.0309 40C55.4943 40 53.7855 38.96 52.9044 36.88C52.1301 37.8667 51.1955 38.64 50.1008 39.2C49.0061 39.7333 47.7912 40 46.4562 40C44.8542 40 43.439 39.64 42.2108 38.92C41.0093 38.2 40.048 37.2 39.3271 35.92C38.2057 37.2267 36.8573 38.24 35.282 38.96C33.7067 39.6533 31.9845 40 30.1154 40ZM41.7302 30.48C41.7302 32.3733 42.1574 33.8667 43.0118 34.96C43.8929 36.0267 45.0945 36.56 46.6164 36.56C48.2985 36.56 49.6469 35.9867 50.6615 34.84C51.7029 33.6933 52.2235 32.1867 52.2235 30.32V25.84C51.6895 25.12 51.0086 24.5467 50.1809 24.12C49.3532 23.6667 48.4988 23.44 47.6177 23.44C46.4695 23.44 45.4549 23.7467 44.5738 24.36C43.6927 24.9733 42.9985 25.8133 42.4912 26.88C41.9838 27.92 41.7302 29.12 41.7302 30.48Z" fill="#21B6F8"/>
<path d="M58.0162 40C57.6691 40 57.3887 39.84 57.1751 39.52C56.9615 39.2 56.8547 38.7867 56.8547 38.28C56.8547 37.1333 57.3353 36.56 58.2965 36.56C59.151 36.56 59.9119 36.1333 60.5794 35.28C61.2736 34.4 61.8744 32.9467 62.3817 30.92L63.5833 26.24C64.7047 22.08 66.8407 20 69.9914 20C71.1929 20 72.2075 20.36 73.0353 21.08C73.863 21.7733 74.437 22.72 74.7574 23.92C75.5051 22.6667 76.4663 21.7067 77.6411 21.04C78.8159 20.3467 80.1243 20 81.5661 20C83.6487 20 85.2508 20.68 86.3722 22.04C87.5203 23.4 88.0944 25.3067 88.0944 27.76V32.44C88.0944 33.9067 88.2813 34.96 88.6551 35.6C89.0556 36.24 89.6831 36.56 90.5375 36.56C90.9113 36.56 91.1917 36.72 91.3786 37.04C91.5922 37.36 91.699 37.7867 91.699 38.32C91.699 38.7467 91.5788 39.1333 91.3385 39.48C91.1249 39.8267 90.7644 40 90.2571 40C86.3856 40 84.4498 37.6267 84.4498 32.88V27.76C84.4498 24.88 83.315 23.44 81.0454 23.44C79.8706 23.44 78.8293 23.9067 77.9215 24.84C77.0403 25.7733 76.3461 27.0667 75.8388 28.72C75.3582 30.3733 75.1179 32.2933 75.1179 34.48V39.44C74.8509 39.52 74.5572 39.5867 74.2368 39.64C73.9164 39.6933 73.6093 39.72 73.3156 39.72C72.6748 39.72 72.074 39.6267 71.5133 39.44V26.68C71.5133 25.64 71.3798 24.84 71.1128 24.28C70.8458 23.72 70.3652 23.44 69.671 23.44C69.1103 23.44 68.6297 23.6933 68.2292 24.2C67.8287 24.7067 67.4815 25.52 67.1878 26.64L65.7059 32.4C65.0117 35.04 64.0505 36.9733 62.8223 38.2C61.5941 39.4 59.992 40 58.0162 40Z" fill="#21B6F8"/>
<path d="M90.2446 40C89.8975 40 89.6172 39.84 89.4035 39.52C89.1899 39.2 89.0831 38.7867 89.0831 38.28C89.0831 37.7467 89.2166 37.3333 89.4837 37.04C89.724 36.72 90.0577 36.56 90.4849 36.56C91.3393 36.56 92.2605 36.2533 93.2484 35.64C94.2363 35.0267 95.1976 34.1867 96.1321 33.12C95.9185 32.1333 95.7449 30.9733 95.6114 29.64C95.5046 28.3067 95.4245 26.6933 95.3711 24.8C95.3177 22.9067 95.291 20.6267 95.291 17.96H95.3311L95.291 17.92C95.291 15.5467 95.3177 13.5333 95.3711 11.88C95.4245 10.2267 95.5313 8.84 95.6915 7.72C95.8517 6.6 96.052 5.65333 96.2923 4.88C96.5593 4.08 96.8931 3.36 97.2936 2.72C97.881 1.76 98.6019 1.06667 99.4563 0.640001C100.337 0.213334 101.299 0 102.34 0C104.423 0 106.025 0.92 107.146 2.76C108.268 4.6 108.828 7.13333 108.828 10.36C108.828 14.2267 108.067 18.2 106.545 22.28C105.023 26.36 102.847 30.2533 100.017 33.96C100.391 34.84 100.938 35.5067 101.659 35.96C102.38 36.3867 103.208 36.6 104.142 36.6C104.516 36.6 104.81 36.76 105.023 37.08C105.264 37.3733 105.384 37.7867 105.384 38.32C105.384 39.44 104.89 40 103.902 40C102.46 40 101.178 39.6933 100.057 39.08C98.9357 38.4667 98.0679 37.68 97.4538 36.72C95.2376 38.9067 92.8346 40 90.2446 40ZM98.8555 18.16C98.8555 20.96 98.8689 23.2667 98.8956 25.08C98.949 26.8933 99.0158 28.3867 99.0959 29.56C101.125 26.2 102.66 22.92 103.702 19.72C104.743 16.4933 105.264 13.36 105.264 10.32C105.264 8.10667 105.01 6.41333 104.503 5.24C103.995 4.04 103.274 3.44 102.34 3.44C101.299 3.44 100.511 4.05333 99.977 5.28C99.71 5.92 99.483 6.73333 99.2961 7.72C99.1359 8.68 99.0157 9.98667 98.9356 11.64C98.8822 13.2933 98.8555 15.4667 98.8555 18.16Z" fill="#6BBF3C"/>
<path d="M103.958 40C103.611 40 103.317 39.84 103.077 39.52C102.837 39.2 102.717 38.8133 102.717 38.36C102.717 37.8 102.85 37.3733 103.117 37.08C103.358 36.76 103.691 36.6 104.118 36.6C105.373 36.6 106.642 36.44 107.923 36.12C109.178 35.8 110.527 35.2267 111.968 34.4C111.167 32.64 110.767 30.6667 110.767 28.48C110.767 26.8533 111.074 25.4133 111.688 24.16C112.329 22.88 113.183 21.8667 114.251 21.12C115.346 20.3733 116.574 20 117.936 20C119.084 20 120.112 20.2667 121.02 20.8C121.928 21.3333 122.649 22.0533 123.183 22.96C123.717 23.8667 123.984 24.8933 123.984 26.04C123.984 27.7467 123.383 29.3733 122.181 30.92C120.98 32.4667 119.231 33.92 116.935 35.28C117.976 36.16 119.418 36.6 121.26 36.6C121.607 36.6 121.888 36.76 122.101 37.08C122.342 37.4 122.462 37.8267 122.462 38.36C122.462 38.8667 122.328 39.2667 122.061 39.56C121.821 39.8533 121.487 40 121.06 40C119.565 40 118.19 39.76 116.935 39.28C115.68 38.7733 114.652 38.08 113.851 37.2C110.433 39.0667 107.136 40 103.958 40ZM114.211 28.36C114.211 30.12 114.532 31.5333 115.173 32.6C118.724 30.5467 120.499 28.36 120.499 26.04C120.499 25.1867 120.272 24.52 119.818 24.04C119.365 23.56 118.737 23.32 117.936 23.32C116.868 23.32 115.974 23.8 115.253 24.76C114.558 25.6933 114.211 26.8933 114.211 28.36Z" fill="#6BBF3C"/>
<path d="M121.051 40C120.677 40 120.384 39.84 120.17 39.52C119.93 39.2 119.81 38.7867 119.81 38.28C119.81 37.7467 119.943 37.3333 120.21 37.04C120.477 36.7467 120.824 36.6 121.251 36.6C122.854 36.6 124.322 36.1733 125.657 35.32C127.019 34.44 128.14 33.2533 129.021 31.76C128.968 31.36 128.941 30.9333 128.941 30.48C128.941 28.4533 129.342 26.6533 130.143 25.08C130.944 23.5067 132.025 22.2667 133.387 21.36C134.775 20.4533 136.351 20 138.113 20C139.047 20 139.969 20.1867 140.876 20.56C141.784 20.9067 142.545 21.3867 143.159 22V20.36C143.4 20.28 143.68 20.2133 144 20.16C144.321 20.1067 144.655 20.08 145.002 20.08C145.642 20.08 146.243 20.1733 146.804 20.36V32.44C146.804 33.9067 146.991 34.96 147.365 35.6C147.765 36.24 148.393 36.56 149.247 36.56C149.621 36.56 149.901 36.72 150.088 37.04C150.302 37.36 150.409 37.7867 150.409 38.32C150.409 38.7467 150.288 39.1333 150.048 39.48C149.834 39.8267 149.474 40 148.967 40C146.43 40 144.721 38.96 143.84 36.88C143.066 37.8667 142.131 38.64 141.037 39.2C139.942 39.7333 138.727 40 137.392 40C135.79 40 134.375 39.64 133.147 38.92C131.945 38.2 130.984 37.2 130.263 35.92C129.142 37.2267 127.793 38.24 126.218 38.96C124.642 39.6533 122.92 40 121.051 40ZM132.666 30.48C132.666 32.3733 133.093 33.8667 133.948 34.96C134.829 36.0267 136.03 36.56 137.552 36.56C139.234 36.56 140.583 35.9867 141.597 34.84C142.639 33.6933 143.159 32.1867 143.159 30.32V25.84C142.625 25.12 141.944 24.5467 141.117 24.12C140.289 23.6667 139.435 23.44 138.553 23.44C137.405 23.44 136.391 23.7467 135.51 24.36C134.628 24.9733 133.934 25.8133 133.427 26.88C132.92 27.92 132.666 29.12 132.666 30.48Z" fill="#6BBF3C"/>
<path d="M148.952 40C148.605 40 148.325 39.84 148.111 39.52C147.897 39.2 147.79 38.7867 147.79 38.28C147.79 37.1333 148.271 36.56 149.232 36.56C150.407 36.56 151.448 36.08 152.356 35.12C153.291 34.1333 154.025 32.8 154.559 31.12C155.12 29.44 155.4 27.5733 155.4 25.52C155.4 25.04 155.373 24.6 155.32 24.2C155.267 23.8 155.2 23.4667 155.12 23.2C154.88 22.96 154.613 22.5733 154.319 22.04C154.052 21.5067 153.811 20.9467 153.598 20.36C153.411 19.7467 153.318 19.2533 153.318 18.88C153.638 18.3733 154.145 17.9867 154.839 17.72C155.56 17.4267 156.348 17.3467 157.202 17.48C157.71 18.4133 158.124 19.5867 158.444 21C159.245 20.9733 160.326 20.8 161.688 20.48C162.543 20.2933 163.223 20.1733 163.731 20.12C164.265 20.04 164.719 20 165.092 20C166.534 20 167.669 20.5467 168.497 21.64C169.325 22.7067 169.738 24.16 169.738 26V32.44C169.738 33.9067 169.925 34.96 170.299 35.6C170.7 36.24 171.327 36.56 172.181 36.56C172.555 36.56 172.836 36.72 173.023 37.04C173.236 37.36 173.343 37.7867 173.343 38.32C173.343 38.7467 173.223 39.1333 172.982 39.48C172.769 39.8267 172.408 40 171.901 40C168.03 40 166.094 37.6267 166.094 32.88V26.68C166.094 25.48 165.96 24.64 165.693 24.16C165.426 23.68 164.946 23.44 164.251 23.44C164.011 23.44 163.744 23.4667 163.45 23.52C163.157 23.5733 162.636 23.68 161.888 23.84C160.58 24.1067 159.592 24.2667 158.925 24.32C158.951 24.7467 158.965 25.1733 158.965 25.6C158.965 28.48 158.551 31 157.723 33.16C156.895 35.32 155.721 37 154.199 38.2C152.703 39.4 150.955 40 148.952 40Z" fill="#6BBF3C"/>
<path d="M171.911 40C171.564 40 171.283 39.84 171.07 39.52C170.856 39.2 170.749 38.7867 170.749 38.28C170.749 37.1333 171.23 36.56 172.191 36.56C173.046 36.56 173.807 36.1333 174.474 35.28C175.168 34.4 175.769 32.9467 176.276 30.92L177.478 26.24C178.599 22.08 180.735 20 183.886 20C185.088 20 186.102 20.36 186.93 21.08C187.758 21.7733 188.332 22.72 188.652 23.92C189.4 22.6667 190.361 21.7067 191.536 21.04C192.711 20.3467 194.019 20 195.461 20C197.543 20 199.145 20.68 200.267 22.04C201.415 23.4 201.989 25.3067 201.989 27.76V32.44C201.989 33.9067 202.176 34.96 202.55 35.6C202.95 36.24 203.578 36.56 204.432 36.56C204.726 36.56 205.046 36.4933 205.393 36.36C205.74 36.2267 206.101 36.0267 206.475 35.76C206.929 35.9733 207.302 36.3467 207.596 36.88C207.89 37.3867 208.023 37.8933 207.997 38.4C207.569 38.88 207.022 39.2667 206.355 39.56C205.687 39.8533 204.966 40 204.192 40H204.152C200.28 40 198.344 37.6267 198.344 32.88V27.76C198.344 24.88 197.21 23.44 194.94 23.44C193.765 23.44 192.724 23.9067 191.816 24.84C190.935 25.7733 190.241 27.0667 189.733 28.72C189.253 30.3733 189.013 32.2933 189.013 34.48V39.44C188.746 39.52 188.452 39.5867 188.131 39.64C187.811 39.6933 187.504 39.72 187.21 39.72C186.569 39.72 185.969 39.6267 185.408 39.44V26.68C185.408 25.64 185.274 24.84 185.007 24.28C184.74 23.72 184.26 23.44 183.566 23.44C183.005 23.44 182.524 23.6933 182.124 24.2C181.723 24.7067 181.376 25.52 181.082 26.64L179.601 32.4C178.906 35.04 177.945 36.9733 176.717 38.2C175.489 39.4 173.887 40 171.911 40Z" fill="#6BBF3C"/>
</svg>
