<svg width="117" height="19" viewBox="0 0 117 19" fill="none" xmlns="http://www.w3.org/2000/svg">
<path d="M0.318182 18V0.545454H1.91193V16.5682H10.2301V18H0.318182ZM18.7955 18.2727C17.5739 18.2727 16.517 17.9886 15.625 17.4205C14.733 16.8466 14.0426 16.054 13.554 15.0426C13.071 14.0256 12.8295 12.8551 12.8295 11.5312C12.8295 10.2131 13.071 9.04261 13.554 8.01989C14.0426 6.99148 14.7159 6.1875 15.5739 5.60795C16.4375 5.02273 17.4347 4.73011 18.5653 4.73011C19.2756 4.73011 19.9602 4.8608 20.6193 5.12216C21.2784 5.37784 21.8693 5.77273 22.392 6.30682C22.9205 6.83523 23.3381 7.50284 23.6449 8.30966C23.9517 9.1108 24.1051 10.0597 24.1051 11.1562V11.9062H13.8778V10.5682H22.554C22.554 9.72727 22.3835 8.97159 22.0426 8.30114C21.7074 7.625 21.2386 7.09091 20.6364 6.69886C20.0398 6.30682 19.3494 6.1108 18.5653 6.1108C17.7358 6.1108 17.0057 6.33239 16.375 6.77557C15.7443 7.21875 15.25 7.80398 14.892 8.53125C14.5398 9.25852 14.3608 10.054 14.3551 10.9176V11.7188C14.3551 12.7585 14.5341 13.6676 14.892 14.446C15.2557 15.2187 15.7699 15.8182 16.4347 16.2443C17.0994 16.6705 17.8864 16.8835 18.7955 16.8835C19.4148 16.8835 19.9574 16.7869 20.4233 16.5938C20.8949 16.4006 21.2898 16.142 21.608 15.8182C21.9318 15.4886 22.1761 15.1278 22.3409 14.7358L23.7812 15.2045C23.5824 15.7557 23.2557 16.2642 22.8011 16.7301C22.3523 17.196 21.7898 17.571 21.1136 17.8551C20.4432 18.1335 19.6705 18.2727 18.7955 18.2727ZM31.1044 18.2983C30.3146 18.2983 29.593 18.1449 28.9396 17.8381C28.2862 17.5256 27.7663 17.0767 27.38 16.4915C26.9936 15.9006 26.8004 15.1847 26.8004 14.3438C26.8004 13.696 26.9226 13.1506 27.1669 12.7074C27.4112 12.2642 27.7578 11.9006 28.2067 11.6165C28.6555 11.3324 29.1868 11.108 29.8004 10.9432C30.4141 10.7784 31.0902 10.6506 31.8288 10.5597C32.5618 10.4687 33.1811 10.3892 33.6868 10.321C34.1982 10.2528 34.5874 10.1449 34.8544 9.99716C35.1214 9.84943 35.255 9.6108 35.255 9.28125V8.97443C35.255 8.08239 34.9879 7.38068 34.4538 6.86932C33.9254 6.35227 33.1641 6.09375 32.1697 6.09375C31.2266 6.09375 30.4567 6.30114 29.8601 6.71591C29.2692 7.13068 28.8544 7.61932 28.6158 8.18182L27.1754 7.66193C27.4709 6.94602 27.88 6.375 28.4027 5.94886C28.9254 5.51705 29.5107 5.20739 30.1584 5.01989C30.8061 4.8267 31.4624 4.73011 32.1271 4.73011C32.6271 4.73011 33.147 4.79545 33.6868 4.92614C34.2322 5.05682 34.7379 5.28409 35.2038 5.60795C35.6697 5.92614 36.0476 6.37216 36.3374 6.94602C36.6271 7.5142 36.772 8.2358 36.772 9.1108V18H35.255V15.929H35.1612C34.9794 16.3153 34.7095 16.6903 34.3516 17.054C33.9936 17.4176 33.5447 17.7159 33.005 17.9489C32.4652 18.1818 31.8317 18.2983 31.1044 18.2983ZM31.3089 16.9091C32.1158 16.9091 32.8146 16.7301 33.4055 16.3722C33.9964 16.0142 34.451 15.5398 34.7692 14.9489C35.093 14.3523 35.255 13.696 35.255 12.9801V11.0881C35.1413 11.196 34.951 11.2926 34.6839 11.3778C34.4226 11.4631 34.1186 11.5398 33.772 11.608C33.4311 11.6705 33.0902 11.7244 32.7493 11.7699C32.4084 11.8153 32.1016 11.8551 31.8288 11.8892C31.0902 11.9801 30.4595 12.1222 29.9368 12.3153C29.4141 12.5085 29.0135 12.7756 28.7351 13.1165C28.4567 13.4517 28.3175 13.8835 28.3175 14.4119C28.3175 15.2074 28.6016 15.8239 29.1697 16.2614C29.7379 16.6932 30.451 16.9091 31.3089 16.9091ZM42.3246 9.81818V18H40.8075V4.90909H42.282V6.96307H42.4183C42.7251 6.29261 43.2024 5.75568 43.8501 5.35227C44.5036 4.94318 45.3104 4.73864 46.2706 4.73864C47.1513 4.73864 47.924 4.9233 48.5888 5.29261C49.2592 5.65625 49.7791 6.19318 50.1484 6.90341C50.5234 7.61364 50.7109 8.4858 50.7109 9.51989V18H49.1939V9.61364C49.1939 8.53977 48.8928 7.69034 48.2905 7.06534C47.6939 6.44034 46.8928 6.12784 45.8871 6.12784C45.1996 6.12784 44.5888 6.27557 44.0547 6.57102C43.5206 6.86648 43.0973 7.29261 42.7848 7.84943C42.478 8.40057 42.3246 9.05682 42.3246 9.81818ZM54.4247 18V0.545454H57.5866V15.3494H65.2741V18H54.4247ZM73.6776 18.2557C72.3651 18.2557 71.2315 17.983 70.277 17.4375C69.3281 16.8864 68.598 16.108 68.0866 15.1023C67.5753 14.0909 67.3196 12.9006 67.3196 11.5312C67.3196 10.1847 67.5753 9.00284 68.0866 7.9858C68.6037 6.96307 69.3253 6.16761 70.2514 5.59943C71.1776 5.02557 72.2656 4.73864 73.5156 4.73864C74.3224 4.73864 75.0838 4.86932 75.7997 5.13068C76.5213 5.38636 77.1577 5.78409 77.7088 6.32386C78.2656 6.86364 78.7031 7.55114 79.0213 8.38636C79.3395 9.21591 79.4986 10.2045 79.4986 11.3523V12.2983H68.7685V10.2188H76.5412C76.5355 9.62784 76.4077 9.10227 76.1577 8.64205C75.9077 8.17614 75.5582 7.80966 75.1094 7.54261C74.6662 7.27557 74.1491 7.14205 73.5582 7.14205C72.9276 7.14205 72.3736 7.29545 71.8963 7.60227C71.419 7.90341 71.0469 8.30114 70.7798 8.79545C70.5185 9.28409 70.3849 9.82102 70.3793 10.4062V12.2216C70.3793 12.983 70.5185 13.6364 70.7969 14.1818C71.0753 14.7216 71.4645 15.1364 71.9645 15.4261C72.4645 15.7102 73.0497 15.8523 73.7202 15.8523C74.169 15.8523 74.5753 15.7898 74.9389 15.6648C75.3026 15.5341 75.6179 15.3438 75.8849 15.0938C76.152 14.8438 76.3537 14.5341 76.4901 14.1648L79.3707 14.4886C79.1889 15.25 78.8423 15.9148 78.331 16.483C77.8253 17.0455 77.1776 17.483 76.3878 17.7955C75.598 18.1023 74.6946 18.2557 73.6776 18.2557ZM85.8757 18.2642C85.0462 18.2642 84.299 18.1165 83.6342 17.821C82.9751 17.5199 82.4524 17.0767 82.0661 16.4915C81.6854 15.9062 81.495 15.1847 81.495 14.3267C81.495 13.5881 81.6314 12.9773 81.9041 12.4943C82.1768 12.0114 82.549 11.625 83.0206 11.3352C83.4922 11.0455 84.0234 10.8267 84.6143 10.679C85.2109 10.5256 85.8274 10.4148 86.4638 10.3466C87.2308 10.267 87.853 10.196 88.3303 10.1335C88.8075 10.0653 89.1541 9.96307 89.37 9.8267C89.5916 9.68466 89.7024 9.46591 89.7024 9.17045V9.11932C89.7024 8.47727 89.5121 7.98011 89.1314 7.62784C88.7507 7.27557 88.2024 7.09943 87.4865 7.09943C86.7308 7.09943 86.1314 7.2642 85.6882 7.59375C85.2507 7.9233 84.9553 8.3125 84.8018 8.76136L81.9212 8.35227C82.1484 7.55682 82.5234 6.89205 83.0462 6.35795C83.5689 5.81818 84.2081 5.41477 84.9638 5.14773C85.7195 4.875 86.5547 4.73864 87.4695 4.73864C88.1001 4.73864 88.728 4.8125 89.353 4.96023C89.978 5.10795 90.549 5.35227 91.0661 5.69318C91.5831 6.02841 91.9979 6.4858 92.3104 7.06534C92.6286 7.64489 92.7876 8.36932 92.7876 9.23864V18H89.8217V16.2017H89.7195C89.532 16.5653 89.2678 16.9062 88.9268 17.2244C88.5916 17.5369 88.1683 17.7898 87.657 17.983C87.1513 18.1705 86.5575 18.2642 85.8757 18.2642ZM86.6768 15.9972C87.2962 15.9972 87.8331 15.875 88.2876 15.6307C88.7422 15.3807 89.0916 15.0511 89.3359 14.642C89.5859 14.233 89.7109 13.7869 89.7109 13.304V11.7614C89.6143 11.8409 89.4496 11.9148 89.2166 11.983C88.9893 12.0511 88.7337 12.1108 88.4496 12.1619C88.1655 12.2131 87.8842 12.2585 87.6058 12.2983C87.3274 12.3381 87.0859 12.3722 86.8814 12.4006C86.4212 12.4631 86.0092 12.5653 85.6456 12.7074C85.282 12.8494 84.995 13.0483 84.7848 13.304C84.5746 13.554 84.4695 13.8778 84.4695 14.2756C84.4695 14.8438 84.6768 15.2727 85.0916 15.5625C85.5064 15.8523 86.0348 15.9972 86.6768 15.9972ZM95.8899 18V4.90909H98.8814V7.09091H99.0178C99.2564 6.33523 99.6655 5.75284 100.245 5.34375C100.83 4.92898 101.498 4.72159 102.248 4.72159C102.418 4.72159 102.609 4.73011 102.819 4.74716C103.035 4.75852 103.214 4.77841 103.356 4.80682V7.64489C103.225 7.59943 103.018 7.55966 102.734 7.52557C102.455 7.4858 102.185 7.46591 101.924 7.46591C101.362 7.46591 100.856 7.58807 100.407 7.83239C99.9638 8.07102 99.6143 8.40341 99.3587 8.82955C99.103 9.25568 98.9751 9.74716 98.9751 10.304V18H95.8899ZM108.491 10.3295V18H105.406V4.90909H108.354V7.13352H108.508C108.809 6.40057 109.289 5.81818 109.948 5.38636C110.613 4.95455 111.434 4.73864 112.411 4.73864C113.315 4.73864 114.102 4.93182 114.772 5.31818C115.448 5.70455 115.971 6.2642 116.34 6.99716C116.715 7.73011 116.9 8.61932 116.894 9.66477V18H113.809V10.142C113.809 9.26705 113.582 8.58239 113.127 8.08807C112.678 7.59375 112.056 7.34659 111.261 7.34659C110.721 7.34659 110.241 7.46591 109.82 7.70455C109.406 7.9375 109.079 8.27557 108.84 8.71875C108.607 9.16193 108.491 9.69886 108.491 10.3295Z" fill="white"/>
</svg>
