<svg xmlns="http://www.w3.org/2000/svg" xmlns:xlink="http://www.w3.org/1999/xlink" width="500" zoomAndPan="magnify" viewBox="0 0 375 374.999991" height="500" preserveAspectRatio="xMidYMid meet" version="1.0"><defs><filter x="0%" y="0%" width="100%" height="100%" id="6c0e882c4d"><feColorMatrix values="0 0 0 0 1 0 0 0 0 1 0 0 0 0 1 0 0 0 1 0" color-interpolation-filters="sRGB"/></filter><clipPath id="6dbb60ac80"><path d="M 28.996094 37 L 346 37 L 346 354.332031 L 28.996094 354.332031 Z M 28.996094 37 " clip-rule="nonzero"/></clipPath><mask id="bb4a1bcdf8"><g filter="url(#6c0e882c4d)"><rect x="-37.5" width="450" fill="#000000" y="-37.499999" height="449.999989" fill-opacity="0.278"/></g></mask><clipPath id="bc9b5b3105"><path d="M 1 0.238281 L 105 0.238281 L 105 33 L 1 33 Z M 1 0.238281 " clip-rule="nonzero"/></clipPath><clipPath id="f18e6608b8"><rect x="0" width="106" y="0" height="34"/></clipPath><clipPath id="064d265bac"><path d="M 126 20.582031 L 231 20.582031 L 231 53 L 126 53 Z M 126 20.582031 " clip-rule="nonzero"/></clipPath></defs><g clip-path="url(#6dbb60ac80)"><path fill="#ffffff" d="M 28.996094 37.300781 L 28.996094 354.304688 C 134.664062 354.304688 240.332031 354.304688 346 354.304688 L 346 37.300781 L 28.996094 37.300781 " fill-opacity="1" fill-rule="nonzero"/></g><path fill="#b1d8b7" d="M 54.921875 78.71875 L 54.921875 94.199219 L 51.839844 94.199219 L 51.839844 78.71875 Z M 54.921875 95.746094 L 54.921875 111.230469 L 51.839844 111.230469 L 51.839844 95.746094 Z M 54.921875 112.777344 L 54.921875 128.261719 L 51.839844 128.261719 L 51.839844 112.777344 Z M 54.921875 129.808594 L 54.921875 145.292969 L 51.839844 145.292969 L 51.839844 129.808594 Z M 54.921875 146.839844 L 54.921875 162.320312 L 51.839844 162.320312 L 51.839844 146.839844 Z M 54.921875 163.871094 L 54.921875 179.351562 L 51.839844 179.351562 L 51.839844 163.871094 Z M 54.921875 180.902344 L 54.921875 196.382812 L 51.839844 196.382812 L 51.839844 180.902344 Z M 54.921875 197.933594 L 54.921875 213.414062 L 51.839844 213.414062 L 51.839844 197.933594 Z M 54.921875 214.960938 L 54.921875 230.445312 L 51.839844 230.445312 L 51.839844 214.960938 Z M 54.921875 231.992188 L 54.921875 247.476562 L 51.839844 247.476562 L 51.839844 231.992188 Z M 54.921875 249.023438 L 54.921875 264.507812 L 51.839844 264.507812 L 51.839844 249.023438 Z M 54.921875 266.054688 L 54.921875 281.539062 L 51.839844 281.539062 L 51.839844 266.054688 Z M 54.921875 283.085938 L 54.921875 298.566406 L 51.839844 298.566406 L 51.839844 283.085938 Z M 54.921875 300.117188 L 54.921875 315.597656 L 51.839844 315.597656 L 51.839844 300.117188 Z M 54.921875 317.148438 L 54.921875 329.921875 L 53.382812 328.378906 L 56.089844 328.378906 L 56.089844 331.460938 L 53.382812 331.460938 C 52.53125 331.460938 51.839844 330.773438 51.839844 329.921875 L 51.839844 317.148438 Z M 57.640625 328.378906 L 73.121094 328.378906 L 73.121094 331.460938 L 57.640625 331.460938 Z M 74.671875 328.378906 L 90.152344 328.378906 L 90.152344 331.460938 L 74.671875 331.460938 Z M 91.699219 328.378906 L 107.183594 328.378906 L 107.183594 331.460938 L 91.699219 331.460938 Z M 108.730469 328.378906 L 124.214844 328.378906 L 124.214844 331.460938 L 108.730469 331.460938 Z M 125.761719 328.378906 L 141.246094 328.378906 L 141.246094 331.460938 L 125.761719 331.460938 Z M 142.792969 328.378906 L 158.277344 328.378906 L 158.277344 331.460938 L 142.792969 331.460938 Z M 159.824219 328.378906 L 175.304688 328.378906 L 175.304688 331.460938 L 159.824219 331.460938 Z M 176.855469 328.378906 L 192.335938 328.378906 L 192.335938 331.460938 L 176.855469 331.460938 Z M 193.886719 328.378906 L 209.367188 328.378906 L 209.367188 331.460938 L 193.886719 331.460938 Z M 210.914062 328.378906 L 226.398438 328.378906 L 226.398438 331.460938 L 210.914062 331.460938 Z M 227.945312 328.378906 L 243.429688 328.378906 L 243.429688 331.460938 L 227.945312 331.460938 Z M 244.976562 328.378906 L 260.460938 328.378906 L 260.460938 331.460938 L 244.976562 331.460938 Z M 262.007812 328.378906 L 277.492188 328.378906 L 277.492188 331.460938 L 262.007812 331.460938 Z M 279.039062 328.378906 L 294.519531 328.378906 L 294.519531 331.460938 L 279.039062 331.460938 Z M 296.070312 328.378906 L 311.550781 328.378906 L 311.550781 331.460938 L 296.070312 331.460938 Z M 313.101562 328.378906 L 321.617188 328.378906 L 320.074219 329.921875 L 320.074219 322.953125 L 323.15625 322.953125 L 323.15625 329.921875 C 323.15625 330.328125 322.996094 330.722656 322.707031 331.011719 C 322.417969 331.300781 322.023438 331.460938 321.617188 331.460938 L 313.101562 331.460938 Z M 320.074219 321.40625 L 320.074219 305.921875 L 323.15625 305.921875 L 323.15625 321.40625 Z M 320.074219 304.375 L 320.074219 288.890625 L 323.15625 288.890625 L 323.15625 304.375 Z M 320.074219 287.34375 L 320.074219 271.859375 L 323.15625 271.859375 L 323.15625 287.34375 Z M 320.074219 270.3125 L 320.074219 254.828125 L 323.15625 254.828125 L 323.15625 270.3125 Z M 320.074219 253.28125 L 320.074219 237.800781 L 323.15625 237.800781 L 323.15625 253.28125 Z M 320.074219 236.25 L 320.074219 220.769531 L 323.15625 220.769531 L 323.15625 236.25 Z M 320.074219 219.21875 L 320.074219 203.738281 L 323.15625 203.738281 L 323.15625 219.21875 Z M 320.074219 202.191406 L 320.074219 186.707031 L 323.15625 186.707031 L 323.15625 202.191406 Z M 320.074219 185.160156 L 320.074219 169.675781 L 323.15625 169.675781 L 323.15625 185.160156 Z M 320.074219 168.128906 L 320.074219 152.644531 L 323.15625 152.644531 L 323.15625 168.128906 Z M 320.074219 151.097656 L 320.074219 135.613281 L 323.15625 135.613281 L 323.15625 151.097656 Z M 320.074219 134.066406 L 320.074219 118.585938 L 323.15625 118.585938 L 323.15625 134.066406 Z M 320.074219 117.035156 L 320.074219 101.554688 L 323.15625 101.554688 L 323.15625 117.035156 Z M 320.074219 100.003906 L 320.074219 84.523438 L 323.15625 84.523438 L 323.15625 100.003906 Z M 320.074219 82.976562 L 320.074219 67.492188 L 323.15625 67.492188 L 323.15625 82.976562 Z M 320.074219 65.945312 L 320.074219 61.6875 L 321.617188 63.226562 L 310.390625 63.226562 L 310.390625 60.144531 L 321.617188 60.144531 C 322.46875 60.144531 323.15625 60.835938 323.15625 61.6875 L 323.15625 65.945312 Z M 308.84375 63.226562 L 293.359375 63.226562 L 293.359375 60.144531 L 308.84375 60.144531 Z M 291.8125 63.226562 L 276.328125 63.226562 L 276.328125 60.144531 L 291.8125 60.144531 Z M 274.78125 63.226562 L 259.296875 63.226562 L 259.296875 60.144531 L 274.78125 60.144531 Z M 257.75 63.226562 L 242.269531 63.226562 L 242.269531 60.144531 L 257.75 60.144531 Z M 240.71875 63.226562 L 225.238281 63.226562 L 225.238281 60.144531 L 240.71875 60.144531 Z M 223.6875 63.226562 L 208.207031 63.226562 L 208.207031 60.144531 L 223.6875 60.144531 Z M 206.65625 63.226562 L 191.175781 63.226562 L 191.175781 60.144531 L 206.65625 60.144531 Z M 189.628906 63.226562 L 174.144531 63.226562 L 174.144531 60.144531 L 189.628906 60.144531 Z M 172.597656 63.226562 L 157.113281 63.226562 L 157.113281 60.144531 L 172.597656 60.144531 Z M 155.566406 63.226562 L 140.082031 63.226562 L 140.082031 60.144531 L 155.566406 60.144531 Z M 138.535156 63.226562 L 123.050781 63.226562 L 123.050781 60.144531 L 138.535156 60.144531 Z M 121.503906 63.226562 L 106.023438 63.226562 L 106.023438 60.144531 L 121.503906 60.144531 Z M 104.472656 63.226562 L 88.992188 63.226562 L 88.992188 60.144531 L 104.472656 60.144531 Z M 87.441406 63.226562 L 71.960938 63.226562 L 71.960938 60.144531 L 87.441406 60.144531 Z M 70.414062 63.226562 L 54.929688 63.226562 L 54.929688 60.144531 L 70.414062 60.144531 Z M 54.921875 61.6875 L 54.921875 77.167969 L 51.839844 77.167969 L 51.839844 61.6875 Z M 54.921875 61.6875 " fill-opacity="1" fill-rule="nonzero"/><g mask="url(#bb4a1bcdf8)"><g transform="matrix(1, 0, 0, 1, 125, 24)"><g clip-path="url(#f18e6608b8)"><g clip-path="url(#bc9b5b3105)"><path fill="#000000" d="M 103.464844 0.457031 L 1.046875 2.929688 L 1.054688 3.339844 L 6.464844 5.847656 C 6.96875 6.105469 7.238281 6.335938 7.28125 6.542969 C 7.257812 6.769531 6.992188 7.078125 6.484375 7.460938 L 1.1875 10.746094 L 1.246094 13.839844 L 5.011719 14.492188 C 5.238281 14.578125 5.371094 14.714844 5.40625 14.910156 C 4.921875 16.53125 3.570312 18.1875 1.351562 19.875 L 1.441406 24.542969 L 5.53125 25.113281 L 5.597656 25.5 C 5.464844 26.789062 4.117188 28.632812 1.554688 31.035156 L 1.585938 32.414062 C 27.933594 28.488281 54.5 28.101562 54.5 28.101562 C 79.554688 27.738281 104.914062 30.910156 104.914062 30.910156 L 104.863281 29.867188 C 102.945312 29.492188 102.046875 29.078125 102.171875 28.632812 C 102.085938 28.335938 102.925781 27.554688 104.695312 26.289062 L 104.480469 21.769531 C 102.398438 21.949219 101.277344 21.851562 101.117188 21.480469 C 101.320312 21.167969 102.398438 20.363281 104.351562 19.074219 L 104.132812 14.457031 L 100.050781 15.082031 C 99.054688 15.113281 98.550781 15.023438 98.542969 14.808594 L 103.953125 10.722656 L 103.695312 5.265625 L 101.375 5.578125 L 100.867188 5.546875 C 99.585938 5.453125 98.949219 5.253906 98.957031 4.949219 C 99.714844 3.910156 101.21875 2.476562 103.472656 0.65625 Z M 103.464844 0.457031 " fill-opacity="1" fill-rule="nonzero"/></g></g></g></g><g clip-path="url(#064d265bac)"><path fill="#b1d8b7" d="M 229.027344 20.707031 L 126.609375 23.179688 L 126.617188 23.589844 L 132.027344 26.101562 C 132.53125 26.355469 132.800781 26.585938 132.84375 26.792969 C 132.820312 27.023438 132.554688 27.328125 132.046875 27.710938 L 126.75 31 L 126.808594 34.09375 L 130.574219 34.746094 C 130.800781 34.828125 130.933594 34.96875 130.96875 35.160156 C 130.484375 36.78125 129.132812 38.4375 126.914062 40.125 L 127.003906 44.796875 L 131.09375 45.363281 L 131.160156 45.75 C 131.027344 47.039062 129.679688 48.882812 127.117188 51.289062 L 127.148438 52.664062 L 230.476562 51.160156 L 230.425781 50.117188 C 228.507812 49.742188 227.609375 49.328125 227.734375 48.882812 C 227.648438 48.585938 228.488281 47.804688 230.257812 46.542969 L 230.042969 42.019531 C 227.960938 42.199219 226.839844 42.105469 226.679688 41.730469 C 226.882812 41.417969 227.960938 40.617188 229.914062 39.324219 L 229.691406 34.707031 L 225.613281 35.332031 C 224.617188 35.367188 224.113281 35.273438 224.105469 35.0625 L 229.515625 30.976562 L 229.253906 25.519531 L 226.9375 25.828125 L 226.429688 25.800781 C 225.148438 25.707031 224.511719 25.507812 224.519531 25.199219 C 225.277344 24.160156 226.78125 22.730469 229.035156 20.90625 Z M 229.027344 20.707031 " fill-opacity="1" fill-rule="nonzero"/></g></svg>