<svg version="1.2" xmlns="http://www.w3.org/2000/svg" viewBox="0 0 2500 2500" width="2500" height="2500">
	<title>image-from-rawpixel-id-16946208-original</title>
	<defs>
		<clipPath clipPathUnits="userSpaceOnUse" id="cp1">
			<path d="m0 0h2500v2500h-2500z"/>
		</clipPath>
	</defs>
	<style>
		.s0 { fill: #ffffff } 
	</style>
	<g id="Page 1" clip-path="url(#cp1)">
		<path id="Path 1" class="s0" d="m1055.7 722c0.4 0.2 1 0 1.1-0.5 4.5-22.4 10.4-44 19.3-64.6q2.2-5 3.7-11.5c5.7-24.6 15.1-44.2 35.4-59.5 8.2-6.2 11.8-8.6 18.3-15.3q3.5-3.6 8.8-8.6c0.9-0.8 1.4-2 1.5-3.2q1-18.6 2.3-39.8c0.6-9.1 7.6-10.8 15.1-11.2q14.1-0.8 28.1-0.3c0.6 0 1.1-0.4 1.1-1-0.1-13.8 0.5-21.3-0.8-31.5-0.2-1.5-1.4-2.6-2.9-2.8l-22.2-2.9q-0.6-0.1-1 0.3c-5.7 4.1-12.6 7.7-18.6 1.7q-4.8-4.7-8-8.3-1.1-1.3-3.6-2.1-1.5-0.5-17.7-5.2c-17.4-5.1-34.2-15.8-48.2-27.7-0.7-0.6-1.6-0.9-2.6-0.8-6.2 0.3-10.5-2.1-15.7-6.3-3.3-2.7-4.9-0.7-8-1.9q-9.3-3.5-10.4-13.6c-0.8-8.2 0-16.5-1.4-25.8q-0.6-4.2-2.8-11.2c-4.9-15.6-9.4-31.1-7.1-47.8 2.5-18 12.6-38.4 27.7-49q0.2-0.2 0.1-0.4 0-0.2-0.1-0.3-0.2-0.2-0.4-0.1c-3.8 0.8-9.3 3.5-14.2 4.4-8.2 1.5-12.3-4.9-9.4-12.2 4.6-11.4 18.1-14.4 29.2-12.2q2.4 0.5 4.6 1c0.9 0.2 1.6-0.7 1.2-1.4q-8.3-16.5-1.8-33.3c4.7-11.8 13.6-18.7 23.2-27.6 5.9-5.3 9.4-12.3 13.3-17.3 2.1-2.7 5.9-4.1 9.3-2.8q6.6 2.4 8.1 9.4c0.1 0.6 0.7 0.8 1.1 0.4q10.6-10.2 25.2-18.3c15-8.3 32.1-11.8 49.4-12.6q19.6-0.9 28.4-1.7 14.3-1.3 25.5-6.2c5.4-2.4 12.2-7.3 16.9-10.3q5.7-3.7 10.4-1.2c6.1 3.5 7.2 11.4 4.1 17.6-0.3 0.5 0.1 1.2 0.7 1.2 21.8 1.3 41.6 10.1 56.3 26.1 12.2 13.3 17.3 26.8 25.3 44.1q3.9 8.7 14.1 16c2.8 2 10 4.4 9.9 10.5q0 6.7-6.3 9.8c-0.7 0.3-1 1.2-0.6 1.9 6 9.7 7.3 20.5 2.8 31.1-1.2 2.8-3.5 5.1-6 8q-0.3 0.4-0.4 0.9-0.2 1.5-0.7 4.6c-0.6 3.9-2.3 7.7-3 10.9q-0.6 2.7 1.1 8.1c2 6.9 5.2 16.4 8.5 24.3q1.3 3 4.2 10.4c19 49.6-11.6 101.3-58.4 118.9-6.2 2.3-13.8 4.1-19.8 5.8-0.7 0.2-1.2 0.8-1.2 1.6l-1.1 36.6c-0.1 1.2 0.7 2.2 1.8 2.6q15.4 4.7 31.9 11.2c4.7 1.8 7.3 3.4 7.7 8.7q0.7 9.3 1.6 29c0 0.9 0.7 1.8 1.7 2q24.2 4.7 43.1 19.7c10.6 8.4 15.7 19.8 19.3 32.6 0.9 3.2 2.3 5.6 4.8 8.2q13.6 13.8 22.2 25.3c16.9 22.5 28 49 36.7 76.2q6.7 21.1 22.9 68.2 25.3 73.4 57.7 162.4c4.3 11.7 11.8 31.5 20.3 53q8.5 21.6 12.5 43.5 3.6 19.8-0.8 40.8-1 5.2-4.3 14.6c-3.6 10.8-5.9 17.3-8.3 27.7q-3.5 14.8-9.5 46.6-2.1 11.1-6.5 19.7c-5.4 10.6-15.9 17.2-25.8 22.4q-18.8 9.7-22.7 11.9-14.9 8-20.3 12.1-10.1 7.8-15.2 11.6-12.5 9.3-27.4 7.3c-0.4 0-0.8 0.3-0.8 0.7-0.6 26.5-1.1 52.7-2.6 78.8-1.7 28.9-3.3 59.8-5.3 90.6q-4.1 60.8-6.4 120.1 0 0.1-0.8 14.6c-0.3 7.2-0.3 13.5-0.7 19.9-1 17.5-1.5 35-2.2 50.4q-3.2 66.9-5.7 125.8-0.4 10.6-1 21.6-2.4 47.6-7.3 168.3c-1.3 30.7-2.6 58.4-4.1 80.5q-0.1 2-1.9 17.3c-2.4 19.1-6.4 34.9-13.2 52.9q-5.5 14.8-15.3 39.2c-0.3 0.8 0.3 1.6 1.1 1.6q6.8-0.1 12.8 1.6 5.9 1.7 7.2 7.6 1.4 6.2 1.2 15.3-0.5 22.5-1.3 30.1c-0.8 8.2-1.1 15.1-5.1 20.4-0.2 0.4-0.3 0.9-0.1 1.3 1.7 3.3 4.8 6 8.8 6.5 4 0.6 7.7 1.2 10.6 4.4 2.6 2.9 4.3 4.5 6.7 6.7q1 0.8 0.5 2-1 2.1-0.3 3 0.5 0.8 2.3 1 1.8 0.2 2.6 0.7c11.9 9.2 25.7 14.1 40.1 18.2q40.3 11.5 40.3 11.5 13.9 3.9 26.6 9.7c8.2 3.7 15.3 10.4 17.9 19.1 6.1 20.6-11.9 33.4-29.2 37.8-12.2 3.2-26 4.5-39.8 5.3q-8.9 0.5-16.5 0.6-29.1 0.3-61.1 0.3-2.7 0-4.7 0.9c-15.3 7.1-30.5 9.7-47.2 10.4q-32.6 1.5-89.3 0.8-71.3-0.9-111.2-1.5-10-0.2-21.6-0.2-50.1-0.2-53-0.4c-6.2-0.5-12-1.3-14.5-7.9q-1.3-3-0.8-10.4 0.6-9.8 1.6-16.1 0.8-4.3 1.6-5.6c1.5-2.3 2.6-4.1 2.9-6.8 1.3-9.9 2.7-19.7 4.5-29.6 3-16.9 4.8-26.7 5.6-34.4 0-0.3-0.2-0.7-0.6-0.8-3.9-1.3-7.1-2.2-8.6-6.5q-2.2-6.8-3.3-16.1-1.7-14.8-1.6-31c0.1-7.5 0.7-14.3 4.9-19.8 0.4-0.6 0.5-1.5 0.2-2.2q-10.4-21.2-14.8-29.4-6.3-12-10.3-25.3c-1.3-4.7-1.8-11.4-1.7-16.8q0.2-22.2 1.2-45.6 1.8-42 3.7-70.1 0.7-10.9 1.3-21.6 2.8-51.8 6.6-109 0.5-8.8 1.1-21.6 0.5-10.6 2.3-43.6 7.8-146.9 15.9-358.5 0.3-6.7 0.5-21.7 0.8-53.3 0.7-88c0-0.8-0.6-1.4-1.4-1.5-4.7-0.6-10.3-1.4-14.4-4q-6.9-4.4-10.8-11.6-0.5-0.9-2.5-1.1-5-0.3-22.6-1c-17.3-0.6-35.4-3-51.5-9.1q-14.6-5.5-20.7-20.4-4.6-11-7-20.8c-8.2-33.2-12.6-66.5-15.2-101.5q-7.6-104.2-3.7-221.3 0.8-23.5 3.5-44.3c1.3-10.6 3.8-20.1 9-28.1q4-6.1 12.8-17.2 23-28.7 55.7-60 7.1-6.9 22.6-20.8c0.8-0.7 0.7-2-0.1-2.6q-10.6-7.6-18.7-15.9c-8.5-8.6-13.9-17.7-4.9-28.7q9.7-11.9 23.6-21c6.5-4.3 14.6-8.2 20.5-0.4q6.5 8.5 11.1 20.5 0.4 1 1 1.2zm129.1-278.6q0.6-0.4 1.2 0c2.6 1.7 9.3 6.5 10 9.5q0.1 0.5-0.1 0.9c-2.4 4.3-0.8 9.3-0.7 12.3q0.4 20.2 0.8 40.1c0 0.6 0.5 1.1 1 1.2q47.2 4.2 93.2 11.7c0.5 0.1 1.1-0.4 1.1-1v-20.2q0-1.9-1.6-2.9-11-7.3-19-12.7-1.7-1.1-2.8-2.6c-0.8-0.9-0.7-2.3 0.2-3.2q1.7-1.6 3.9-1.6c17.9-0.3 34.1-2.4 49.4-9q25.2-10.9 40.6-33.6c14.9-21.9 19.1-46.8 11.2-72.5q-1.4-4.5-2.5-6.6-2.5-4.3-3-6.4-0.4-1.8-4.9-13.9c-4.9-13.1-7.2-24.9-10.8-40-3.9-16.3-12.3-30.4-23.5-42.9-0.3-0.3-0.9-0.3-1.2 0-6.6 6.5-15.1 11.5-24.4 8.4-0.5-0.2-0.9 0.1-0.9 0.5q-0.7 7.2-5.9 11.9c-4.1 3.7-9.8 5.1-14.4 1.5q-3-2.4-3.9-6.1-2-8.5-2.6-10.9-4.3-14.8-15.7-23.2-0.9-0.6-1.6-0.9c-0.5-0.3-1 0.2-0.9 0.7q2.1 6.9 2.6 13.6c0.8 11.6-6.4 22.5-16.5 28-3.7 2.1-10.4 3.4-14.5 1q-2.7-1.5-3.4-3.2c-3.6-8.6-7.1-15.7-13.4-23.4-0.2-0.2-0.6-0.2-0.9 0.2q-0.1 0.2 0.2 0.9c8.5 19.8 9.5 47.7-5 65.2-4.8 5.8-13.8 12.4-21.6 10.5-0.5-0.1-1.1 0.2-1.2 0.8q-0.5 2-3.4 16-2.5 12.3-1.5 24.7 0.4 5.3 0.4 7.5c0.1 6.9-0.2 12.3-5.9 16.3q-5.2 3.6-10.7 0.6c-5.8-3.2-11.8-8.3-19.8-9-14.4-1.2-26.8 5.1-33.4 17.8-7 13.4-3.9 30 5 41.3 6.8 8.6 18.3 14.9 28.4 16.9 11.8 2.4 25.5-0.5 35.5-8.6q6.6-5.3 6.9-5.6zm157.2 150.5c-2.8-3.4-4-9-5.4-12-2-4.7-2.3-8.4-2.6-13.9q-1.2-21.7-1.2-25.8c-0.1-5.7-3.2-5.9-8.5-7.7q-7.4-2.4-18-5.7c-0.3-0.1-0.6 0.1-0.7 0.4q-0.3 0.8 0.4 1.9 2.2 4.2 6.8 5.6c3.6 1.1 11.2 3.1 13.1 5.4q1.2 1.6 0.8 4-1.7 10-5.5 26-0.6 2.4-2.2 4c-0.5 0.6-1.5 0.5-1.9-0.2q-2.7-4.1-4.3-9.3-3.5-10.9-7.5-21.5-1.6-4.3-1.4 0.3 0.8 15.2 0.5 30.1c-0.1 4.8-1.3 10.2-7.4 9.2q-10.8-1.9-13.7-2.5-39.6-8.3-84.8-17.5-2.9-0.6-1.8-3 0 0 0-0.1 0.8-2.7 3.4-2.1l97.1 19.7c0.7 0.1 1.3-0.4 1.4-1.1q0.9-23.7-1.2-48.9 0-0.5-0.5-0.8-1.4-0.7-3.6-1.1-43.7-7.9-86.8-12.5c-17.4-1.8-33.6-3.1-49-1q-5.4 0.8-5.8 6.7-0.2 3.2-2.8 38.8c-0.4 6.5-4.8 9.2-9.8 13.7q-2.5 2.2 0.8 1.6 23-4.3 42.4 9.9c14.3 10.5 25.9 24.9 35.5 40q25.2 39.6 36 83.9c10.3 42.3 13.1 85.3 11.7 129.8q-0.1 3.2 1.8 0.6c4.9-7.2 9.3-16.5 16.7-21.9 8.3-6 18.1-0.9 26.1 4.7q104 72.6 147.2 102.9 0.6 0.4 1.3 0.8c0.5 0.1 0.9-0.2 0.8-0.7q-7.1-39.5-17.2-78.6-12.1-47.3-21.4-80.7-16.6-59.8-38-130.2-2.8-9.1-6.6-16.4c-5.9-11.6-17.5-18.4-29.7-27.4-0.4-0.3-1-0.1-1.2 0.3l-1.4 2.1c-0.4 0.7-1.4 0.8-1.9 0.2zm-199.4 284q0 0 0-0.1 1.7-0.8 3 0.8 35.7 47.4 66.8 95.7 1.8 2.9 1.6-0.5-1.2-22.5-0.4-44.1 0.4-8.3 1.8-17c0.1-0.7 0.4-1.4 0.8-2.1q19-25.6 30.8-42.2 5-7 8.8-13 1.2-1.9 0.9-3.9-9.6-58.6-29.8-114.5-3.7-10.1-8.1-20-11.5-25.2-23.1-44.6-4.7-8-15.4-22.9-4.9-6.9-10.3-12.5c-8.5-9-16.8-17.3-27.1-20.8q-10.9-3.8-21.1-2.3c-7.1 1-14.7 6.9-19.6 11.8q-4.1 4.1-9 12-17.1 27.2-25 58.6-1 4-6.5 25.9c-5.6 22.2-11.2 49-15 65.9q-2.5 10.8-4.6 21.2-1.1 5.4-11.2 55.9-12.9 64.5-22 118.3-1.5 9-3.3 21.4-4.5 31.7-4.9 75.8c-0.2 21.6 1.6 41.2 7.6 61q3.7 12 6.7 20.2c5.3 14.3 9.5 26.3 14.7 37.8q11 24.9 24.3 52.6c6.7 14.1 16.8 32.3 22.2 42.6 5.4 10.2 11.7 21.1 17 29q8.5 12.7 22.3 24.5c10.1 8.5 22.8 14.9 36.1 16.3 30.1 3.1 60.2-4.3 83.8-23.7 4.1-3.4 6.8-6.8 11.5-11.9q1.6-1.7 3.4 0 0 0.1 0.1 0.1 1.8 1.6 0 3.8c-10.7 13.4-24.1 23.1-40.2 29.1-9.6 3.5-16.9 5.8-26.2 7-0.7 0-1.1 0.9-0.7 1.5q8.7 13.9 18.2 28c2.1 3.1 7.2 9.8 11.3 10.3q5.1 0.5 11.9-0.9c15.8-3 31.2-10.1 44-19.1q17.9-12.7 29.3-32.8c4.9-8.8 9.6-19.4 4.3-28.8q-6.7-11.8-18.4-31.2-0.8-1.4-1.7 0l-10.7 17.3c-0.9 1.3-2.5 1.8-3.9 1.2l-0.5-0.2c-1.1-0.6-1.5-1.9-0.9-3 6.8-11 12.4-19.3 16.6-29.9q11.3-28.5 11.7-58.5c0.2-12.7-1.6-23.4-6.3-34.9q-16.9-42-35-89.8-8.3-22.1-20.8-60.4-3.6-11-6-19.4c-3.9-13.5-8.4-24.6-14.8-35.1q-8.1-13.3-21.6-33.2-22.6-33.3-42.3-60.5-4-5.5-5.9-9.3-0.8-1.5 0.8-2.5zm381.4 158.7q-1.3 1.3-2.4 1c-3.7-0.9-9.6-3.1-14-3.4q-3-0.2-6.1-0.4c-5.7-0.4-7.1 1.9-10.4 6.5q-14 19.4-20 27.8-2.6 3.7 1.3 1.6 8.4-4.4 21.4-8.8 2.3-0.7 3.1 1.5l0.2 0.3c0.4 1-0.1 2.2-1.1 2.7q-21.7 9.6-31.4 14.9-3.4 1.9-6.4 6-7 9.4-19.9 27.5-24.2 34.2-37.3 52.3-1 1.4 0.5 2.2c7.1 3.6 15.5 6.9 21.5 10.9 16.5 10.9 29.9 28.3 38.5 45.7q4.2 8.5 4.1 18.1 0 7.8-4.4 14.5c-0.8 1.1-2.6 0.6-2.6-0.8l-0.1-2.7c0-0.3-0.4-0.5-0.6-0.3q-9.5 6.7-21.2 12.2-2.8 1.3 0.2 2 5.3 1.1 10.4 1.2c7.7 0.1 14.7-4.4 20.5-9.3q14.8-12.3 32.9-21.4 20-10.1 24.4-12.4 6.7-3.5 12.9-8.5c9.9-7.9 13-19.7 15.3-32q4.6-25.5 8.3-42.1c2.4-11 5.3-18.1 10.6-34.3 4.4-13.6 5.7-26.9 4-41.5q-1.8-16.3-7.5-33.2c-2.8-8.1-6-17.6-9.3-26.1-20.5-52.8-38.6-103.5-58.3-159.4-13.1-37.3-25.9-75.7-40.3-118.4q-5.9-17.7-7-20.5-14.6-38.9-43.4-69.2-2.5-2.7-1.7 0.9 10.1 44.4 19.9 91.6 6.7 32.1 7 33.2c1.8 8.3 3.6 18.8 5.7 28.2q0.4 1.8 0.8 0l10.8-48.4q0.6-2.6 3-2.5h0.1q2.5 0.3 2.1 2.4-5.2 25.7-12.6 56.7c-0.8 3.2-1.6 6.6-0.9 10.2q5 25.5 9.5 54.9 1.7 11 3.8 21.3c3 14.9 5.8 26.5 7.5 37.6 0.4 2.8 1.2 4.3 3.4 5.7q28.2 19.9 50.4 35.1c6.9 4.7 11.2 11.8 7.4 20.2q-3 6.8-6 11-13.6 19.1-20.1 28.4c-0.3 0.4 0 1.1 0.6 1.1 6.4-0.1 18.7 2 23 7.3q0.4 0.5-0.1 0.9zm-237.1-212.9q0.6 0.2 1.7 0 0.5-0.1 1 0c5.7 0.8 11.7 5.1 16.8 8.7 37.6 26.1 78.8 54.4 117 81.4 23.5 16.7 48.5 33.8 88.9 61.6q5.3 3.6 8.7 8.7 1.1 1.6 1.3-0.4c0.6-5.9-3.1-9.4-7.7-12.5-72.3-50.1-134.9-94.4-208.8-145.8-6.1-4.3-12.3-7.6-19-2.5q-0.6 0.5 0.1 0.8zm58.8 335.7c1.3-8.6 8.7-14.6 17.5-12.5q5 1.2 8 3 14.3 9.2 22.7 14.3c0.8 0.5 1.7 0.3 2.2-0.4q3.6-5.4 8.1-11.7 56.8-79.5 90.2-126.1 17.9-25.1 19.3-27c4.4-6.5 3-12.9-3-17.5q-2-1.5-4.8-3.5-109.5-75.9-169-117.5-26.5-18.5-35.3-24.9-4.6-3.4-9.9-5.5c-7.3-2.9-11.9 1.2-15.8 6.8q-23.2 33.2-52.4 74-3 4.2-3.7 8.7-1.4 11.1-1.4 23.8 0.2 14.3 1.3 36 0.4 6.7 1.8 10.2 6.4 15.8 8 21.1c9.2 30.4 15.4 50.3 25.4 77.2q8.3 22.3 17 44.3 17.3 44 19.5 49.2 5.4 13 6.8 20.5 2.4 13.6 1.8 25c-0.6 8.4-1.6 18.2-3.6 27.2-0.2 1 0.1 1.9 0.8 2.5q4.6 3.9 10 6.7 10.6 5.5 17.4-3.9 24.7-34.8 25.5-35.8 11.2-15.5 17.1-24.3 0.9-1.4-0.5-2.2c-13.4-7.3-23.5-21.8-21-37.7zm-403.9-264.7q1.4-9.8 3.6-17.6 0.5-1.5 0.1-2.8c-0.2-1-1.5-1.3-2.2-0.5q-1.8 1.8-3 4.8c-3.8 9.1-4.1 16.6-4.9 28.7q-2 29-2.1 33.3-0.3 9.6-1.3 26c-1.7 27.5-1.4 48.7-1.2 84.4q0.1 10.7 0.6 21.6 3.5 70.4 4.5 80.7c3.6 38.3 7.3 73.3 15.8 109.2 1.7 7.5 4.4 17.4 12 22.1 0.6 0.4 1.4 0.2 1.8-0.4q0.8-1.2 0.1-2.6c-3.2-6-6-11.4-7.9-18.6q-4.6-17.6-6.4-28.5-4.4-28.1-6.3-42.6-1.9-14.7-3.7-37.9c-1.9-23.4-3.4-38.9-4.2-58.9q-2.2-51.7-1.1-94.1 1.2-42.9 1.8-54.6 2.2-39.5 4-51.7zm470.3 317.4c-0.1 0.6-0.7 1-1.3 1q-15.7 0-29.1-0.4-7.2-0.2-13.3-3.4c-0.5-0.3-1.2-0.1-1.6 0.4l-31.3 43.8c-0.3 0.4-0.1 1 0.4 1.2 11.7 5.1 22.5 9.9 35.2 13.2q8.6 2.2 33.3 6.9c2 0.4 3.8 0.3 5.5-0.6q19.1-9.8 42.8-23.5c3.1-1.8 7.5-4.4 7.4-8.2-0.4-13.8-9.1-26.5-17.7-37.5-7.9-10.2-17.3-19.9-29.1-25q-18.8-8.1-34.8-18.9-5-3.5-7.1-4.6c-5.6-3.1-12.3-7.3-17.4-2q-4.3 4.5-3.4 11.7c1.9 14.6 13.7 25.4 26.9 30.1 6 2.2 12 2.8 18.8 3.9 5.3 0.9 11.4 5.5 14.7 8.9q1.5 1.3 1.1 3zm-15.2 67.1q-29.8-6.3-35.7-8.1-9.7-2.8-28.6-12.4-0.5-0.2-0.9 0.2-2.1 2.2-2.8 4.5c-0.2 0.6 0 1.3 0.6 1.7 8.9 6 19 11.2 29.9 13.2q13.2 2.4 28.8 4.5 6.8 0.9 12.2-2.5 0.7-0.5-0.1-0.8c-1-0.4-2.2-0.1-3.4-0.3zm-148.6 892c-0.2 7.1-5.9 11-12 11.9-2.9 0.5-9.5 0.8-13.3 0.8q-52.7-0.1-76.3 0.2-16 0.2-27.5-0.3-5.5-0.2-26.3 0.5-2.3 0.1-2.3 2.2v0.1q0 2.3 2.2 2.3c18.6 0.1 34.7-0.4 52.3-0.2q29.9 0.4 61.5 0c7.7-0.1 17.3 0.3 25.5 0.1q7.7-0.3 11.1-1.9 10.5-5.2 10.3-16.3c-0.2-7.6 1.3-10.1 6.8-15.6 12.9-12.8 23.3-22.7 29.9-38.4q1.9-4.5 3.1-12.8 4.7-31.3 7-56.1 0.9-8.8 1.8-16.6 1.2-9.3 2.1-16.6 0-0.1 2.5-19.3 1.2-8.4 1.8-16.9 1.3-16 1.4-17.1 1.7-17.9 2.4-23.7 2.4-18.8 3.4-29.6c1.1-11.5 2.7-20.4 3.7-31q0.2-2.3 2.5-21.5c1.2-10.6 1.5-22 3.1-32.6q1.3-9.2 2.3-22.5c0.8-10.2 2.4-19.4 3.4-29.9q0.6-5.9 2.6-21.5c1.5-11.3 2.1-23 3.7-34.5q0.4-2.7 1.4-14.1 1.2-14.2 2-21.1 1.6-12.4 2.8-24.9c1-10.5 2.6-24.2 4.1-37.5q2.2-18.9 3.8-36.3 0.5-5.8 5.9-48.2c1-7.9 1.4-13.7 2.4-20.4q0.9-6.5 1.8-15.3 5.3-52.1 17.9-102.8c0.2-0.9-0.2-1.9-1-2.4-2.7-1.7-3.9 0.3-4.6 2.7q-2.5 8-3.9 14.2-2 9.3-7.5 36.9c-2.2 11.1-4.6 32.6-8.3 58.2q-0.7 5-1 7.6c-4.2 39.8-7.1 68.8-10.6 97.5q-3.4 28.3-6.3 56.4-2.3 22.1-6.1 53.5-1.6 12.6-5.1 48.9-2.1 21.6-5 46.4c-1.8 15.6-3 28.7-4.8 43.7q-3.7 30.6-6.6 61.3c-0.8 7.8-1.9 16-2.7 24.3-1.2 12.6-3.5 26.6-4.5 38.8-0.9 11-2.7 21.8-3.7 33.8-0.8 9.7-1.9 16.5-3 28.2-1.7 16.5-3.5 29.8-5.3 45.1q-1.7 14.7-3.6 22.2-1.9 7.9-4.6 12.2c-7.8 12.5-20.2 22.8-28.5 33.5-3.4 4.5-4 8.7-4.1 14.4zm-94.2-543.6q0.3-4.2 0.5-7 1.5-24.1 3.6-46.9 1.3-13.8 3-56.1c0.4-8.9 1.4-18.8 1.8-26.3q0.4-8.6 1.5-19.6c0.9-9.5 0.9-19 1.6-29.1q2.5-34.9 3.2-41.9 0.3-2.7-1.5-3.7c-1.1-0.6-2.4 0-2.8 1.1q-0.8 2.5-1.1 6.2-0.8 8.7-3.5 45.8-0.6 8.1-1.4 21.6c-1.4 24.4-3.5 50.1-5.8 74.7q-1 10.2-1.4 21.5-1.4 33.7-4.1 70-1.1 14.4-1.4 21.6-1.9 35.5-4.6 69.6-0.6 7.7-1.4 21.6-3 48.2-4.4 69.5c-0.6 9.1-0.7 17.7-1.3 26.6q-2.4 34.9-4 69.3-0.5 11-1.2 21.6-4.2 63.5-6.6 116.6c-0.3 6.7-1.2 15.1-1.4 22.7-1 29.1-2.6 58.2-4 87.4q-0.3 6.8 0.1 10.2c0.1 0.9 0.9 1.7 1.8 1.9q0.2 0 0.4 0.1c1.1 0.1 2.2-0.8 2.2-1.9q3.3-56.6 5.6-98.7 0.4-6.4 0.4-6.8 2-43.1 4.7-83.1 0.6-7.7 1.3-21.6 1.7-34.1 3.9-80.3 0.5-9.9 1.3-21.6c3.5-50.2 5.4-71.8 7-107.8 0.4-9.5 1.5-19.6 2-27.4q1.5-26.5 3.5-56.6 0.2-2.3 2.5-43.2zm108.4-217.7c-0.8-1-2.3-1.2-3.3-0.4l-81.1 63.2c-1.1 0.8-1.3 2.3-0.5 3.3h0.1c0.8 1.1 2.3 1.2 3.3 0.4l81.1-63.1c1-0.8 1.2-2.3 0.4-3.3zm-90.6 46.7l2 2.8c0.4 0.5 1 0.6 1.4 0.3l43.4-30.9c11.9-8.4 21.1-15.7 20.6-16.4l-1.5-2.1c-0.5-0.7-10.4 5.6-22.3 14l-43.4 30.9c-0.4 0.3-0.5 0.9-0.2 1.4zm45.5 38.3c-0.4-1.5-2-2.5-3.5-2.1l-31.3 7.7c-1.5 0.4-2.5 2-2.1 3.5v0.2c0.4 1.5 2 2.5 3.5 2.1l31.3-7.8c1.5-0.3 2.5-1.9 2.1-3.5zm-103.1 250.9c0.6-1 0.4-2.3-0.6-3l-0.4-0.3c-1-0.6-2.3-0.4-3 0.6l-18.7 27.9c-0.7 0.9-0.4 2.3 0.6 2.9l0.4 0.3c0.9 0.7 2.3 0.4 2.9-0.6zm75.5 380.9c0.6-1.4-0.1-3-1.5-3.6h-0.1c-1.4-0.6-3 0-3.6 1.4l-17.3 41.3c-0.6 1.4 0 3.1 1.4 3.6l0.1 0.1c1.4 0.6 3-0.1 3.6-1.5zm30.4 28c-1-1.1-2.6-1.1-3.6-0.1l-16.7 16.7c-1 1-1 2.6 0 3.6h0.1c1 1.1 2.6 1.1 3.6 0.1l16.7-16.7c1-1 1-2.6 0-3.6zm157.4 16.8q-0.2-0.9-1-1-2.1-0.3-4.2-0.4c-10-0.2-24.4 0.4-34.3 0.5q-36.5 0.2-68.3 1.3c-1.2 0.1-2.1 1.3-1.5 2.1q0 0 0 0.1 0.2 1.9 2.5 1.9 28.3 0.4 65.1 0.2 21.6-0.1 36.9-0.8c2.5-0.1 5.4-0.4 4.8-3.9zm-107.2 65.4q-1.5 0-1.7-1.4-0.7-5.1-0.8-10.7-0.3-20.5-0.5-37.6 0-2.4-2.5-2.3 0 0-0.1 0c-1.3-0.1-2.4 1.1-2.4 2.5q1.4 31.5 1.4 46.9 0 2.8-0.7 9.3c-0.4 3.3-4 5.5-6.5 7.3-0.6 0.5-0.4 1.5 0.4 1.8 4 1.2 8 2 11.2 4.9q1.8 1.7 3.5 3c0.6 0.5 1.4 0.5 2.1 0.2q5.3-2.4 9.9-6.2 11.2-9.3 14.8-12.5c1.6-1.4 3.3-2.4 5-3.8 0.5-0.5 0.2-1.4-0.6-1.4zm117 4.7c0.2 0 0.4-0.1 0.4-0.3q0.2-0.3-0.1-0.5c-2.8-2.6-6-5.1-9.9-5q-20.3 0.6-44.5 1-0.6 0-0.9 0.2c-0.2 0.2-0.2 0.6 0.1 0.8q11.4 5.5 22 9.4c1.1 0.4 3.2 0.6 4.2 0.4 9.2-1.9 19.2-5.2 28.7-6zm-23.7 16.9q-1.8-1.9 0.6-2.8 18.5-6.7 37.9-8.3 0.8-0.1 1.1-0.3c0.1-0.2 0-0.4-0.1-0.4q-8.2-0.2-13 0.1c-7.1 0.6-18.1 3.3-24.7 5.2-8.1 2.4-12.9 0.4-21.1-2.8-9.1-3.6-17.7-8.5-26.5-12.2-1.1-0.5-2.4-0.4-3.4 0.3q-11.3 7.9-22.8 17.7-7.1 6.1-14.9 10.4-1.2 0.6-0.3 1.6 8.6 8.8 20.4 12.6 0.6 0.2 35.3 12.2 6.4 2.3 14.4 4.1 22.4 5.1 40.8 13.6 15.4 7.1 19.9 23.1c0.1 0.3 0.4 0.5 0.8 0.5q35.8 0.7 69-0.1 19.5-0.5 38.8-3.6 1.5-0.2 13.1-3.3 2.3-0.6 2.5 1.9l0.1 0.7q0.1 2.2-2 2.9-7.2 2.7-10.1 3.2-18.6 3.4-30.6 3.7-25.4 0.5-67.2 0.4-10.7 0-12.9 0c-0.7 0-1.2 0.5-1.3 1.1q-1.2 7.6-6.1 14c-0.3 0.4 0 0.9 0.5 0.9q0.9 0 2.7 0 26.3 0.1 51.1-0.5c12.7-0.2 23.2-1.1 36.9-2.4q8.8-0.8 21.5-3.7c12.3-2.7 27.8-12 26.4-26.1-1.8-17.7-22-23.9-36.7-28.1q-50.9-14.4-58.9-16.9-1.7-0.6-4.4 0.2-18.7 5.3-31.1 13.6-2 1.3-3.4-0.8 0 0-0.1 0-1.6-2.1 0.8-3.7c8.8-5.8 18.4-9.4 27.1-13.3 0.3-0.2 0.4-0.8 0-1-5.7-2.9-11.4-1.3-19.3 0.3-7 1.5-13.9 4.4-20.6 6.2q-2.2 0.5-3.2-1.4 0 0 0-0.1-1-2 1.1-2.9 14.5-6 28.6-9.1 2.8-0.6 0.2-1.7-0.7-0.4-2.7 0c-9.3 1.4-15.7 4.1-28.2 8.1-1.3 0.4-2.7-0.2-3.4-1.3v-0.1q-1-2.2 1-3.1 11.8-5 23.2-7.2 3.3-0.6 0.2-1.8-3.7-1.4-5.9-4.1c-0.7-0.8-1.6-1.2-2.6-1.2-11.5 0.6-20.1 3.2-34.4 7-1.5 0.4-3.1 0-3.9-1.1q-0.1-0.1-0.2-0.2zm-117-5.5l-42.7 2.9q-2.8 0.2-0.4 1.6 9.3 5.3 15.5 8.6 5.3 2.9 9.1 3.7c4.6 1 11.3-4.3 15.3-7q4.2-2.9 8.8-4.7c0.6-0.3 0.7-1.1 0.2-1.5l-4.6-3.3c-0.4-0.3-0.8-0.4-1.2-0.3zm21.2 49.9q-2.3-2.1 0.2-4 10.5-8 17.9-12.1c2.1-1.1 4.3-1.7 5.9-2.7 0.4-0.2 0.3-0.9-0.2-1l-6.3-1.4c-0.4-0.1-0.9 0-1.3 0.2q-11.3 6.1-21.1 13.5-2 1.5-2.9-0.8-0.1-0.1-0.1-0.1-1.1-2.3 1.1-4.2 9.3-8 18.5-12.3c0.1-0.1 0.1-0.3 0-0.4l-10.7-8.4c-1-0.7-2.2-0.9-3.3-0.5q-11.3 4-20.4 12.1-2.1 1.8-3.8-0.2 0 0-0.1-0.1-1.9-2 0.1-3.8 11-9.9 22.4-13.7c0.5-0.2 0.7-0.9 0.3-1.3-2.6-2.4-6.3-0.8-9.4 0.9q-10.1 5.2-18.6 11c-2.4 1.6-4.7 2.4-7.3 1.8q-6.3-1.3-13-5.1-16.9-9.7-23.7-13.3-1.9-1-4.4-1-7.1-0.1-13.6 0.8c-1.2 0.2-2.3 0.7-3.3 1.4q-6.6 5.3-14.4 12.8c-6.2 5.9-13.5 12.1-19.3 15.5-19.5 11.2-43.6 11.9-63.6 1.7-0.3-0.2-0.7 0-0.7 0.4q-3.8 23.2-6 38.2-0.2 1.6 0.4 2.8c0.1 0.3 0.4 0.5 0.7 0.6q3.4 1 4.2 1.1 12.6 1.6 22.9 2.1 41.4 2.2 100 4.6 3.4 0.1 6.2 0.6c1.2 0.1 2 1.1 2 2.2l0.1 0.8q0.1 1.8-1.7 1.8-2.9 0.1-8.2-0.1-52.1-2-102.2-4.6c-5.9-0.3-13.5-1.2-21.5-2-2.2-0.2-3.8-0.8-5.7-1.8-0.5-0.2-1.1 0.1-1.1 0.6q-1.5 10.7-1.8 20.7-0.2 7.1 6.6 8.4 2.7 0.6 13.5 0.6 64.2 0.3 128.4 1.1 11.4 0.2 21.7 0.2c48.1 0 67 0.3 101.4-1.3q15.2-0.7 30.6-3 15.2-2.2 27.4-8.2 11.7-5.7 10.9-17.1c-0.8-12-10-20.4-20.7-24.5q-16.3-6.3-31.4-11c-5.1-1.5-10.3-4.2-15.4-5.5q-5.3-1.3-15.6-3.6-0.6-0.2-1.2 0.3-11.4 9-20.4 18.3-1.5 1.6-3 0.2l-0.2-0.2q-2.1-2.1-0.1-4.2 10-9.9 18.7-15.7c0.4-0.2 0.4-0.8-0.1-0.9q-3.3-1.3-9.1-3.3c-1.8-0.5-3.4-0.4-5 0.3q-13.9 5.9-26.6 16-1.8 1.5-3.4-0.1-0.2-0.1-0.2-0.1zm-136.2-19.9c11.2-5.7 19.9-15.2 30.1-24.6 0.5-0.5 0.2-1.3-0.5-1.2l-82.1 1.5c-0.4 0.1-0.8 0.4-0.9 0.8q-1 5.8-3.5 19.6-0.5 2.6 1.2 3.6c17 10.3 38 9.4 55.7 0.3z"/>
		<path id="Path 2" class="s0" d="m1441.6 243.2c-1.2 1.7-3.6 2.1-5.3 0.9l-0.2-0.2c-1.7-1.2-2.1-3.5-0.9-5.2l10.5-14.8c1.2-1.7 3.5-2.1 5.2-0.9l0.2 0.1c1.7 1.2 2.1 3.6 0.9 5.3z"/>
		<path id="Path 3" fill-rule="evenodd" class="s0" d="m1472.5 247.2c-1-1.8-3.3-2.5-5.1-1.5l-14.9 8.3c-1.8 1-2.5 3.2-1.5 5l0.3 0.5c1 1.8 3.2 2.4 5 1.4l15-8.2c1.8-1 2.4-3.3 1.4-5.1zm13 35.2c0.1-2-1.6-3.7-3.6-3.7l-17.4-0.1c-2 0-3.6 1.6-3.6 3.6v0.3c0 2 1.6 3.6 3.6 3.7l17.4 0.1c2 0 3.6-1.6 3.6-3.6zm-137.5 18.3c1 0 1.7-1 1.4-1.9q-1.7-4.3-6.6-6-6.6-2.3-18-4.7-5.1-1-9.2-0.9c-4 0.1-7.6 3.4-6.4 7.6 1.8 6.6 7 6.7 13.1 6.3q6.3-0.5 25.7-0.4zm-110.5 28.1q5.2-3.9 2.2-9.3c-9.1-16.7-32.1 20.6-35.4 26.4q-2.2 3.8 0.7 6.4c1.2 1.1 2.5 0.9 3.7-0.1q6.6-5.3 14.5-12.3 1.9-1.7 14.3-11.1z"/>
		<path id="Path 4" fill-rule="evenodd" class="s0" d="m1350.8 327.8c0.9-0.9 0.6-2.4-0.5-3-10.9-6.5-23.6-1.7-29.2 9.2q-1.2 2.4 1.3 4.4c0.2 0.2 0.6 0.3 0.9 0.1q1.4-0.5 2.5-1.7c6.6-8.3 12.6-9.4 22.8-8.5q1.4 0.2 2.2-0.5zm-94.8 39.6q0.1-9.6-9-15c-0.6-0.3-0.6-1.2 0-1.5l2.2-1.3c1.1-0.6 1.2-2 0.4-2.8-2.6-2.4-7.9-1.2-10.8-0.2q-14.1 4.9-20.7 18.6-1.9 4-1.9 7.5c0.1 1.8 2.3 2.5 3.4 1.1l2.3-3c0.4-0.4 1-0.3 1.1 0.2 4.4 18.2 32.8 15.7 33-3.6z"/>
		<path id="Path 5" fill-rule="evenodd" class="s0" d="m1306.7 347q-1.5-0.2-2.2 0.9c-0.7 0.8-0.4 2.1 0.5 2.6 1.2 0.8 4.7 2.3 6 4.3 1.3 2 1.2 5.8 1.4 7.2 0.1 1 1.2 1.8 2.2 1.6q1.3-0.3 1.7-1.8 1.5-6.3-0.8-9.9-2.4-3.7-8.8-4.9zm54.3 4.7c-0.6-2.2-2.2-3.6-3.6-3.2-1.4 0.4-2 2.5-1.4 4.6 0.7 2.2 2.3 3.6 3.7 3.2 1.4-0.4 2-2.5 1.3-4.6zm4.7-2.2c-1.1-1.1-2.4-1.6-2.9-1.1-0.5 0.5-0.1 1.8 1 2.9 1.1 1.1 2.4 1.6 2.9 1.1 0.6-0.5 0.1-1.8-1-2.9zm-74.6 41.4q-2.1-0.6-3 1.6 0 0 0 0.1-0.9 2.1 1.4 2.9c14.2 5.4 33.6 1.6 39.3-14.3q0.7-2.2-1-3.5c-0.7-0.5-1.6-0.3-2.1 0.4-4 6.2-7.1 10.9-14.6 13.2-7 2.2-13.1 1.5-20-0.4zm-53.3 9.5c-0.9-2.4-2.6-4-3.9-3.5-1.3 0.4-1.6 2.7-0.8 5.1 0.9 2.4 2.6 4 3.9 3.5 1.3-0.4 1.6-2.7 0.8-5.1zm-11.6 0.5c0-0.2-0.2-0.2-0.3-0.2l-0.8 0.3c-2 0.7-3 3-2.3 5.1l0.3 1c0.8 2.1 3 3.3 5.1 2.6l0.7-0.2c0.1-0.1 0.2-0.2 0.1-0.4zm-91.2 12.3c1.3 11.3 11.2 16.6 22 14.9q6.1-1 9.5-5.5c2.4-3.1 0.8-5.8-1.6-8.5q-6.4-7.4-16.7-10.6-14.7-4.6-24.8 7.1-2.3 2.7-0.2 5.1l0.2 0.2q1.1 1.4 2.7 0l7.5-6.2c0.4-0.4 1.1-0.2 1.3 0.3 0.4 0.9 0 2.1 0.1 3.2z"/>
		<path id="Path 6" fill-rule="evenodd" class="s0" d="m1219.5 407.7c-0.4-2.5-1.9-4.4-3.4-4.2-1.4 0.3-2.3 2.5-1.9 5 0.4 2.5 1.8 4.4 3.3 4.2 1.5-0.2 2.4-2.5 2-5zm-67.3 381.3q22.7 36.1 43.7 78.7 7.5 15.2 14.2 33.1 1.1 2.8 2.6 4c0.3 0.3 0.7 0.3 1 0.2q2.3-1 1.9-3.3-0.8-4.1-4-11.9-7.2-17.1-12.5-28-7.1-14.6-25.1-46.7-10.7-19-26.3-42.6-13.1-19.7-26.6-34.5-11.7-12.9-30.3-24.1-2.4-1.4-3.6 1-0.1 0-0.1 0.1-1.7 2.2 1 3.7 17.3 9.4 32.4 26.5c12 13.6 22.1 28.5 31.7 43.8z"/>
		<path id="Path 7" fill-rule="evenodd" class="s0" d="m1216 798.6c0.7 0 1.3 0.5 1.3 1.1l6.3 85.5c0.4 5.7-0.3 10.5-1.6 10.6h-0.6c-1.4 0.1-2.8-4.5-3.2-10.2l-6.3-85.5c0-0.6 0.5-1.2 1.2-1.3zm-133.4 456.9q-8.9-6.7-18.9-15c-14.6-12.1-25.2-26.1-29.8-44.5-2.3-9.1-3.6-20.2-4.8-28.1q-6.4-41.3-13.2-76.9-0.5-2.3 1.8-2.7l0.5-0.1c0.8-0.2 1.7 0.3 2 1.1q1.7 5 2.2 7.6 8.5 44.9 14.8 90c2.9 20.4 13.8 36.4 29.8 49.5 9.5 7.8 17 13.5 26.1 21.9 6.5 5.8 16.1 12.6 23.2 18.8q3.4 3 22.2 19.2 6.7 5.8 19.5 18.4c1 1 1 2.5 0.1 3.4q0 0-0.1 0-1.6 1.8-3.4 0.1c-17.6-16.6-31-28.3-55-49q-7.1-6.2-17-13.7zm459.8-60c-0.4 1.4-1.8 2.2-3.2 1.8h-0.1c-1.3-0.4-2.1-1.9-1.7-3.2l14.8-51.3c0.4-1.4 1.8-2.2 3.2-1.8 1.4 0.4 2.2 1.9 1.8 3.2z"/>
		<path id="Path 8" fill-rule="evenodd" class="s0" d="m1474.3 1242.8q-1.2 1.7-1.1 3.7c0 0.9 0.9 1.6 1.8 1.2 6.5-2.4 12.2-13.2 14.8-19.7 2-5.1 1-11.2-0.3-16.4q-4.1-16.9-10-33.2-0.8-2.5-3.1-1.5 0 0-0.1 0-2.3 1-1.6 3.2 4.7 14.8 7.4 24.2c3.2 11.2 5.3 17.3 0.6 25.6q-3.2 5.7-8.4 12.9zm-124.2-3l-0.7 1q-1.3 1.8 0.8 2.8c11.7 5.7 22.9 10.5 36.1 11.8q18.8 1.8 35.5 2.7 1.9 0.1 2.4-2.2 0 0 0-0.1c-0.3-1.6-1.7-2.8-3.3-3q-27.5-1.8-32.8-2.4c-12.3-1.3-22.8-5.6-34.7-11.4q-2-1-3.3 0.8zm-90 101.5c-0.7-1.1-2.1-1.4-3.2-0.7h-0.1c-1.1 0.7-1.4 2.2-0.7 3.2l9.5 14.9c0.7 1 2.1 1.4 3.2 0.7l0.1-0.1c1.1-0.7 1.4-2.1 0.7-3.2zm-27.5 16.1c-0.6-1-2.1-1.3-3.1-0.6l-0.7 0.4c-1.1 0.7-1.4 2.1-0.7 3.2l19.2 29.5c0.7 1.1 2.1 1.4 3.2 0.7l0.7-0.4c1-0.7 1.3-2.1 0.6-3.2zm-33.5 12.8c-0.7-1.2-2.2-1.6-3.4-0.9l-0.1 0.1c-1.2 0.7-1.5 2.3-0.8 3.4l18.3 29.6c0.7 1.2 2.2 1.5 3.4 0.8h0.1c1.2-0.8 1.5-2.3 0.8-3.5zm193.8 972.1q2.9-1 2.2-3.8 0 0-0.1-0.3-0.6-3-3.5-1.9c-20.9 7.7-43.5 8.9-66.3 9.4q-52.7 1.2-108.2-0.9-3-0.1-2.3 2.8 0 0.1 0 0.3c-0.2 1.5 1.4 2.8 3.5 2.9 40.5 1 83.8 1.8 125.6-0.1 16.4-0.7 33.4-3.3 49.1-8.4z"/>
	</g>
</svg>