<svg width="137" height="460" viewBox="0 0 137 460" fill="none" xmlns="http://www.w3.org/2000/svg">
<path d="M107.889 121.766C107.807 121.807 107.684 121.766 107.663 121.663C106.742 117.072 105.533 112.645 103.71 108.423C103.41 107.74 103.157 106.954 102.952 106.066C101.785 101.024 99.8594 97.0069 95.7013 93.8711C94.0217 92.6004 93.2843 92.1085 91.9529 90.7353C91.4749 90.2434 90.8741 89.6559 90.1504 88.9727C89.966 88.8087 89.8636 88.5628 89.8431 88.3168C89.7066 85.7754 89.5495 83.0563 89.372 80.1596C89.2491 78.2945 87.8153 77.9461 86.2791 77.8641C84.3536 77.7548 82.435 77.7343 80.5233 77.8026C80.4004 77.8026 80.298 77.7206 80.298 77.5977C80.3185 74.7693 80.1956 73.2321 80.4618 71.1416C80.5028 70.8342 80.7486 70.6087 81.0559 70.5677L85.6031 69.9733C85.685 69.9597 85.7533 69.9802 85.8079 70.0348C86.9755 70.8751 88.3888 71.613 89.6178 70.3833C90.2733 69.7411 90.8195 69.174 91.2565 68.6821C91.4067 68.5045 91.6525 68.361 91.9938 68.2517C92.1987 68.1834 93.4072 67.8281 95.6194 67.186C99.1834 66.1407 102.625 63.9477 105.492 61.5087C105.636 61.3857 105.82 61.3242 106.025 61.3447C107.295 61.4062 108.176 60.9143 109.241 60.0535C109.917 59.5001 110.244 59.91 110.879 59.6641C112.149 59.1859 112.859 58.2567 113.01 56.8767C113.173 55.1961 113.01 53.4949 113.296 51.5889C113.378 51.015 113.569 50.2498 113.87 49.2934C114.874 46.0961 115.795 42.9193 115.324 39.4965C114.812 35.8073 112.743 31.6262 109.65 29.4537C109.623 29.4264 109.616 29.3991 109.63 29.3717C109.63 29.3444 109.637 29.3239 109.65 29.3102C109.678 29.2829 109.705 29.2761 109.732 29.2897C110.511 29.4537 111.637 30.0071 112.641 30.1915C114.32 30.499 115.16 29.1873 114.566 27.6911C113.624 25.3546 110.859 24.7397 108.585 25.1906C108.257 25.259 107.943 25.3273 107.643 25.3956C107.459 25.4366 107.315 25.2521 107.397 25.1087C108.531 22.8542 108.653 20.5792 107.766 18.2837C106.803 15.8652 104.98 14.451 103.014 12.6269C101.805 11.5406 101.088 10.1059 100.29 9.08117C99.8594 8.52779 99.081 8.24085 98.3846 8.50729C97.4833 8.83522 96.9303 9.47741 96.7255 10.4339C96.705 10.5568 96.5821 10.5978 96.5001 10.5159C95.0527 9.12216 93.3321 7.87193 91.3384 6.76517C88.2659 5.06404 84.7633 4.3467 81.2197 4.18274C78.5432 4.05977 76.6042 3.94363 75.4025 3.83432C73.4498 3.65669 71.7087 3.23311 70.1793 2.56359C69.0732 2.0717 67.6804 1.06742 66.7177 0.452556C65.9393 -0.0530002 65.2292 -0.134985 64.5874 0.206607C63.3379 0.92395 63.1126 2.5431 63.7476 3.81382C63.8091 3.9163 63.7271 4.05976 63.6042 4.05976C59.1389 4.32621 55.0832 6.12981 52.0722 9.4091C49.5733 12.135 48.5286 14.9019 46.89 18.4476C46.3574 19.6364 45.3947 20.7295 44.0019 21.7269C43.4283 22.1368 41.9535 22.6287 41.974 23.8789C41.974 24.7944 42.4042 25.4639 43.2645 25.8875C43.4079 25.949 43.4693 26.1334 43.3874 26.2769C42.1584 28.265 41.8921 30.4785 42.8138 32.651C43.0596 33.2249 43.5307 33.6963 44.0428 34.2907C44.0838 34.3453 44.1111 34.4068 44.1247 34.4751C44.1521 34.6801 44.1998 34.9943 44.2681 35.4179C44.391 36.2172 44.7392 36.9961 44.8826 37.6519C44.9646 38.0208 44.8895 38.5742 44.6573 39.3121C44.2476 40.7262 43.5922 42.6733 42.9162 44.2925C42.7387 44.7024 42.452 45.4129 42.056 46.424C38.1642 56.5898 44.432 67.186 54.0181 70.7932C55.2881 71.2646 56.8448 71.6335 58.0738 71.9819C58.2171 72.0229 58.3196 72.1459 58.3196 72.3098L58.5449 79.8112C58.5654 80.0571 58.4015 80.2621 58.1762 80.3441C56.0732 80.9863 53.8952 81.7514 51.6421 82.6396C50.6793 83.0085 50.1468 83.3364 50.0649 84.4227C49.9693 85.6934 49.86 87.6746 49.7371 90.3664C49.7371 90.5508 49.5937 90.7353 49.3889 90.7763C46.0843 91.4185 43.1416 92.7644 40.5607 94.8139C38.3895 96.5355 37.3448 98.872 36.6075 101.495C36.4231 102.151 36.1363 102.643 35.6243 103.176C33.7671 105.062 32.2514 106.79 31.077 108.361C27.6153 112.973 25.3417 118.404 23.5597 123.979C22.6448 126.862 21.0812 131.521 18.869 137.957C15.4142 147.986 11.4746 159.081 7.05026 171.242C6.16949 173.64 4.63324 177.698 2.89218 182.104C1.73146 185.056 0.878006 188.028 0.331787 191.02C-0.159805 193.725 -0.105179 196.513 0.495667 199.382C0.632217 200.093 0.925812 201.09 1.37645 202.374C2.11383 204.588 2.58493 205.92 3.07652 208.052C3.55447 210.074 4.20311 213.257 5.02243 217.603C5.30919 219.119 5.75299 220.465 6.35384 221.64C7.45992 223.813 9.61066 225.165 11.6385 226.231C14.2057 227.557 15.7556 228.37 16.2882 228.67C18.3228 229.763 19.7088 230.59 20.4462 231.15C21.8254 232.216 22.8632 233.008 23.5597 233.528C25.2666 234.798 27.1374 235.297 29.1721 235.024C29.254 235.024 29.3359 235.085 29.3359 235.167C29.4588 240.599 29.5612 245.968 29.8685 251.318C30.2167 257.241 30.5444 263.574 30.9541 269.887C31.5139 278.194 31.9509 286.399 32.265 294.502C32.265 294.515 32.3196 295.513 32.4289 297.494C32.4903 298.97 32.4903 300.261 32.5723 301.573C32.7771 305.159 32.8795 308.746 33.0229 311.902C33.4599 321.043 33.849 329.638 34.1904 337.686C34.245 339.134 34.3133 340.61 34.3953 342.113C34.723 348.617 35.2214 360.115 35.8905 376.607C36.1568 382.899 36.4231 388.576 36.7303 393.106C36.744 393.379 36.8737 394.561 37.1195 396.651C37.6111 400.566 38.4304 403.804 39.8233 407.494C40.5743 409.516 41.619 412.194 42.9572 415.528C43.0187 415.692 42.8958 415.856 42.7319 415.856C41.8033 415.842 40.9294 415.951 40.1101 416.184C39.3044 416.416 38.8128 416.935 38.6353 417.741C38.4441 418.588 38.3622 419.634 38.3895 420.877C38.4577 423.951 38.5465 426.008 38.6558 427.046C38.8196 428.727 38.8811 430.141 39.7004 431.227C39.7414 431.309 39.7618 431.412 39.7209 431.494C39.3727 432.17 38.7377 432.723 37.9184 432.826C37.099 432.949 36.3412 433.072 35.7471 433.728C35.2146 434.322 34.8664 434.65 34.3748 435.101C34.2382 435.21 34.2041 435.347 34.2724 435.511C34.4089 435.798 34.4294 436.003 34.3338 436.126C34.2655 436.235 34.1085 436.303 33.8627 436.331C33.6169 436.358 33.4394 436.406 33.3301 436.474C30.8927 438.36 28.066 439.364 25.1164 440.204C19.6132 441.776 16.8617 442.561 16.8617 442.561C14.9636 443.094 13.1474 443.757 11.4132 444.549C9.73357 445.308 8.27926 446.681 7.74669 448.464C6.49722 452.686 10.1842 455.31 13.7278 456.211C16.2267 456.867 19.0534 457.134 21.8801 457.298C23.0954 457.366 24.222 457.407 25.2598 457.421C29.2335 457.462 33.4052 457.482 37.775 457.482C38.1437 457.482 38.4646 457.544 38.7377 457.667C41.8716 459.122 44.985 459.655 48.4057 459.798C52.8574 460.003 58.9545 460.058 66.6972 459.962C76.4335 459.839 84.0259 459.737 89.4744 459.655C90.84 459.627 92.3148 459.614 93.8988 459.614C100.74 459.586 104.359 459.559 104.755 459.532C106.025 459.429 107.213 459.265 107.725 457.913C107.902 457.503 107.957 456.792 107.889 455.781C107.807 454.442 107.698 453.342 107.561 452.481C107.452 451.894 107.343 451.511 107.233 451.333C106.926 450.862 106.701 450.493 106.639 449.94C106.373 447.911 106.086 445.902 105.718 443.873C105.103 440.409 104.734 438.401 104.57 436.823C104.57 436.761 104.611 436.679 104.693 436.659C105.492 436.392 106.148 436.208 106.455 435.326C106.755 434.397 106.981 433.297 107.131 432.027C107.363 430.004 107.472 427.887 107.459 425.673C107.438 424.136 107.315 422.742 106.455 421.615C106.373 421.492 106.353 421.307 106.414 421.164C107.834 418.267 108.845 416.259 109.445 415.138C110.306 413.499 111.009 411.77 111.555 409.953C111.822 408.99 111.924 407.616 111.903 406.51C111.876 403.476 111.794 400.361 111.658 397.164C111.412 391.425 111.159 386.636 110.9 382.796C110.804 381.307 110.715 379.831 110.633 378.369C110.251 371.292 109.801 363.845 109.282 356.029C109.213 354.827 109.138 353.351 109.056 351.602C108.988 350.154 108.831 347.175 108.585 342.666C107.52 322.594 106.434 298.102 105.328 269.19C105.287 268.274 105.253 266.792 105.226 264.742C105.117 257.459 105.069 251.447 105.083 246.706C105.083 246.542 105.205 246.419 105.369 246.399C106.332 246.276 107.479 246.112 108.319 245.579C109.261 244.978 109.999 244.185 110.531 243.201C110.599 243.078 110.77 243.003 111.043 242.976C111.726 242.935 113.269 242.867 115.672 242.771C119.216 242.648 122.923 242.156 126.221 240.906C128.215 240.154 129.628 238.761 130.461 236.725C131.089 235.222 131.567 233.801 131.895 232.462C133.575 225.657 134.476 218.832 135.008 211.659C136.046 197.421 136.299 182.302 135.766 166.302C135.657 163.091 135.418 160.065 135.049 157.223C134.783 155.05 134.271 153.103 133.206 151.464C132.66 150.63 131.786 149.455 130.584 147.938C127.443 144.017 123.64 139.918 119.175 135.641C118.205 134.698 116.662 133.277 114.546 131.378C114.382 131.234 114.402 130.968 114.566 130.845C116.014 129.807 117.291 128.72 118.397 127.586C120.138 125.824 121.244 123.959 119.4 121.704C118.076 120.078 116.464 118.643 114.566 117.4C113.235 116.519 111.576 115.719 110.367 117.318C109.48 118.479 108.722 119.88 108.094 121.52C108.039 121.656 107.971 121.738 107.889 121.766ZM81.445 64.665C81.3631 64.6104 81.2812 64.6104 81.1992 64.665C80.6667 65.0134 79.2943 65.9972 79.1509 66.6121C79.1373 66.6804 79.1441 66.7419 79.1714 66.7965C79.663 67.6778 79.3353 68.7026 79.3148 69.3175C79.2602 72.0776 79.2055 74.8171 79.1509 77.5362C79.1509 77.6592 79.0485 77.7616 78.9461 77.7821C72.5007 78.356 66.1373 79.1553 59.8558 80.1801C59.7534 80.2006 59.6305 80.0981 59.6305 79.9752V75.8351C59.6305 75.5754 59.7397 75.3773 59.9582 75.2407C61.4603 74.2432 62.7576 73.3756 63.85 72.6378C64.0822 72.4875 64.2733 72.3098 64.4235 72.1049C64.5874 71.9204 64.5669 71.6335 64.3826 71.449C64.1504 71.2304 63.8842 71.1211 63.5837 71.1211C59.9173 71.0596 56.599 70.6292 53.4651 69.2765C50.0239 67.7872 47.2518 65.4917 45.1489 62.39C42.0969 57.9015 41.2366 52.7981 42.8548 47.5308C43.046 46.9159 43.2167 46.465 43.3669 46.1781C43.7083 45.5905 43.9131 45.1533 43.9814 44.8663C44.036 44.6204 44.3705 43.6708 44.985 42.0175C45.9887 39.3325 46.4598 36.9141 47.1972 33.8193C47.9961 30.4785 49.7167 27.5886 52.0108 25.0267C52.0722 24.9652 52.1951 24.9652 52.2565 25.0267C53.6084 26.3589 55.3495 27.3837 57.2544 26.7483C57.3569 26.7073 57.4388 26.7688 57.4388 26.8508C57.5344 27.8346 57.9372 28.6475 58.6473 29.2897C59.4871 30.0481 60.6547 30.335 61.5969 29.5972C62.0065 29.2692 62.2728 28.8525 62.3957 28.347C62.6688 27.1855 62.8464 26.4409 62.9283 26.1129C63.5155 24.0907 64.5874 22.5057 66.1441 21.358C66.267 21.276 66.3763 21.2145 66.4719 21.1735C66.5743 21.112 66.6767 21.2145 66.6562 21.317C66.3694 22.2598 66.1919 23.1889 66.1236 24.1044C65.9598 26.4819 67.4346 28.7159 69.5034 29.8431C70.2612 30.2735 71.6336 30.54 72.4734 30.0481C72.8421 29.8431 73.0743 29.6245 73.1699 29.3922C73.9072 27.6296 74.6241 26.1744 75.9146 24.5963C75.9555 24.5553 76.0375 24.5553 76.0989 24.6373C76.1126 24.6646 76.0989 24.7261 76.058 24.8217C74.3169 28.8798 74.1121 34.5981 77.0821 38.1848C78.0653 39.3735 79.9088 40.7262 81.5065 40.3368C81.6089 40.3163 81.7318 40.3778 81.7523 40.5008C81.8205 40.7741 82.0527 41.8672 82.4487 43.7801C82.7901 45.4607 82.8925 47.1482 82.7559 48.8425C82.7013 49.5666 82.674 50.079 82.674 50.3796C82.6535 51.7938 82.715 52.9006 83.8825 53.7204C84.5926 54.2123 85.3232 54.2533 86.0742 53.8434C87.2623 53.1875 88.4912 52.1422 90.1299 51.9988C93.0794 51.7528 95.6194 53.044 96.9713 55.647C98.4051 58.3934 97.7701 61.7956 95.9471 64.1116C94.5542 65.8742 92.1987 67.1655 90.1299 67.5754C87.7129 68.0673 84.9067 67.4729 82.8584 65.8128C81.9571 65.0886 81.486 64.706 81.445 64.665ZM49.2455 95.5108C49.8191 94.8139 50.0649 93.6662 50.3516 93.0513C50.7613 92.088 50.8227 91.3297 50.8842 90.2024C51.048 87.2374 51.13 85.4748 51.13 84.9146C51.1505 83.7463 51.7854 83.7053 52.871 83.3364C53.8815 83.0085 55.1105 82.6191 56.558 82.1682C56.6195 82.1477 56.6809 82.1887 56.7014 82.2502C56.7424 82.3595 56.7151 82.4893 56.6195 82.6396C56.319 83.2134 55.8548 83.596 55.2266 83.7873C54.4892 84.0128 52.9325 84.4227 52.5433 84.8941C52.3794 85.1127 52.3248 85.386 52.3795 85.7139C52.6116 87.0803 52.9871 88.8565 53.506 91.0427C53.588 91.3707 53.7382 91.6439 53.9567 91.8625C54.0591 91.9855 54.2639 91.965 54.3458 91.8216C54.7145 91.2614 55.0081 90.626 55.2266 89.9155C55.7045 88.4261 56.2166 86.9573 56.7628 85.5089C56.9813 84.9214 57.0769 84.9419 57.0496 85.5704C56.9404 87.6473 56.9062 89.7037 56.9472 91.7396C56.9677 92.7234 57.2135 93.8301 58.463 93.6252C59.9377 93.3656 60.8731 93.1948 61.2691 93.1128C66.6767 91.9787 72.4666 90.7831 78.6388 89.5261C79.0348 89.4441 79.1578 89.2391 79.0075 88.9112C79.0075 88.9112 79.0075 88.9044 79.0075 88.8907C78.8983 88.5218 78.6662 88.3783 78.3111 88.4603L58.422 92.4979C58.2786 92.5184 58.1557 92.4159 58.1352 92.2725C58.0123 89.0342 58.0942 85.6934 58.381 82.2502C58.381 82.1818 58.4152 82.1272 58.4834 82.0862C58.6746 81.9906 58.9204 81.9154 59.2208 81.8607C65.1882 80.7813 71.1147 79.9273 77.0002 79.2988C80.5643 78.9299 83.8825 78.6634 87.0369 79.0938C87.7743 79.2032 88.1703 79.6609 88.225 80.467C88.2523 80.9043 88.4434 83.555 88.7985 88.4193C88.8804 89.7515 89.7817 90.3049 90.8058 91.2272C91.1472 91.5278 91.0926 91.6371 90.642 91.5551C87.5012 90.9676 84.6063 91.6439 81.9571 93.5842C79.028 95.7362 76.652 98.6876 74.6856 101.782C71.2444 107.193 68.7864 112.925 67.3117 118.978C65.2019 127.648 64.6284 136.461 64.9151 145.581C64.9288 146.019 64.8059 146.06 64.5464 145.704C63.5428 144.229 62.6415 142.323 61.1258 141.216C59.4257 139.986 57.4183 141.031 55.7797 142.179C41.578 152.099 31.5276 159.129 25.6285 163.269C25.5465 163.324 25.4578 163.378 25.3622 163.433C25.2598 163.453 25.1778 163.392 25.1983 163.289C26.1679 157.892 27.3422 152.522 28.7214 147.18C30.3737 140.717 31.8349 135.204 33.1048 130.64C35.3716 122.469 37.9661 113.574 40.8884 103.955C41.2708 102.712 41.7214 101.591 42.2403 100.594C43.4488 98.2162 45.8249 96.8225 48.3238 94.9779C48.4057 94.9164 48.5286 94.9574 48.5696 95.0394L48.8564 95.4698C48.9383 95.6132 49.1431 95.6337 49.2455 95.5108ZM90.0889 153.718C90.0889 153.718 90.0889 153.711 90.0889 153.698C89.8568 153.588 89.6519 153.643 89.4744 153.861C84.5994 160.338 80.0385 166.876 75.7917 173.476C75.5459 173.872 75.4366 173.838 75.464 173.373C75.6278 170.299 75.6551 167.286 75.5459 164.335C75.4913 163.201 75.3684 162.039 75.1772 160.85C75.1567 160.707 75.0953 160.564 75.0133 160.42C72.4188 156.922 70.3159 154.039 68.7045 151.771C68.0217 150.814 67.4209 149.926 66.902 149.107C66.7381 148.847 66.6767 148.58 66.7177 148.307C68.0286 140.3 70.0632 132.478 72.8216 124.84C73.3269 123.46 73.8799 122.093 74.4808 120.741C76.0511 117.298 77.6283 114.251 79.2124 111.6C79.8542 110.507 80.9056 108.942 82.3668 106.906C83.0359 105.963 83.7391 105.109 84.4765 104.344C86.2176 102.5 87.9177 100.799 90.0275 100.081C91.5159 99.562 92.9565 99.4049 94.3494 99.6099C95.8037 99.8148 97.3604 101.024 98.3641 102.028C98.924 102.589 99.5385 103.408 100.208 104.488C102.543 108.204 104.25 112.208 105.328 116.498C105.465 117.045 105.909 118.814 106.66 121.807C107.807 126.357 108.954 131.849 109.732 135.313C110.074 136.789 110.388 138.237 110.674 139.658C110.825 140.396 111.589 144.215 112.969 151.115C114.73 159.928 116.232 168.01 117.475 175.361C117.68 176.591 117.905 178.053 118.151 179.747C118.765 184.079 119.1 189.257 119.154 195.283C119.195 199.71 118.827 203.727 117.598 207.785C117.093 209.425 116.635 210.805 116.225 211.925C115.14 214.856 114.28 217.316 113.214 219.673C111.712 223.075 110.053 226.668 108.237 230.453C106.865 233.343 104.796 237.073 103.69 239.184C102.584 241.275 101.293 243.509 100.208 245.128C99.0469 246.863 97.5243 248.537 95.6398 250.149C93.571 251.892 90.9697 253.203 88.2454 253.49C82.08 254.126 75.9146 252.609 71.0806 248.633C70.2407 247.936 69.6877 247.239 68.725 246.194C68.5065 245.962 68.2744 245.962 68.0286 246.194C68.0286 246.207 68.0217 246.214 68.0081 246.214C67.7623 246.433 67.7623 246.693 68.0081 246.993C70.1998 249.74 72.9445 251.728 76.2423 252.957C78.2087 253.675 79.704 254.146 81.6089 254.392C81.7523 254.392 81.8342 254.576 81.7523 254.699C80.5642 256.599 79.3216 258.512 78.0243 260.438C77.5942 261.074 76.5495 262.447 75.7097 262.549C75.0133 262.618 74.2008 262.556 73.2723 262.365C70.0359 261.75 66.8815 260.295 64.2597 258.45C61.8154 256.715 59.8148 254.474 58.2581 251.728C57.2544 249.924 56.2917 247.751 57.3773 245.825C58.2922 244.213 59.5486 242.081 61.1462 239.43C61.2555 239.239 61.3716 239.239 61.4945 239.43L63.6861 242.976C63.8705 243.242 64.1982 243.345 64.485 243.222L64.5874 243.181C64.8127 243.058 64.8947 242.792 64.7718 242.566C63.3789 240.312 62.2318 238.61 61.3715 236.438C59.8285 232.544 59.0296 228.547 58.975 224.448C58.9341 221.845 59.3028 219.652 60.2655 217.295C62.5732 211.556 64.9629 205.421 67.4346 198.89C68.568 195.87 69.9881 191.744 71.6951 186.511C72.1866 185.008 72.5963 183.682 72.924 182.535C73.7229 179.768 74.6446 177.493 75.9556 175.341C77.0616 173.524 78.5364 171.255 80.3799 168.536C83.466 163.986 86.3542 159.853 89.0443 156.137C89.5905 155.385 89.9933 154.75 90.2528 154.23C90.362 154.025 90.3074 153.855 90.0889 153.718ZM11.9662 186.244C12.1437 186.422 12.3076 186.49 12.4578 186.449C13.2157 186.265 14.4242 185.814 15.3255 185.753C15.7351 185.725 16.1516 185.698 16.5749 185.671C17.7425 185.589 18.0292 186.06 18.7052 187.003C20.6169 189.654 21.9825 191.553 22.8018 192.701C23.1568 193.206 23.0681 193.315 22.5355 193.028C21.3885 192.427 19.9273 191.826 18.1521 191.225C17.838 191.129 17.6264 191.232 17.5171 191.532L17.4762 191.594C17.3943 191.799 17.4967 192.045 17.7015 192.147C20.6647 193.459 22.8086 194.477 24.1332 195.201C24.5975 195.461 25.0345 195.87 25.4441 196.431C26.4 197.715 27.7587 199.594 29.5203 202.067C32.8249 206.74 35.3716 210.313 37.1605 212.786C37.297 212.977 37.2629 213.128 37.0581 213.237C35.6038 213.975 33.8832 214.651 32.6542 215.471C29.2745 217.705 26.5297 221.271 24.7682 224.837C24.1946 225.999 23.9147 227.235 23.9284 228.547C23.9284 229.613 24.2288 230.604 24.8296 231.519C24.9935 231.744 25.3622 231.642 25.3622 231.355L25.3827 230.802C25.3827 230.74 25.4646 230.699 25.5056 230.74C26.8028 231.656 28.2503 232.489 29.848 233.241C30.2304 233.418 30.2167 233.555 29.807 233.651C29.0833 233.801 28.3732 233.883 27.6768 233.896C26.0996 233.917 24.6658 232.995 23.4777 231.99C21.4567 230.31 19.2104 228.848 16.7388 227.604C14.0077 226.224 12.3417 225.377 11.7409 225.063C10.826 224.585 9.94521 224.004 9.09858 223.321C7.07074 221.702 6.43576 219.283 5.96465 216.762C5.3365 213.278 4.76981 210.402 4.26456 208.134C3.77296 205.879 3.17896 204.424 2.09335 201.104C1.19209 198.316 0.925812 195.59 1.27403 192.598C1.51982 190.371 2.03191 188.103 2.81026 185.794C3.38379 184.133 4.03923 182.186 4.71518 180.444C8.91422 169.623 12.6217 159.231 16.6569 147.774C19.3401 140.13 21.962 132.259 24.9116 123.508C25.7172 121.089 26.1952 119.689 26.3454 119.306C28.3391 113.991 31.3023 109.263 35.2351 105.123C35.5764 104.754 35.6925 104.816 35.5833 105.308C34.2041 111.374 32.8454 117.632 31.5071 124.082C30.5922 128.468 30.1143 130.736 30.0733 130.886C29.7046 132.587 29.3359 134.739 28.9058 136.666C28.8511 136.912 28.7965 136.912 28.7419 136.666L26.5297 126.746C26.4478 126.391 26.243 126.22 25.9152 126.234H25.8948C25.5534 126.275 25.41 126.438 25.4646 126.725C26.1747 130.237 27.035 134.111 28.0455 138.346C28.2093 139.002 28.3732 139.699 28.2298 140.437C27.5471 143.921 26.8984 147.672 26.2839 151.689C26.0518 153.192 25.7923 154.647 25.5056 156.055C24.8911 159.108 24.3175 161.486 23.9693 163.761C23.8874 164.335 23.7235 164.642 23.2729 164.929C19.4221 167.648 15.9809 170.046 12.9494 172.123C11.5361 173.086 10.6553 174.541 11.4337 176.263C11.8433 177.192 12.253 177.944 12.6627 178.518C14.5198 181.127 15.8922 183.068 16.7798 184.338C16.8412 184.42 16.7798 184.564 16.6569 184.564C15.3459 184.543 12.8265 184.974 11.9457 186.06C11.8911 186.128 11.8979 186.19 11.9662 186.244ZM60.5317 142.609C60.4498 142.637 60.3337 142.637 60.1835 142.609C60.1153 142.596 60.047 142.596 59.9787 142.609C58.8112 142.773 57.5822 143.655 56.5375 144.393C48.8359 149.742 40.3968 155.542 32.5723 161.076C27.7587 164.499 22.6379 168.003 14.3627 173.701C13.639 174.193 13.045 174.787 12.5807 175.484C12.4305 175.703 12.3417 175.676 12.3144 175.402C12.1915 174.193 12.9494 173.476 13.8916 172.84C28.701 162.572 41.5234 153.493 56.6604 142.958C57.9099 142.077 59.1798 141.4 60.5522 142.445C60.6342 142.514 60.6273 142.568 60.5317 142.609ZM48.4877 211.413C48.2214 209.65 46.7056 208.421 44.9031 208.851C44.2204 209.015 43.6741 209.22 43.2645 209.466C41.3117 210.723 39.7618 211.7 38.6148 212.397C38.4509 212.499 38.2666 212.458 38.1642 212.315C37.6726 211.577 37.1195 210.778 36.505 209.917C28.7487 199.054 22.5901 190.439 18.0292 184.072C15.5849 180.642 14.2672 178.798 14.076 178.538C13.1747 177.206 13.4615 175.894 14.6905 174.951C14.9636 174.746 15.2913 174.507 15.6737 174.234C30.6264 163.863 42.1652 155.836 50.2902 150.152C53.9089 147.624 56.3191 145.923 57.5207 145.048C58.1489 144.584 58.8248 144.208 59.5486 143.921C61.0438 143.327 61.986 144.167 62.7849 145.315C65.9529 149.851 69.5307 154.907 73.5181 160.482C73.9277 161.055 74.1803 161.65 74.2759 162.265C74.4671 163.781 74.5627 165.407 74.5627 167.143C74.5354 169.096 74.4466 171.556 74.2964 174.521C74.2418 175.436 74.1189 176.133 73.9277 176.612C73.0538 178.77 72.5076 180.212 72.2891 180.936C70.4046 187.167 69.1347 191.245 67.0863 196.759C65.9529 199.806 64.7922 202.832 63.6042 205.838C61.2418 211.85 59.9104 215.211 59.61 215.922C58.8726 217.698 58.4083 219.099 58.2172 220.123C57.8894 221.982 57.7665 223.69 57.8485 225.247C57.9714 226.969 58.1762 228.978 58.5858 230.822C58.6268 231.027 58.5654 231.212 58.422 231.335C57.7938 231.867 57.1111 232.325 56.3737 232.708C54.9262 233.459 53.7382 233.193 52.8096 231.908C49.4367 227.153 47.6956 224.708 47.5864 224.571C46.057 222.453 44.8895 220.793 44.0838 219.591C43.9609 219.399 43.995 219.249 44.1862 219.14C46.931 217.644 48.9997 214.672 48.4877 211.413ZM131.219 157.161C131.028 155.822 130.782 154.62 130.482 153.554C130.413 153.349 130.407 153.158 130.461 152.98C130.502 152.775 130.768 152.714 130.912 152.878C131.158 153.124 131.362 153.452 131.526 153.861C132.305 155.727 132.366 157.264 132.53 159.744C132.803 163.706 132.946 165.981 132.96 166.569C133.001 167.88 133.09 169.657 133.226 171.898C133.575 177.534 133.513 181.879 133.472 189.196C133.459 190.658 133.418 192.133 133.349 193.623C132.871 203.242 132.564 208.755 132.428 210.163C131.69 218.012 130.932 225.186 129.191 232.544C128.843 234.081 128.29 236.11 126.733 237.073C126.61 237.155 126.446 237.114 126.365 236.991C126.255 236.827 126.248 236.65 126.344 236.458C127 235.229 127.573 234.122 127.962 232.646C128.59 230.241 129.027 228.294 129.273 226.805C129.874 222.966 130.304 220.055 130.564 218.074C130.823 216.065 131.076 213.476 131.321 210.306C131.711 205.51 132.018 202.333 132.182 198.234C132.482 191.17 132.557 184.741 132.407 178.948C132.243 173.086 132.12 169.356 132.038 167.757C131.738 162.36 131.465 158.828 131.219 157.161ZM34.8869 222.214C34.9073 222.337 35.0302 222.419 35.1531 222.419C37.297 222.419 39.2839 222.392 41.1137 222.337C42.0969 222.31 43.005 222.077 43.838 221.64C43.9404 221.579 44.0838 221.62 44.1657 221.722L50.5769 230.699C50.6384 230.781 50.5974 230.904 50.495 230.945C48.0985 231.99 45.8863 232.974 43.285 233.651C42.1106 233.951 39.8369 234.423 36.4641 235.065C36.0544 235.147 35.6857 235.126 35.3375 234.942C32.7293 233.603 29.807 231.997 26.5707 230.125C25.9357 229.756 25.0345 229.223 25.0549 228.445C25.1369 225.616 26.9189 223.013 28.6805 220.759C30.2986 218.668 32.224 216.68 34.641 215.635C37.2083 214.528 39.5843 213.237 41.7692 211.761C42.452 211.283 42.9367 210.969 43.2235 210.819C44.3705 210.183 45.7429 209.322 46.7876 210.409C47.3747 211.023 47.6069 211.823 47.484 212.807C47.0948 215.799 44.6778 218.012 41.974 218.976C40.745 219.427 39.516 219.55 38.1232 219.775C37.0376 219.96 35.7881 220.902 35.1122 221.599C34.9073 221.777 34.8322 221.982 34.8869 222.214ZM38.0003 235.967C42.0696 235.106 44.5071 234.552 45.3128 234.306C46.6374 233.924 48.5901 233.077 51.171 231.765C51.2392 231.738 51.3007 231.751 51.3553 231.806C51.6421 232.107 51.8332 232.414 51.9288 232.728C51.9698 232.851 51.9288 232.995 51.8059 233.077C49.9829 234.306 47.9141 235.372 45.6815 235.782C43.879 236.11 41.9126 236.417 39.7823 236.704C38.8538 236.827 38.0208 236.657 37.2834 236.192C37.1878 236.124 37.1946 236.069 37.3039 236.028C37.5087 235.946 37.7545 236.008 38.0003 235.967ZM68.4382 418.787C68.4792 420.242 69.6467 421.041 70.8962 421.226C71.4902 421.328 72.8421 421.389 73.6205 421.389C80.8169 421.376 86.0264 421.389 89.2491 421.43C91.434 421.458 93.3116 421.437 94.882 421.369C95.633 421.342 97.4287 421.376 100.269 421.471C100.583 421.485 100.74 421.635 100.74 421.922V421.943C100.74 422.257 100.59 422.414 100.29 422.414C96.4796 422.435 93.1819 422.332 89.5768 422.373C85.4939 422.428 81.2948 422.428 76.9797 422.373C75.4025 422.353 73.4361 422.435 71.7565 422.394C70.705 422.353 69.9472 422.223 69.4829 422.004C68.0491 421.294 67.3458 420.18 67.3731 418.664C67.4141 417.106 67.1068 416.594 65.9802 415.466C63.3379 412.843 61.2077 410.814 59.8558 407.596C59.5964 406.981 59.3847 406.107 59.2208 404.973C58.579 400.696 58.1011 396.863 57.787 393.475C57.6641 392.272 57.5412 391.138 57.4183 390.072C57.2544 388.802 57.1111 387.668 56.9882 386.67C56.9882 386.656 56.8175 385.338 56.4761 382.714C56.3122 381.567 56.1893 380.412 56.1074 379.251C55.9299 377.064 55.8343 375.896 55.8206 375.746C55.5885 373.3 55.4246 371.681 55.329 370.889C55.0013 368.32 54.7692 366.298 54.6326 364.822C54.4073 362.465 54.0796 360.641 53.8747 358.468C53.8474 358.154 53.6767 356.685 53.3626 354.062C53.1168 351.889 53.0554 349.553 52.7277 347.38C52.5501 346.123 52.3931 344.586 52.2565 342.769C52.0927 340.678 51.765 338.793 51.5601 336.641C51.4782 335.834 51.3007 334.366 51.0276 332.234C50.7203 329.918 50.5974 327.52 50.2697 325.163C50.2151 324.794 50.1195 323.831 49.9829 322.273C49.8191 320.333 49.6825 318.891 49.5733 317.949C49.3548 316.254 49.1636 314.553 48.9997 312.845C48.7949 310.693 48.4672 307.885 48.1599 305.159C47.8595 302.577 47.6001 300.097 47.3816 297.72C47.3133 296.927 46.9105 293.634 46.1731 287.841C45.9682 286.222 45.8863 285.033 45.6815 283.66C45.5586 282.771 45.4357 281.726 45.3128 280.524C44.589 273.405 43.3669 266.382 41.6463 259.454C41.6053 259.27 41.6873 259.065 41.8511 258.962C42.4042 258.614 42.65 259.024 42.7934 259.516C43.1347 260.609 43.401 261.579 43.5922 262.426C43.8653 263.697 44.3774 266.218 45.1284 269.989C45.5791 272.264 46.0706 276.671 46.8285 281.917C46.9241 282.601 46.9924 283.12 47.0333 283.475C47.8936 291.632 48.4877 297.576 49.2046 303.458C49.6689 307.325 50.099 311.178 50.495 315.018C50.8091 318.037 51.2256 321.692 51.7445 325.983C51.963 327.704 52.3112 331.045 52.7891 336.005C53.0759 338.957 53.4173 342.126 53.8133 345.515C54.182 348.712 54.4278 351.397 54.7965 354.472C55.3017 358.653 55.7523 362.841 56.1483 367.035C56.3122 368.634 56.5375 370.315 56.7014 372.016C56.9472 374.598 57.4183 377.468 57.6231 379.968C57.8075 382.223 58.1762 384.436 58.381 386.896C58.5449 388.884 58.7702 390.277 58.9955 392.675C59.3437 396.057 59.7124 398.783 60.0811 401.919C60.3133 403.927 60.5591 405.444 60.8185 406.469C61.078 407.548 61.392 408.382 61.7607 408.969C63.3584 411.531 65.8983 413.642 67.5984 415.835C68.2949 416.757 68.4177 417.618 68.4382 418.787ZM87.7334 307.373C87.6924 306.799 87.6583 306.321 87.6309 305.938C87.4261 302.645 87.1803 299.441 86.8936 296.326C86.716 294.44 86.5112 290.608 86.2791 284.828C86.1971 283.004 85.9923 280.975 85.9104 279.438C85.8557 278.262 85.7533 276.923 85.6031 275.42C85.4188 273.473 85.4188 271.526 85.2754 269.456C84.934 264.688 84.7155 261.825 84.6199 260.869C84.5789 260.5 84.6814 260.247 84.9272 260.11C85.1525 259.987 85.4188 260.11 85.5007 260.336C85.6099 260.677 85.685 261.101 85.726 261.606C85.8352 262.795 86.0742 265.924 86.4429 270.993C86.5248 272.1 86.6204 273.576 86.7297 275.42C87.0164 280.421 87.4466 285.689 87.9177 290.731C88.0543 292.124 88.1498 293.593 88.2045 295.137C88.3956 299.742 88.6756 304.524 89.0443 309.484C89.1945 311.452 89.2901 312.927 89.331 313.911C89.5905 318.762 89.9046 323.517 90.2733 328.176C90.3552 329.228 90.4508 330.704 90.56 332.603C90.9697 339.189 91.2701 343.937 91.4613 346.847C91.5842 348.712 91.6047 350.475 91.7276 352.299C92.0553 357.068 92.3284 361.802 92.5469 366.502C92.6152 368.005 92.6971 369.481 92.7927 370.929C93.3662 379.606 93.8168 387.572 94.1446 394.827C94.206 396.2 94.3904 397.922 94.4313 399.48C94.6362 405.444 94.9639 411.408 95.2507 417.393C95.2916 418.322 95.2848 419.019 95.2302 419.483C95.2097 419.668 95.0458 419.832 94.8615 419.873C94.8342 419.873 94.8069 419.88 94.7796 419.893C94.5542 419.914 94.3289 419.729 94.3289 419.504C93.8783 411.77 93.4959 405.027 93.1819 399.275C93.1272 398.4 93.0999 397.936 93.0999 397.881C92.8268 391.992 92.5059 386.315 92.1372 380.849C92.0553 379.797 91.9665 378.322 91.8709 376.422C91.6388 371.763 91.3725 366.277 91.0721 359.964C91.0038 358.612 90.9151 357.136 90.8058 355.537C90.0889 345.249 89.6997 340.822 89.372 333.443C89.2901 331.496 89.0648 329.426 88.9623 327.827C88.7575 324.207 88.5185 320.34 88.2454 316.227C88.2181 315.913 88.0474 312.961 87.7334 307.373ZM65.5296 262.754C65.6935 262.549 66.0008 262.508 66.2056 262.672L82.8174 275.625C83.0427 275.789 83.0837 276.097 82.9198 276.302H82.8993C82.7355 276.527 82.4282 276.548 82.2234 276.384L65.6116 263.451C65.4067 263.287 65.3658 262.98 65.5296 262.775V262.754ZM84.0874 272.326L83.6777 272.899C83.5958 273.002 83.4729 273.022 83.3909 272.961L74.5013 266.628C72.0638 264.906 70.1793 263.41 70.2817 263.267L70.589 262.836C70.6914 262.693 72.7192 263.984 75.1567 265.706L84.0464 272.039C84.1283 272.1 84.1488 272.223 84.0874 272.326ZM74.7675 280.175C74.8495 279.868 75.1772 279.663 75.4844 279.745L81.8957 281.323C82.2029 281.405 82.4077 281.733 82.3258 282.04V282.081C82.2439 282.389 81.9161 282.594 81.6089 282.512L75.1977 280.913C74.8904 280.852 74.6856 280.524 74.7675 280.196V280.175ZM95.8856 331.599C95.7627 331.394 95.8037 331.127 96.0086 330.984L96.0905 330.922C96.2953 330.799 96.5616 330.84 96.705 331.045L100.535 336.763C100.679 336.948 100.617 337.235 100.412 337.358L100.33 337.419C100.146 337.563 99.8594 337.501 99.7365 337.296L95.8856 331.599ZM80.4209 409.666C80.298 409.379 80.4413 409.051 80.7281 408.928H80.7486C81.0354 408.805 81.3631 408.928 81.486 409.215L85.0296 417.68C85.1525 417.967 85.0296 418.315 84.7428 418.418L84.7223 418.438C84.4356 418.561 84.1078 418.418 83.9849 418.131L80.4209 409.666ZM74.194 415.405C74.3988 415.179 74.7266 415.179 74.9314 415.384L78.3521 418.807C78.5569 419.012 78.5569 419.34 78.3521 419.545H78.3316C78.1268 419.77 77.799 419.77 77.5942 419.565L74.1735 416.143C73.9687 415.938 73.9687 415.61 74.1735 415.405H74.194ZM41.9535 418.848C41.9809 418.725 42.0491 418.657 42.1584 418.643C42.4451 418.602 42.7319 418.575 43.0187 418.561C45.067 418.52 48.0166 418.643 50.0444 418.664C55.0286 418.691 59.6919 418.78 64.0344 418.93C64.2802 418.95 64.4645 419.196 64.3416 419.36C64.3416 419.36 64.3416 419.367 64.3416 419.381C64.3143 419.641 64.1436 419.77 63.8295 419.77C59.965 419.825 55.5202 419.839 50.495 419.811C47.5454 419.798 45.026 419.743 42.9367 419.647C42.4246 419.627 41.8306 419.565 41.9535 418.848ZM63.9115 432.252C64.1163 432.252 64.2324 432.156 64.2597 431.965C64.3553 431.268 64.4099 430.537 64.4235 429.772C64.4645 426.971 64.4986 424.402 64.526 422.066C64.526 421.738 64.6966 421.581 65.038 421.594C65.038 421.594 65.0449 421.594 65.0585 421.594C65.3248 421.574 65.5501 421.82 65.5501 422.107C65.3589 426.411 65.2633 429.615 65.2633 431.719C65.2633 432.102 65.3111 432.737 65.4067 433.625C65.4887 434.302 66.2261 434.753 66.7381 435.121C66.861 435.224 66.8201 435.429 66.6562 435.49C65.8369 435.736 65.0176 435.9 64.3621 436.495C64.1163 436.727 63.8773 436.932 63.6452 437.11C63.5223 437.212 63.3584 437.212 63.215 437.151C62.4913 436.823 61.8154 436.399 61.1872 435.88C59.6578 434.609 58.6473 433.755 58.1557 433.318C57.828 433.031 57.4798 432.826 57.1315 432.539C57.0291 432.437 57.0906 432.252 57.2544 432.252H63.9115ZM39.9462 433.215C39.9052 433.215 39.8643 433.195 39.8643 433.154C39.8369 433.113 39.8438 433.079 39.8848 433.051C40.4583 432.519 41.1137 432.006 41.9126 432.027C44.6846 432.109 47.7229 432.177 51.0276 432.232C51.1095 432.232 51.1709 432.245 51.2119 432.273C51.2529 432.314 51.2529 432.396 51.1914 432.437C49.6347 433.188 48.1326 433.83 46.6851 434.363C46.4598 434.445 46.0297 434.486 45.8249 434.445C43.9404 434.056 41.8921 433.379 39.9462 433.215ZM44.8007 436.679C45.0465 436.42 45.0055 436.228 44.6778 436.105C42.1515 435.19 39.5639 434.623 36.9147 434.404C36.8055 434.39 36.7303 434.37 36.6894 434.343C36.6689 434.302 36.6894 434.261 36.7099 434.261C37.8296 434.233 38.7172 434.24 39.3727 434.281C40.827 434.404 43.0801 434.958 44.432 435.347C46.0911 435.839 47.0743 435.429 48.7539 434.773C50.6179 434.035 52.3794 433.031 54.182 432.273C54.4073 432.17 54.6736 432.191 54.8784 432.334C56.4215 433.414 57.9782 434.623 59.5486 435.962C60.5181 436.795 61.5354 437.506 62.6005 438.093C62.7644 438.175 62.7849 438.285 62.662 438.421C61.4876 439.624 60.0948 440.484 58.4834 441.004C58.4015 441.031 55.9913 441.865 51.2529 443.504C50.3789 443.818 49.3958 444.098 48.3033 444.344C45.2445 445.041 42.4588 445.97 39.9462 447.132C37.8433 448.102 36.4845 449.68 35.87 451.866C35.8496 451.928 35.7881 451.969 35.7062 451.969C30.8175 452.064 26.1064 452.058 21.5728 451.948C18.91 451.88 16.2608 451.634 13.6253 451.21C13.4205 451.183 12.5261 450.958 10.9421 450.534C10.628 450.452 10.4573 450.582 10.43 450.924L10.4095 451.067C10.3959 451.368 10.5324 451.566 10.8192 451.661C11.8024 452.03 12.492 452.249 12.888 452.317C15.4279 452.782 17.5171 453.035 19.1558 453.076C22.6243 453.144 27.2125 453.171 32.9205 453.158C34.3816 453.158 35.2624 453.158 35.5628 453.158C35.7062 453.158 35.8086 453.26 35.8291 453.383C35.9929 454.421 36.4094 455.378 37.0785 456.252C37.14 456.334 37.0785 456.437 36.9761 456.437C36.8532 456.437 36.6689 456.437 36.4231 456.437C32.8317 456.45 29.3428 456.416 25.9562 456.334C23.3549 456.293 21.2041 456.109 18.3979 455.842C17.1963 455.733 15.7283 455.48 13.994 455.084C11.4746 454.531 8.29974 452.625 8.5865 449.735C8.95519 446.107 13.0928 444.836 16.1038 443.976C23.0544 442.008 27.0759 440.853 28.1684 440.512C28.4005 440.43 28.7009 440.443 29.0696 440.553C31.6232 441.277 33.7466 442.206 35.4399 443.34C35.713 443.518 35.9452 443.463 36.1363 443.176C36.1363 443.176 36.1432 443.176 36.1568 443.176C36.3753 442.889 36.3207 442.637 35.993 442.418C34.1904 441.229 32.224 440.491 30.442 439.692C30.3805 439.651 30.3601 439.528 30.442 439.487C31.6095 438.893 32.7771 439.221 34.3953 439.549C35.8291 439.856 37.2424 440.45 38.6148 440.819C38.9152 440.888 39.1337 440.792 39.2703 440.532C39.2703 440.532 39.2703 440.525 39.2703 440.512C39.4068 440.239 39.3317 440.04 39.0449 439.917C37.0649 439.098 35.1122 438.476 33.1868 438.052C32.8044 437.97 32.7908 437.854 33.1458 437.704C33.2414 437.649 33.4257 437.649 33.6988 437.704C35.6038 437.991 36.9147 438.544 39.4751 439.364C39.7414 439.446 40.0281 439.323 40.1715 439.098V439.077C40.3081 438.776 40.2398 438.565 39.9667 438.442C38.3553 437.759 36.7713 437.267 35.2146 436.966C34.764 436.884 34.7503 436.761 35.1736 436.597C35.6789 436.406 36.0817 436.126 36.3821 435.757C36.5255 435.593 36.7099 435.511 36.9147 435.511C39.2703 435.634 41.0318 436.167 43.9609 436.946C44.2681 437.028 44.5959 436.946 44.7597 436.72C44.7734 436.706 44.787 436.693 44.8007 436.679ZM68.766 435.552L77.5123 436.146C77.8946 436.174 77.9219 436.283 77.5942 436.474C76.3243 437.198 75.266 437.786 74.4193 438.237C73.6956 438.633 73.0743 438.886 72.5554 438.995C71.6131 439.2 70.2408 438.114 69.4214 437.56C68.8479 437.164 68.2471 436.843 67.6189 436.597C67.496 436.536 67.4755 436.372 67.5779 436.29L68.5202 435.613C68.6021 435.552 68.684 435.531 68.766 435.552ZM64.4235 445.779C64.7376 445.492 64.724 445.219 64.3826 444.959C62.9488 443.866 61.7266 443.04 60.7161 442.479C60.2859 442.254 59.8353 442.131 59.5076 441.926C59.4257 441.885 59.4462 441.742 59.5486 441.721L60.839 441.434C60.9209 441.414 61.0233 441.434 61.1053 441.475C62.6483 442.309 64.089 443.231 65.4272 444.242C65.7003 444.447 65.8983 444.392 66.0212 444.078C66.0349 444.064 66.0417 444.058 66.0417 444.058C66.1919 443.743 66.1168 443.456 65.8164 443.197C64.5464 442.104 63.2833 441.263 62.027 440.676C62.0065 440.655 62.0065 440.614 62.027 440.594L64.2187 438.872C64.4235 438.729 64.6693 438.688 64.8947 438.77C66.4377 439.316 67.8306 440.143 69.0732 441.25C69.36 441.496 69.6194 441.482 69.8516 441.209C69.8516 441.209 69.8584 441.202 69.872 441.188C70.1315 440.915 70.1247 440.655 69.8516 440.409C68.3495 439.057 66.8201 438.121 65.2633 437.601C65.1609 437.56 65.12 437.417 65.2019 437.335C65.7345 436.843 66.4923 437.171 67.1273 437.519C68.5065 438.23 69.7765 438.981 70.9372 439.774C71.4288 440.102 71.8999 440.266 72.4324 440.143C73.2927 439.965 74.1803 439.617 75.0952 439.098C77.403 437.772 79.0212 436.864 79.9498 436.372C80.2092 436.235 80.5096 436.167 80.851 436.167C81.8206 436.153 82.7491 436.208 83.6367 436.331C83.8825 436.372 84.1078 436.474 84.3127 436.618C85.2139 437.342 86.1971 438.216 87.2622 439.241C88.5322 440.45 90.0275 441.721 91.2155 442.418C95.2097 444.713 100.146 444.857 104.243 442.766C104.304 442.725 104.386 442.766 104.386 442.848C104.905 446.018 105.315 448.628 105.615 450.678C105.642 450.896 105.615 451.087 105.533 451.251C105.513 451.313 105.451 451.354 105.39 451.374C104.926 451.511 104.639 451.586 104.53 451.6C102.809 451.819 101.245 451.962 99.8389 452.03C94.1855 452.331 87.3578 452.645 79.3558 452.973C78.8915 452.987 78.4682 453.028 78.0858 453.096C77.84 453.117 77.6761 453.322 77.6761 453.547L77.6556 453.711C77.642 453.957 77.7581 454.08 78.0039 454.08C78.3999 454.093 78.9597 454.087 79.6835 454.059C86.798 453.786 93.7759 453.472 100.617 453.117C101.826 453.055 103.382 452.871 105.021 452.707C105.472 452.666 105.799 452.543 106.189 452.338C106.291 452.297 106.414 452.358 106.414 452.461C106.619 453.923 106.742 455.337 106.783 456.703C106.81 457.673 106.359 458.247 105.431 458.425C105.062 458.507 104.14 458.548 102.666 458.548C93.8988 458.589 85.132 458.664 76.3652 458.773C74.8085 458.801 73.3269 458.814 71.9204 458.814C62.068 458.814 58.1967 458.876 51.1505 458.548C49.0749 458.452 46.9855 458.247 44.8826 457.933C42.807 457.632 40.9362 457.072 39.2703 456.252C37.6726 455.474 36.9283 454.305 37.0376 452.748C37.2015 450.288 39.0859 448.567 41.2776 447.726C43.5034 446.865 45.6473 446.114 47.7093 445.472C48.7539 445.164 49.8191 444.611 50.8637 444.344C51.5874 444.167 52.6526 443.921 54.0591 443.607C54.141 443.579 54.2229 443.6 54.3049 443.668C55.8616 444.898 57.2544 446.148 58.4834 447.419C58.6883 447.637 58.8931 447.651 59.0979 447.46L59.1389 447.419C59.4257 447.132 59.4325 446.845 59.1594 446.558C57.7938 445.205 56.517 444.133 55.329 443.34C55.2471 443.299 55.2471 443.176 55.3495 443.156C55.8001 442.978 56.4215 442.753 57.2135 442.479C57.5822 442.377 57.9099 442.397 58.2376 442.541C60.1357 443.347 61.9519 444.44 63.6861 445.82C63.9319 446.025 64.1641 446.018 64.3826 445.8C64.4099 445.786 64.4235 445.779 64.4235 445.779ZM92.3216 441.701C90.0275 440.532 88.2454 438.585 86.1561 436.659C86.0537 436.556 86.1152 436.392 86.2586 436.413L103.075 436.72C103.157 436.741 103.239 436.802 103.26 436.884C103.396 437.677 103.635 439.016 103.976 440.901C104.045 441.257 103.963 441.502 103.731 441.639C100.249 443.75 95.9471 443.566 92.3216 441.701Z" fill="white"/>
<path d="M28.8443 23.6329C29.0901 23.9814 29.5816 24.0633 29.9299 23.8174L29.9708 23.7764C30.3191 23.5305 30.401 23.0591 30.1552 22.7106L28.0045 19.6773C27.7587 19.3289 27.2875 19.2469 26.9393 19.4928L26.8984 19.5133C26.5502 19.7593 26.4682 20.2512 26.714 20.5996L28.8443 23.6329Z" fill="white"/>
<path fill-rule="evenodd" clip-rule="evenodd" d="M22.515 24.4525C22.7198 24.0836 23.1909 23.9401 23.5596 24.1451L26.6116 25.8462C26.9803 26.0512 27.1237 26.5021 26.9189 26.871L26.8574 26.9735C26.6526 27.3424 26.2019 27.4654 25.8332 27.2604L22.7608 25.5798C22.3921 25.3748 22.2692 24.9034 22.474 24.5345L22.515 24.4525ZM19.8522 31.6669C19.8317 31.257 20.1799 30.9086 20.5896 30.9086L24.1536 30.8881C24.5633 30.8881 24.891 31.216 24.891 31.626V31.6874C24.891 32.0974 24.5633 32.4253 24.1536 32.4458L20.5896 32.4663C20.1799 32.4663 19.8522 32.1383 19.8522 31.7284V31.6669ZM48.0165 35.4176C47.8117 35.4176 47.6683 35.2127 47.7297 35.0282C47.9619 34.4407 48.4125 34.0308 49.0816 33.7985C49.9829 33.4842 51.2118 33.1631 52.7686 32.8352C53.465 32.6986 54.0932 32.6371 54.653 32.6507C55.4724 32.6712 56.2098 33.3476 55.964 34.2084C55.5953 35.5611 54.5301 35.5816 53.2806 35.4996C52.4204 35.4313 50.6656 35.404 48.0165 35.4176ZM70.6504 41.1769C69.9403 40.644 69.7901 40.0086 70.1997 39.2708C72.0637 35.848 76.7748 43.4929 77.4507 44.6816C77.7512 45.2008 77.7034 45.6381 77.3074 45.9933C77.0616 46.2188 76.7953 46.1778 76.5495 45.9728C75.6483 45.2486 74.6582 44.4083 73.5795 43.4519C73.32 43.2196 72.3436 42.4613 70.6504 41.1769Z" fill="white"/>
<path fill-rule="evenodd" clip-rule="evenodd" d="M47.4431 40.9723C47.2588 40.7878 47.3202 40.4804 47.5455 40.3574C49.7782 39.0252 52.3796 40.009 53.5266 42.243C53.6905 42.5709 53.6017 42.8715 53.2603 43.1448C53.2194 43.1858 53.1374 43.2063 53.076 43.1653C52.8848 43.097 52.7141 42.9808 52.5639 42.8169C51.212 41.1157 49.983 40.8903 47.8937 41.0747C47.7026 41.1021 47.5523 41.0679 47.4431 40.9723ZM66.8611 49.0885C66.8475 47.7768 67.462 46.752 68.7046 46.0142C68.8275 45.9527 68.8275 45.7682 68.7046 45.7067L68.254 45.4403C68.0287 45.3173 68.0082 45.0304 68.1721 44.8664C68.7046 44.3745 69.7902 44.6205 70.3842 44.8254C72.3096 45.4949 73.723 46.7657 74.6242 48.6376C74.8837 49.1841 75.0134 49.6965 75.0134 50.1748C74.9929 50.5437 74.5423 50.6871 74.317 50.4002L73.8459 49.7853C73.7639 49.7034 73.641 49.7239 73.6206 49.8263C72.7193 53.5565 66.9021 53.0441 66.8611 49.0885Z" fill="white"/>
<path fill-rule="evenodd" clip-rule="evenodd" d="M34.5 29C34.5123 29.0043 34.5245 29.0026 34.5367 28.9962C34.5247 28.9976 34.5125 28.9989 34.5 29ZM34.8223 28.6203C34.8024 28.6296 34.7811 28.6394 34.7584 28.6496C34.7799 28.6245 34.8012 28.6118 34.8223 28.6203ZM48.37 39.2595C47.1274 39.9974 46.5129 41.0222 46.5265 42.3339C46.5675 46.2895 52.3847 46.8019 53.286 43.0717C53.3065 42.9692 53.4293 42.9487 53.5113 43.0307L53.9824 43.6456C54.2077 43.9325 54.6583 43.7891 54.6788 43.4201C54.6788 42.9419 54.5491 42.4295 54.2896 41.883C53.3884 40.0111 51.975 38.7403 50.0496 38.0708C49.4556 37.8659 48.37 37.6199 47.8375 38.1118C47.6736 38.2758 47.6941 38.5627 47.9194 38.6857L48.37 38.9521C48.4929 39.0136 48.4929 39.1981 48.37 39.2595Z" fill="white"/>
<path fill-rule="evenodd" clip-rule="evenodd" d="M56.4761 44.9072C56.6809 44.8799 56.8311 44.9413 56.9267 45.0916C57.0701 45.2556 57.0086 45.5221 56.8243 45.6245C56.5785 45.7885 55.8616 46.0959 55.5953 46.5058C55.329 46.9157 55.3495 47.6946 55.3085 47.9815C55.2881 48.1865 55.0628 48.3504 54.8579 48.3094C54.6804 48.2685 54.5643 48.1455 54.5097 47.9405C54.3049 47.0797 54.3595 46.4034 54.6736 45.9115C55.0013 45.4059 55.6021 45.0711 56.4761 44.9072ZM45.3537 45.8705C45.4766 45.4196 45.8044 45.1326 46.0911 45.2146C46.3779 45.2966 46.5008 45.727 46.3779 46.1574C46.2345 46.6083 45.9068 46.8952 45.62 46.8133C45.3333 46.7313 45.2104 46.3009 45.3537 45.8705ZM44.391 45.4196C44.6164 45.1941 44.8826 45.0916 44.985 45.1941C45.0875 45.2966 45.0055 45.563 44.7802 45.7885C44.5549 46.0139 44.2886 46.1164 44.1862 46.0139C44.0633 45.9115 44.1657 45.645 44.391 45.4196ZM59.6715 53.9047C59.9582 53.8227 60.1631 53.932 60.286 54.2326C60.286 54.2326 60.286 54.2395 60.286 54.2531C60.4089 54.5401 60.3133 54.7382 59.9992 54.8475C57.0906 55.9543 53.1168 55.1754 51.9493 51.9167C51.8537 51.6161 51.922 51.3769 52.1541 51.1993C52.2975 51.0968 52.4819 51.1378 52.5843 51.2813C53.4036 52.552 54.0386 53.5153 55.5748 53.9867C57.0087 54.4376 58.2581 54.2941 59.6715 53.9047ZM70.589 55.8518C70.7733 55.3599 71.1215 55.032 71.3878 55.1344C71.6541 55.2164 71.7155 55.6878 71.5517 56.1797C71.3673 56.6716 71.0191 56.9995 70.7528 56.8971C70.4866 56.8151 70.4251 56.3437 70.589 55.8518ZM72.965 55.9543C72.965 55.9133 73.006 55.9133 73.0265 55.9133L73.1903 55.9748C73.6 56.1182 73.8048 56.5896 73.6614 57.02L73.6 57.225C73.4361 57.6554 72.9855 57.9013 72.5554 57.7579L72.412 57.7169C72.3915 57.6964 72.371 57.6759 72.3915 57.6349L72.965 55.9543ZM91.6456 58.4752C91.3794 60.7912 89.3515 61.8775 87.1393 61.529C86.3064 61.3924 85.6577 61.0167 85.1934 60.4018C84.7018 59.7664 85.0296 59.2131 85.5212 58.6597C86.3951 57.6486 87.5354 56.9244 88.9419 56.4872C90.9492 55.8586 92.6425 56.3437 94.0217 57.9423C94.3357 58.3113 94.3494 58.6597 94.0627 58.9876L94.0217 59.0286C93.8715 59.2199 93.6871 59.2199 93.4686 59.0286L91.9324 57.7579C91.8505 57.6759 91.7071 57.7169 91.6661 57.8194C91.5842 58.0038 91.6661 58.2498 91.6456 58.4752Z" fill="white"/>
<path fill-rule="evenodd" clip-rule="evenodd" d="M74.3373 57.3482C74.4193 56.8358 74.7265 56.4463 75.0338 56.4873C75.3205 56.5488 75.5049 56.9997 75.423 57.5121C75.341 58.0245 75.0542 58.4139 74.747 58.3729C74.4398 58.3319 74.2554 57.8605 74.3373 57.3482ZM88.1225 135.498C85.0227 140.43 82.039 145.807 79.1714 151.628C78.1472 153.704 77.1777 155.966 76.2628 158.412C76.1125 158.794 75.935 159.067 75.7302 159.231C75.6687 159.293 75.5868 159.293 75.5254 159.272C75.2113 159.136 75.0816 158.91 75.1362 158.596C75.2454 158.036 75.5185 157.223 75.9555 156.157C76.9387 153.821 77.7922 151.908 78.5159 150.418C79.4854 148.423 81.1992 145.233 83.6572 140.847C85.1183 138.251 86.914 135.34 89.0442 132.116C90.8331 129.424 92.6493 127.067 94.4927 125.045C96.0904 123.282 98.1592 121.636 100.699 120.105C101.027 119.914 101.273 119.982 101.437 120.31C101.45 120.31 101.457 120.317 101.457 120.331C101.689 120.631 101.621 120.884 101.252 121.089C98.8898 122.374 96.6776 124.184 94.6156 126.521C92.1577 129.308 90.0889 132.362 88.1225 135.498Z" fill="white"/>
<path fill-rule="evenodd" clip-rule="evenodd" d="M75.0543 137.465C74.9109 137.465 74.788 137.567 74.788 137.69L73.4976 155.214C73.4156 156.382 73.559 157.366 73.8253 157.386H73.9482C74.235 157.407 74.5217 156.464 74.6037 155.296L75.8941 137.772C75.8941 137.649 75.7917 137.526 75.6483 137.506L75.0543 137.465ZM102.379 231.109C103.594 230.193 104.885 229.169 106.25 228.035C109.241 225.555 111.412 222.685 112.354 218.914C112.825 217.049 113.091 214.774 113.337 213.155C114.211 207.512 115.112 202.258 116.041 197.394C116.109 197.079 115.986 196.895 115.672 196.84L115.57 196.82C115.406 196.779 115.222 196.881 115.16 197.045C114.928 197.729 114.778 198.248 114.71 198.603C113.549 204.738 112.538 210.887 111.678 217.049C111.084 221.23 108.851 224.509 105.574 227.194C103.628 228.793 102.092 229.961 100.228 231.683C98.8967 232.871 96.9303 234.265 95.476 235.536C95.0117 235.946 93.4959 237.258 90.9287 239.471C90.0138 240.264 88.6824 241.521 86.9345 243.242C86.7297 243.447 86.7297 243.755 86.914 243.939C86.914 243.939 86.9208 243.939 86.9345 243.939C87.153 244.185 87.3851 244.192 87.6309 243.96C91.236 240.557 93.9807 238.159 98.8967 233.917C99.8662 233.07 101.027 232.134 102.379 231.109ZM8.19731 218.812C8.27924 219.098 8.56602 219.262 8.85278 219.18H8.87326C9.13954 219.098 9.3034 218.791 9.22147 218.525L6.18997 208.01C6.10804 207.723 5.82127 207.56 5.5345 207.641C5.24773 207.723 5.08389 208.031 5.16582 208.297L8.19731 218.812Z" fill="white"/>
<path fill-rule="evenodd" clip-rule="evenodd" d="M22.1465 228.506C22.3103 228.738 22.3855 228.991 22.3718 229.264C22.3718 229.449 22.1874 229.592 22.0031 229.51C20.6717 229.018 19.5041 226.805 18.9716 225.473C18.5619 224.427 18.7668 223.177 19.033 222.111C19.5929 219.802 20.2757 217.534 21.0814 215.307C21.1906 214.965 21.4023 214.863 21.7163 214.999C21.7163 214.999 21.7231 214.999 21.7368 214.999C22.0509 215.136 22.1601 215.355 22.0646 215.655C21.4228 217.678 20.9175 219.331 20.5488 220.615C19.8933 222.911 19.4632 224.161 20.4259 225.862C20.8629 226.641 21.4364 227.522 22.1465 228.506ZM47.5865 227.891L47.7299 228.096C47.9074 228.342 47.8528 228.533 47.5661 228.67C45.1695 229.838 42.8754 230.822 40.1716 231.088C37.6044 231.334 35.1806 231.519 32.9001 231.642C32.6407 231.655 32.4768 231.505 32.4085 231.191C32.4085 231.191 32.4085 231.184 32.4085 231.17C32.47 230.843 32.7567 230.597 33.0845 230.556C36.8397 230.31 39.0792 230.146 39.8029 230.064C42.3224 229.797 44.4731 228.916 46.9106 227.727C47.1837 227.591 47.409 227.645 47.5865 227.891ZM66.0214 248.694C66.1647 248.469 66.4515 248.407 66.6768 248.551H66.6973C66.9226 248.694 66.9841 249.002 66.8407 249.207L64.8948 252.26C64.7514 252.465 64.4646 252.547 64.2393 252.404L64.2188 252.383C63.9935 252.24 63.9321 251.953 64.0755 251.727L66.0214 248.694ZM71.6542 251.994C71.7771 251.789 72.0844 251.727 72.2892 251.871L72.4326 251.953C72.6579 252.096 72.7194 252.383 72.576 252.609L68.6432 258.655C68.4998 258.88 68.2131 258.942 67.9877 258.798L67.8444 258.716C67.6395 258.573 67.5781 258.286 67.7215 258.061L71.6542 251.994ZM78.5161 254.617C78.6595 254.371 78.9667 254.289 79.2125 254.433L79.233 254.453C79.4788 254.597 79.5402 254.925 79.3968 255.15L75.6484 261.217C75.5051 261.463 75.1978 261.524 74.952 261.381H74.9315C74.6857 261.217 74.6243 260.909 74.7677 260.663L78.5161 254.617ZM38.8197 453.854C38.4237 453.718 38.2735 453.458 38.3691 453.075C38.3691 453.075 38.3759 453.055 38.3896 453.014C38.4715 452.604 38.7105 452.474 39.1065 452.625C43.3875 454.203 48.0167 454.449 52.6868 454.551C59.8833 454.715 67.2708 454.654 74.8496 454.367C75.2593 454.353 75.4163 454.544 75.3207 454.941C75.3207 454.954 75.3207 454.975 75.3207 455.002C75.3617 455.309 75.034 455.576 74.6038 455.596C66.3081 455.801 57.4389 455.965 48.877 455.576C45.5177 455.432 42.0356 454.9 38.8197 453.854Z" fill="white"/>
</svg>
