<svg width="922" height="1586" viewBox="0 0 922 1586" fill="none" xmlns="http://www.w3.org/2000/svg">
<g clip-path="url(#clip0_219_2139)">
<path d="M575.41 436C817.41 285.5 996.244 43.8333 1016.91 0.5C1306.58 276.667 1463.91 1531 1174.91 1579.5C885.91 1628 25.5776 1396.1 21.4097 1086C16.4099 714 333.409 586.5 575.41 436Z" fill="#409213"/>
<path opacity="0.3" d="M380.41 1279.52L599.411 1123" stroke="white" stroke-width="2" stroke-linecap="round" stroke-linejoin="round" stroke-dasharray="5 5"/>
<path opacity="0.3" d="M605.186 1098.6L572.036 891" stroke="white" stroke-width="2" stroke-linecap="round" stroke-linejoin="round" stroke-dasharray="5 5"/>
<path opacity="0.3" d="M997.41 896L590.037 877" stroke="white" stroke-width="2" stroke-linecap="round" stroke-linejoin="round" stroke-dasharray="5 5"/>
<path opacity="0.3" d="M758.784 1080.4L627.41 1106.4" stroke="white" stroke-width="2" stroke-linecap="round" stroke-linejoin="round" stroke-dasharray="5 5"/>
<path opacity="0.3" d="M958.101 1442.6L624.103 1128" stroke="white" stroke-width="2" stroke-linecap="round" stroke-linejoin="round" stroke-dasharray="5 5"/>
<path d="M364.568 1283.92C366.103 1282.82 366.275 1281.1 366.297 1280.85C366.35 1281.03 366.934 1283.1 368.935 1283.78C370.654 1284.37 372.677 1283.71 373.864 1282.11C372.666 1282.87 372.264 1284.51 372.639 1285.86C373.015 1287.22 374.023 1288.32 375.144 1289.17C374.979 1289.12 373.126 1288.52 371.589 1289.66C370.244 1290.65 369.734 1292.55 370.418 1294.26C369.989 1292.73 368.733 1291.55 367.148 1291.24C365.576 1290.92 363.934 1291.51 362.903 1292.76C363.125 1292.03 363.538 1290.18 362.843 1288.01C362.249 1286.16 361.131 1285 360.559 1284.48C360.724 1284.53 362.773 1285.23 364.568 1283.92Z" stroke="white" stroke-width="2" stroke-miterlimit="10" stroke-linecap="round" stroke-linejoin="round"/>
<path opacity="0.3" d="M2.40955 1022.52L168.41 893.52" stroke="white" stroke-width="2" stroke-linecap="round" stroke-linejoin="round" stroke-dasharray="5 5"/>
<path opacity="0.3" d="M175.186 871.601L142.036 664" stroke="white" stroke-width="2" stroke-linecap="round" stroke-linejoin="round" stroke-dasharray="5 5"/>
<path d="M177.706 878.301C180.104 876.573 180.373 873.893 180.408 873.499C180.491 873.782 181.403 877.006 184.532 878.076C187.218 878.998 190.379 877.971 192.234 875.459C190.363 876.654 189.734 879.221 190.321 881.334C190.908 883.446 192.484 885.165 194.236 886.505C193.978 886.422 191.082 885.489 188.679 887.264C186.577 888.813 185.78 891.781 186.849 894.452C186.179 892.057 184.215 890.214 181.738 889.73C179.281 889.238 176.715 890.154 175.104 892.103C175.45 890.964 176.095 888.076 175.01 884.694C174.081 881.79 172.334 879.978 171.44 879.169C171.698 879.252 174.901 880.339 177.706 878.301Z" stroke="white" stroke-width="2" stroke-miterlimit="10" stroke-linecap="round" stroke-linejoin="round"/>
<path d="M566.817 869.665C568.425 868.506 568.606 866.709 568.629 866.444C568.685 866.634 569.296 868.796 571.395 869.514C573.197 870.132 575.317 869.443 576.561 867.759C575.306 868.56 574.884 870.282 575.278 871.699C575.671 873.115 576.728 874.268 577.903 875.167C577.73 875.111 575.788 874.485 574.176 875.676C572.767 876.715 572.232 878.705 572.949 880.497C572.499 878.891 571.183 877.655 569.521 877.33C567.873 877 566.152 877.614 565.072 878.922C565.304 878.158 565.737 876.221 565.008 873.952C564.386 872.005 563.214 870.789 562.614 870.247C562.787 870.302 564.936 871.031 566.817 869.665Z" stroke="white" stroke-width="2" stroke-miterlimit="10" stroke-linecap="round" stroke-linejoin="round"/>
<path d="M610.817 1109.66C612.425 1108.51 612.606 1106.71 612.629 1106.44C612.685 1106.63 613.296 1108.8 615.395 1109.51C617.197 1110.13 619.317 1109.44 620.561 1107.76C619.306 1108.56 618.884 1110.28 619.278 1111.7C619.671 1113.12 620.728 1114.27 621.903 1115.17C621.73 1115.11 619.788 1114.49 618.176 1115.68C616.767 1116.72 616.232 1118.71 616.949 1120.5C616.499 1118.89 615.183 1117.65 613.521 1117.33C611.873 1117 610.152 1117.61 609.072 1118.92C609.304 1118.16 609.737 1116.22 609.008 1113.95C608.386 1112 607.214 1110.79 606.614 1110.25C606.787 1110.3 608.936 1111.03 610.817 1109.66Z" stroke="white" stroke-width="2" stroke-miterlimit="10" stroke-linecap="round" stroke-linejoin="round"/>
<path d="M766.817 1075.66C768.425 1074.51 768.606 1072.71 768.629 1072.44C768.685 1072.63 769.296 1074.8 771.395 1075.51C773.197 1076.13 775.317 1075.44 776.561 1073.76C775.306 1074.56 774.884 1076.28 775.278 1077.7C775.671 1079.12 776.728 1080.27 777.903 1081.17C777.73 1081.11 775.788 1080.49 774.176 1081.68C772.767 1082.72 772.232 1084.71 772.949 1086.5C772.499 1084.89 771.183 1083.65 769.521 1083.33C767.873 1083 766.152 1083.61 765.072 1084.92C765.304 1084.16 765.737 1082.22 765.008 1079.95C764.386 1078 763.214 1076.79 762.614 1076.25C762.787 1076.3 764.936 1077.03 766.817 1075.66Z" stroke="white" stroke-width="2" stroke-miterlimit="10" stroke-linecap="round" stroke-linejoin="round"/>
<path opacity="0.3" d="M1010.41 793L610.359 629.373" stroke="white" stroke-width="2" stroke-linecap="round" stroke-linejoin="round" stroke-dasharray="5 5"/>
<path d="M594.85 617.726C595.317 615.799 594.284 614.317 594.13 614.102C594.295 614.21 596.167 615.453 598.227 614.632C599.998 613.928 601.159 612.025 601.007 609.937C600.576 611.362 601.376 612.944 602.597 613.763C603.818 614.582 605.371 614.77 606.848 614.687C606.68 614.757 604.799 615.546 604.35 617.499C603.956 619.206 604.846 621.065 606.556 621.958C605.17 621.031 603.365 620.95 601.892 621.785C600.426 622.607 599.52 624.194 599.551 625.889C599.23 625.158 598.298 623.406 596.268 622.158C594.528 621.085 592.847 620.925 592.039 620.904C592.206 620.833 594.312 619.988 594.85 617.726Z" stroke="white" stroke-width="2" stroke-miterlimit="10" stroke-linecap="round" stroke-linejoin="round"/>
<path d="M642.508 490.293C641.904 488.824 644.258 486.866 645.224 488.824C646.19 490.782 643.111 491.762 642.508 490.293Z" fill="white"/>
<path d="M494.508 570.293C493.904 568.824 496.258 566.866 497.224 568.824C498.19 570.782 495.111 571.762 494.508 570.293Z" fill="white"/>
<path d="M568.508 1325.29C567.904 1323.82 570.258 1321.87 571.224 1323.82C572.19 1325.78 569.111 1326.76 568.508 1325.29Z" fill="white"/>
<path d="M455.508 1123.29C454.904 1121.82 457.258 1119.87 458.224 1121.82C459.19 1123.78 456.111 1124.76 455.508 1123.29Z" fill="white"/>
<path d="M313.508 1210.29C312.904 1208.82 315.258 1206.87 316.224 1208.82C317.19 1210.78 314.111 1211.76 313.508 1210.29Z" fill="white"/>
<path d="M486.508 970.293C485.904 968.824 488.258 966.866 489.224 968.824C490.19 970.782 487.111 971.762 486.508 970.293Z" fill="white"/>
<path d="M665.508 971.293C664.904 969.824 667.258 967.866 668.224 969.824C669.19 971.782 666.111 972.762 665.508 971.293Z" fill="white"/>
<path d="M672.508 1341.29C671.904 1339.82 674.258 1337.87 675.224 1339.82C676.19 1341.78 673.111 1342.76 672.508 1341.29Z" fill="white"/>
<path d="M791.508 1245.29C790.904 1243.82 793.258 1241.87 794.224 1243.82C795.19 1245.78 792.111 1246.76 791.508 1245.29Z" fill="white"/>
<path d="M785.508 981.293C784.904 979.824 787.258 977.866 788.224 979.824C789.19 981.782 786.111 982.762 785.508 981.293Z" fill="white"/>
<path d="M537.508 691.293C536.904 689.824 539.258 687.866 540.224 689.824C541.19 691.782 538.111 692.762 537.508 691.293Z" fill="white"/>
<path d="M102.508 874.293C101.904 872.824 104.258 870.866 105.224 872.824C106.19 874.782 103.111 875.762 102.508 874.293Z" fill="white"/>
<path d="M233.508 859.293C232.904 857.824 235.258 855.866 236.224 857.824C237.19 859.782 234.111 860.762 233.508 859.293Z" fill="white"/>
<path d="M97.5075 1081.29C96.9039 1079.82 99.258 1077.87 100.224 1079.82C101.19 1081.78 98.1111 1082.76 97.5075 1081.29Z" fill="white"/>
<path d="M137.508 1112.29C136.904 1110.82 139.258 1108.87 140.224 1110.82C141.19 1112.78 138.111 1113.76 137.508 1112.29Z" fill="white"/>
<path d="M197.508 1221.29C196.904 1219.82 199.258 1217.87 200.224 1219.82C201.19 1221.78 198.111 1222.76 197.508 1221.29Z" fill="white"/>
<path d="M770.508 554.293C769.904 552.824 772.258 550.866 773.224 552.824C774.19 554.782 771.111 555.762 770.508 554.293Z" fill="white"/>
<path d="M785.508 357.293C784.904 355.824 787.258 353.866 788.224 355.824C789.19 357.782 786.111 358.762 785.508 357.293Z" fill="white"/>
<path d="M458.81 774.362C462.486 776.814 468.323 774.518 471.847 769.234C475.372 763.951 475.249 757.68 471.573 755.228C467.898 752.776 462.061 755.072 458.537 760.356C455.012 765.639 455.135 771.91 458.81 774.362Z" fill="black"/>
<path d="M98.0007 660.549C90.6307 672.629 89.3507 683.089 88.3507 691.209C87.3407 699.409 87.9907 705.009 91.0907 709.709C92.4007 711.699 93.8607 713.089 94.9307 713.969C120.191 729.449 145.461 744.929 170.721 760.409C171.721 761.049 173.451 761.959 175.781 762.349C177.601 762.649 179.151 762.529 180.201 762.349C184.781 765.689 189.361 769.039 193.941 772.389C195.231 772.749 197.171 773.139 199.531 773.039C201.841 772.939 203.691 772.399 204.931 771.939C225.711 784.649 246.491 797.369 267.281 810.079C265.331 815.549 263.381 821.029 261.431 826.499C258.371 830.409 242.031 851.589 237.571 870.869C235.701 878.949 236.361 884.809 236.591 886.549C237.121 890.589 237.971 896.989 242.571 902.469C249.741 911.009 261.001 911.329 263.321 911.349C263.241 915.929 263.171 920.499 263.091 925.079C261.801 924.279 253.071 919.069 243.921 922.469C242.721 922.919 238.021 924.659 235.061 929.229C232.961 932.469 232.681 935.699 232.601 936.379C231.661 944.729 213.931 990.739 196.221 1042.77C186.341 1071.79 125.432 1259.5 123.171 1267C120.91 1274.5 124.95 1287.55 129.91 1292C135.29 1296.82 142.91 1292 147.171 1288C185.671 1175.85 224.161 1063.7 262.661 951.559C260.501 1088.54 258.07 1227.02 255.91 1364C259.83 1367.02 264.941 1368.8 270.751 1371.86C277.741 1375.54 283.99 1379.43 289.41 1381C290.9 1238 292.651 1093.51 294.141 950.509C353.491 1113.84 413.07 1278.67 472.41 1442C483.41 1480.5 490.87 1479.53 495.41 1480.5C500.79 1481.65 506.02 1476.16 510.41 1476.5C455.14 1314.37 388.621 1121.75 333.351 959.619C352.621 975.469 371.901 991.309 391.171 1007.16C392.311 1006.97 398.751 1005.82 402.911 999.779C407.541 993.059 405.581 985.779 405.301 984.809C398.651 977.669 388.251 967.299 374.141 956.369C364.781 949.119 357.711 944.669 351.491 940.609C338.951 932.429 321.031 920.079 299.041 902.639C305.791 899.309 316.891 892.749 326.921 880.769C335.271 870.809 339.671 860.919 342.021 854.299C344.231 855.579 346.451 856.859 348.661 858.129C348.661 858.129 362.41 865.5 364.91 864.5C365.91 866 384.41 873 384.41 873C387.75 875.08 398.41 878.5 398.41 878.5C398.41 878.5 400.841 888.029 403.321 888.719C404.051 889.379 405.181 890.259 406.721 890.919C409.541 892.119 411.391 891.099 416.221 891.249C419.601 891.359 419.511 891.839 421.951 891.819C425.721 891.799 428.791 890.639 430.841 889.619C431.401 889.809 431.951 889.999 432.511 890.189C443.91 893.5 458.41 883 459.91 873C461.41 863 455.801 853.139 455.801 853.139C437.981 841.469 420.151 829.799 402.331 818.129C403.291 815.649 404.691 810.869 403.601 805.179C401.211 792.719 389.091 787.339 387.851 786.809C397.741 778.559 407.621 770.299 417.511 762.049C419.211 761.329 420.911 760.609 422.611 759.899C433.011 765.219 443.411 770.539 453.801 775.859C453.801 775.859 464.91 769.5 466.91 767C468.91 764.5 469.801 752.969 469.671 751.129C458.271 742.569 446.881 734.009 435.481 725.449C437.511 723.319 439.541 721.189 441.561 719.049C442.511 719.479 443.471 719.899 444.421 720.329C446.751 717.859 449.081 715.389 451.411 712.919C449.181 711.159 446.941 709.409 444.711 707.649C442.711 710.779 440.711 713.919 438.711 717.049C439.661 717.709 440.611 718.379 441.561 719.039C439.171 720.929 436.771 722.819 434.381 724.699C430.701 719.639 426.911 717.319 423.931 716.149C423.931 716.149 422.141 715.449 411.991 713.599C411.991 713.599 380.101 694.179 379.991 694.109C379.881 693.139 379.771 692.159 379.671 691.189C370.531 685.509 361.401 679.829 352.261 674.139C349.421 674.249 345.401 674.869 341.281 677.159C333.841 681.289 331.131 688.069 329.651 691.759C327.951 695.999 328.081 698.409 328.411 700.009C328.831 702.039 329.731 703.549 330.411 704.489C340.111 710.629 349.811 716.769 359.511 722.919C360.841 722.919 362.171 722.929 363.501 722.929C373.581 729.509 383.661 736.089 393.741 742.669C394.201 744.399 395.411 747.949 398.671 750.919C400.161 752.279 401.671 753.139 402.871 753.689C391.651 759.389 380.431 765.089 369.201 770.779C366.721 769.549 363.441 768.209 359.471 767.259C355.871 766.399 352.651 766.099 350.061 766.029C315.821 744.119 281.581 722.209 247.341 700.289C246.531 698.409 245.731 696.519 244.921 694.639C238.091 689.759 231.251 684.879 224.421 680.009C222.171 677.079 219.931 674.149 217.681 671.219C194.981 657.389 172.281 643.549 149.581 629.719C147.741 629.509 145.091 629.329 141.931 629.539C116.481 631.339 100.671 656.169 98.0007 660.549Z" fill="white"/>
<path d="M105.263 650.289C86.8326 671.409 83.1826 706.619 94.9226 713.969C105.403 720.529 128.363 705.019 140.583 689.019C155.143 669.969 162.583 639.649 151.793 631.369C142.013 623.859 118.353 635.299 105.263 650.289Z" fill="black" stroke="black" stroke-width="5" stroke-miterlimit="10" stroke-linecap="round" stroke-linejoin="round"/>
<path d="M111.537 669.604C111.358 674.61 111.314 685.187 112.576 687.447C113.837 689.706 115.833 691.892 116.673 692.703L115.167 680.276C115.51 682.744 116.68 688.406 118.613 691.314C120.547 694.222 123.515 696.622 124.758 697.458C125.172 690.323 125.316 674.831 122.583 669.935C123.957 671.006 126.853 673.552 127.442 675.164C128.178 677.178 126.644 663.312 123.833 658.971" stroke="white" stroke-width="2" stroke-linecap="round" stroke-linejoin="round"/>
<path d="M116.854 661.468C119.008 657.162 119.401 651.248 117.732 648.258C116.063 645.268 112.964 646.335 110.81 650.64C108.656 654.946 108.262 660.86 109.931 663.85C111.6 666.839 114.7 665.773 116.854 661.468Z" fill="#FF3D00" stroke="black" stroke-width="2"/>
<path d="M151.792 631.369C174.082 644.759 196.362 658.159 218.662 671.549C219.252 672.029 220.552 673.179 221.812 674.909C238.552 697.949 201.682 764.699 176.572 762.439C174.532 762.249 172.952 761.649 172.252 761.349C146.722 745.699 121.182 730.049 95.6521 714.399" stroke="black" stroke-width="2" stroke-miterlimit="10" stroke-linecap="round" stroke-linejoin="round"/>
<path d="M224.441 680.049C228.801 682.679 235.081 686.749 242.341 692.519C243.841 693.719 244.611 694.319 244.941 694.679C257.271 708.009 224.531 774.909 197.461 773.009C195.791 772.889 194.481 772.529 193.931 772.369C189.351 769.029 184.771 765.679 180.191 762.339" stroke="black" stroke-width="2" stroke-miterlimit="10" stroke-linecap="round" stroke-linejoin="round"/>
<path d="M247.359 700.339C285.839 724.969 324.319 749.589 362.789 774.209C363.999 775.449 366.059 777.899 367.329 781.599C368.599 785.279 368.469 788.459 368.279 790.189C374.639 794.879 381.009 799.559 387.379 804.259C388.269 803.059 389.439 801.129 389.999 798.539C391.269 792.769 388.609 788.089 387.849 786.859C391.189 789.559 394.529 792.259 397.869 794.959C399.349 796.379 401.569 798.899 402.879 802.589C404.619 807.509 403.859 812.029 402.879 815.939C400.129 826.959 396.339 842.089 382.109 854.559C377.229 858.829 368.949 866.099 360.149 864.099C358.169 863.649 356.629 862.839 355.609 862.189C351.069 859.569 346.539 856.949 341.999 854.329" stroke="black" stroke-width="2" stroke-miterlimit="10" stroke-linecap="round" stroke-linejoin="round"/>
<path d="M204.93 771.929C225.71 784.649 246.5 797.359 267.28 810.069C276.94 810.069 286.61 810.069 296.27 810.069C312.16 819.539 328.05 828.999 343.94 838.459C343.3 843.739 342.67 849.009 342.04 854.289C323.9 845.759 305.76 837.239 287.64 828.709C278.91 827.959 270.17 827.219 261.44 826.489C263.39 821.019 265.34 815.539 267.29 810.069" stroke="black" stroke-width="2" stroke-miterlimit="10" stroke-linecap="round" stroke-linejoin="round"/>
<path d="M290.41 824.839C291.8 821.589 293.2 818.339 294.59 815.099" stroke="black" stroke-width="2" stroke-miterlimit="10" stroke-linecap="round" stroke-linejoin="round"/>
<path d="M350.082 766.069C353.282 766.149 357.402 766.599 361.992 767.969C364.782 768.799 367.202 769.819 369.222 770.819C380.442 765.119 391.662 759.429 402.892 753.729C401.632 753.289 398.032 751.829 395.662 748.029C394.382 745.969 393.932 743.979 393.762 742.709C394.892 743.629 396.612 744.749 398.892 745.179C405.912 746.519 411.822 740.179 413.542 738.339C415.302 736.459 422.792 728.419 419.622 720.679C417.862 716.379 413.702 714.359 412.012 713.659C412.592 713.609 413.162 713.579 413.712 713.589C422.052 713.619 428.572 719.269 432.172 723.159C434.112 725.529 436.702 729.539 437.302 734.929C438.572 746.189 430.122 754.149 428.552 755.629C424.452 759.499 420.082 761.259 417.512 762.089C407.622 770.339 397.722 778.589 387.842 786.839" stroke="black" stroke-width="2" stroke-miterlimit="10" stroke-linecap="round" stroke-linejoin="round"/>
<path d="M397.41 750C395.81 748.4 394.41 745 393.91 743.5C396.243 744.167 401.71 745.5 404.91 745.5C408.91 745.5 412.91 738.5 417.41 734C421.91 729.5 419.41 725 419.91 722C420.31 719.6 416.41 715.667 414.41 714C418.41 712 427.41 719.5 431.41 723C435.41 726.5 436.91 732.5 437.91 738.5C438.91 744.5 430.91 752.5 430.41 754C430.01 755.2 421.577 759.833 417.41 762L387.91 787.5C388.743 788.833 390.41 792.4 390.41 796C390.41 799.6 388.077 803.167 386.91 804.5L367.91 790.5C367.743 789.5 367.51 786.5 367.91 782.5C368.31 778.5 364.077 774.5 361.91 773L350.41 766.5H354.41C356.01 766.5 364.743 769.167 368.91 770.5L403.41 754C402.077 753.333 399.01 751.6 397.41 750Z" fill="black" stroke="black"/>
<path d="M412.02 713.649C401.56 707.249 391.1 700.859 380.64 694.469" stroke="black" stroke-width="2" stroke-miterlimit="10" stroke-linecap="round" stroke-linejoin="round"/>
<path d="M393.759 742.719C383.679 736.139 373.599 729.549 363.519 722.969" stroke="black" stroke-width="2" stroke-miterlimit="10" stroke-linecap="round" stroke-linejoin="round"/>
<path d="M379.68 691.239C380.12 692.729 382.73 701.999 377.21 711.179C371.31 720.999 360.93 722.739 359.52 722.949C349.82 716.809 340.12 710.669 330.41 704.519" stroke="black" stroke-width="2" stroke-miterlimit="10" stroke-linecap="round" stroke-linejoin="round"/>
<path d="M333.47 684.219C328.77 690.809 326.38 701.389 330.43 704.549C334.58 707.779 344.96 702.789 350.21 695.629C355.32 688.659 357.09 677.549 352.87 674.549C348.58 671.479 338.55 677.089 333.47 684.219Z" fill="black" stroke="black" stroke-width="2" stroke-miterlimit="10" stroke-linecap="round" stroke-linejoin="round"/>
<path d="M379.691 691.239C370.751 685.669 361.811 680.089 352.871 674.529" stroke="black" stroke-width="2" stroke-miterlimit="10" stroke-linecap="round" stroke-linejoin="round"/>
<path d="M432.189 723.159C437.839 727.099 443.569 731.219 449.369 735.529C456.429 740.769 463.199 745.989 469.679 751.159C470.119 753.399 470.629 757.749 468.829 762.569C465.159 772.399 455.109 775.509 453.799 775.889C443.399 770.569 432.999 765.249 422.609 759.929" stroke="black" stroke-width="2" stroke-miterlimit="10" stroke-linecap="round" stroke-linejoin="round"/>
<path d="M435.5 725.479C437.53 723.349 439.55 721.209 441.58 719.079" stroke="black" stroke-width="2" stroke-miterlimit="10" stroke-linecap="round" stroke-linejoin="round"/>
<path d="M438.73 717.089C440.63 718.179 442.54 719.269 444.44 720.359C446.77 717.889 449.1 715.419 451.43 712.949C449.2 711.189 446.96 709.439 444.73 707.679C442.72 710.819 440.73 713.959 438.73 717.089Z" fill="black" stroke="black" stroke-width="2" stroke-miterlimit="10" stroke-linecap="round" stroke-linejoin="round"/>
<path d="M429.163 852.759C421.163 851.289 412.763 860.059 410.893 868.819C408.963 877.869 413.403 889.789 421.793 891.409C429.803 892.949 437.983 884.459 440.063 876.159C442.423 866.709 437.613 854.309 429.163 852.759Z" fill="black" stroke="black" stroke-width="2" stroke-miterlimit="10" stroke-linecap="round" stroke-linejoin="round"/>
<path d="M429.16 852.759C423.33 852.399 417.51 852.019 411.68 851.659C411.19 851.659 410.45 851.689 409.61 851.909C401.34 854.039 399.36 869.029 399.28 869.669C398.4 877.009 399.76 887.989 405.52 890.169C406.26 890.449 406.94 890.529 407.47 890.559C412.87 890.899 418.29 891.249 423.69 891.589" stroke="black" stroke-width="2" stroke-miterlimit="10" stroke-linecap="round" stroke-linejoin="round"/>
<path d="M364.84 864.319L399.41 879.5" stroke="black" stroke-width="2" stroke-miterlimit="10" stroke-linecap="round" stroke-linejoin="round"/>
<path d="M402.34 818.169C420.16 829.839 437.99 841.509 455.81 853.179C457.14 855.169 460.64 861.039 460.05 868.959C459.94 870.439 458.84 882.309 448.4 887.999C440.27 892.429 432.11 890.049 430.46 889.519" stroke="black" stroke-width="2" stroke-miterlimit="10" stroke-linecap="round" stroke-linejoin="round"/>
<path d="M261.421 826.509C235.661 856.459 230.111 888.339 242.561 902.469C244.991 905.229 250.661 910.209 263.311 911.349" stroke="black" stroke-width="2" stroke-miterlimit="10" stroke-linecap="round" stroke-linejoin="round"/>
<path d="M287.619 828.729C255.489 886.529 255.549 904.639 261.839 910.299C270.769 918.339 296.209 904.879 306.499 898.199C328.429 883.959 338.219 863.669 342.029 854.309" fill="black"/>
<path d="M287.619 828.729C255.489 886.529 255.549 904.639 261.839 910.299C270.769 918.339 296.209 904.879 306.499 898.199C328.429 883.959 338.219 863.669 342.029 854.309" stroke="black" stroke-width="2" stroke-miterlimit="10" stroke-linecap="round" stroke-linejoin="round"/>
<path d="M289.41 1380C291.17 1231.24 292.912 1053.69 294.672 904.929M263.312 911.349C260.932 1058.58 258.29 1214.79 255.91 1362L263.312 911.349Z" stroke="black" stroke-width="2" stroke-miterlimit="10" stroke-linecap="round" stroke-linejoin="round"/>
<path d="M255.032 922.289C248.492 920.329 241.592 921.899 237.202 926.429C233.052 930.709 232.692 936.069 232.642 937.609C186.902 1072.26 168.15 1134.34 122.41 1269M146.41 1289C192.9 1156.62 216.172 1083.94 262.662 951.559" stroke="black" stroke-width="2" stroke-miterlimit="10" stroke-linecap="round" stroke-linejoin="round"/>
<path d="M294.46 923.039C299.39 921.479 307.01 919.959 313.92 923.339C322.45 927.509 325.63 937.069 326.76 940.439C333.08 959.109 433.28 1254.06 509.41 1474M479.41 1463.5C431.74 1330.71 341.81 1083.3 294.14 950.509" stroke="black" stroke-width="2" stroke-miterlimit="10" stroke-linecap="round" stroke-linejoin="round"/>
<path d="M299.039 902.639C306.229 908.709 317.149 917.519 331.179 927.289C342.869 935.429 349.999 939.569 356.829 943.999C369.249 952.069 386.319 964.799 405.299 984.799C405.579 985.779 407.549 993.059 402.909 999.769C398.749 1005.79 392.319 1006.96 391.169 1007.15C377.429 996.609 363.489 985.419 349.429 973.509C343.959 968.879 338.599 964.239 333.349 959.609" stroke="black" stroke-width="2" stroke-miterlimit="10" stroke-linecap="round" stroke-linejoin="round"/>
<path d="M260.91 722L347.91 778.5M127.91 722C130.31 722 160.243 741.333 174.91 751M280.91 1210L278.41 1356.5M339.91 1011L430.41 1269.5M275.91 1199.5L274.91 1224.5" stroke="black" stroke-width="2" stroke-linecap="round" stroke-linejoin="round"/>
<path d="M327.715 820.202C338.103 826.146 348.064 832.528 358.143 838.959" stroke="black" stroke-width="2" stroke-linecap="round" stroke-linejoin="round"/>
</g>
<defs>
<clipPath id="clip0_219_2139">
<rect width="937" height="1586" fill="white" transform="translate(0.409912)"/>
</clipPath>
</defs>
</svg>
