<svg width="616" height="1381" viewBox="0 0 616 1381" fill="none" xmlns="http://www.w3.org/2000/svg">
<path d="M34.8393 1182.98C-197.049 1348.64 -360.074 1601.24 -377.928 1645.81C-684.654 1388.72 -921.819 147.001 -636.509 80.1324C-351.199 13.2634 522.194 189.711 546.17 498.911C574.931 869.831 266.728 1017.33 34.8393 1182.98Z" fill="#409213"/>
<g clip-path="url(#clip0_254_3165)">
<g clip-path="url(#clip1_254_3165)">
<mask id="mask0_254_3165" style="mask-type:luminance" maskUnits="userSpaceOnUse" x="-54" y="431" width="552" height="600">
<path d="M498 431H-54V1031H498V431Z" fill="white"/>
</mask>
<g mask="url(#mask0_254_3165)">
<path opacity="0.3" d="M296.691 893.938L211.042 711.411" stroke="white" stroke-width="1.71267" stroke-linecap="round" stroke-linejoin="round" stroke-dasharray="4.28 4.28"/>
<path opacity="0.3" d="M379.108 842.44L348.902 703.137" stroke="white" stroke-width="1.71267" stroke-linecap="round" stroke-linejoin="round" stroke-dasharray="4.28 4.28"/>
<path opacity="0.3" d="M374.471 862.474L315.177 905.097" stroke="white" stroke-width="1.71267" stroke-linecap="round" stroke-linejoin="round" stroke-dasharray="4.28 4.28"/>
<path opacity="0.3" d="M282.994 922.643L25.833 1015.52" stroke="white" stroke-width="1.71267" stroke-linecap="round" stroke-linejoin="round" stroke-dasharray="4.28 4.28"/>
<path opacity="0.3" d="M3.1521 931.425L10.2361 1004.25" stroke="white" stroke-width="1.71267" stroke-linecap="round" stroke-linejoin="round" stroke-dasharray="4.28 4.28"/>
<path opacity="0.3" d="M38.802 824.841L3.44629 896.043" stroke="white" stroke-width="1.71267" stroke-linecap="round" stroke-linejoin="round" stroke-dasharray="4.28 4.28"/>
<path opacity="0.3" d="M190.364 705.871L59.8149 804.76" stroke="white" stroke-width="1.71267" stroke-linecap="round" stroke-linejoin="round" stroke-dasharray="4.28 4.28"/>
<path opacity="0.3" d="M332.211 682.707L221.546 692.063" stroke="white" stroke-width="1.71267" stroke-linecap="round" stroke-linejoin="round" stroke-dasharray="4.28 4.28"/>
<path opacity="0.3" d="M192.45 483.021L205.743 668.324" stroke="white" stroke-width="1.71267" stroke-linecap="round" stroke-linejoin="round" stroke-dasharray="4.28 4.28"/>
<path opacity="0.3" d="M468.152 479.766L356.048 656.292" stroke="white" stroke-width="1.71267" stroke-linecap="round" stroke-linejoin="round" stroke-dasharray="4.28 4.28"/>
<path opacity="0.3" d="M451.146 464.572L214.092 468.43" stroke="white" stroke-width="1.71267" stroke-linecap="round" stroke-linejoin="round" stroke-dasharray="4.28 4.28"/>
<path opacity="0.3" d="M172.658 474.172L60.293 503.105" stroke="white" stroke-width="1.71267" stroke-linecap="round" stroke-linejoin="round" stroke-dasharray="4.28 4.28"/>
<path opacity="0.3" d="M30.4123 510.498L-38.2871 525.018" stroke="white" stroke-width="1.71267" stroke-linecap="round" stroke-linejoin="round" stroke-dasharray="4.28 4.28"/>
<path opacity="0.3" d="M174.874 465.901L73.2358 444.873" stroke="white" stroke-width="1.71267" stroke-linecap="round" stroke-linejoin="round" stroke-dasharray="4.28 4.28"/>
<path opacity="0.3" d="M49.925 441.652L-28.9883 439.448" stroke="white" stroke-width="1.71267" stroke-linecap="round" stroke-linejoin="round" stroke-dasharray="4.28 4.28"/>
<path d="M49.9558 512.019C47.0048 514.1 48.1608 518.414 48.1138 518.892C48.0158 518.548 46.4538 515.115 42.6469 513.789C39.3782 512.646 35.9958 513.376 33.698 516.414C35.9983 514.977 37.1899 510.986 36.5009 508.414C35.8119 505.842 33.5198 504.615 31.3979 502.973C31.7122 503.075 35.2358 504.233 38.194 502.095C40.7804 500.229 41.7931 496.629 40.5225 493.373C41.3094 496.289 42.8046 499.585 45.8234 500.195C48.8178 500.813 52.8418 498.68 54.8338 496.324C54.3968 497.706 52.3379 500.959 53.6189 505.079C54.7149 508.616 58.0588 511.084 59.1398 512.074C58.8248 511.972 53.4078 509.566 49.9558 512.019Z" stroke="white" stroke-width="1.71267" stroke-miterlimit="10" stroke-linecap="round" stroke-linejoin="round"/>
<path d="M195.034 474.417C192.126 474.692 190.563 476.831 190.338 477.149C190.407 476.868 191.232 473.681 189.093 471.22C187.257 469.104 184.046 468.406 181.212 469.615C183.404 469.531 185.219 467.665 185.769 465.583C186.319 463.5 185.829 461.259 184.999 459.254C185.178 459.452 187.187 461.681 190.123 461.369C192.689 461.098 194.847 458.977 195.263 456.181C194.643 458.545 195.403 461.083 197.278 462.723C199.132 464.361 201.779 464.857 204.125 464.004C203.263 464.798 201.274 466.927 200.518 470.335C199.867 473.259 200.457 475.663 200.818 476.793C200.639 476.594 198.444 474.082 195.034 474.417Z" stroke="white" stroke-width="1.71267" stroke-miterlimit="10" stroke-linecap="round" stroke-linejoin="round"/>
<path d="M62.4389 450.935C59.9829 451.167 58.6629 452.974 58.4729 453.241C58.5309 453.004 59.2279 450.312 57.4209 448.234C55.8709 446.447 53.1589 445.857 50.7649 446.878C52.6169 446.807 54.1499 445.232 54.6139 443.473C55.0789 441.714 54.6639 439.821 53.9629 438.127C54.1149 438.295 55.8109 440.177 58.2909 439.914C60.4579 439.685 62.2809 437.894 62.6319 435.532C62.1089 437.528 62.7509 439.672 64.3339 441.058C65.8999 442.441 68.1359 442.86 70.1179 442.14C69.3889 442.81 67.7099 444.608 67.0709 447.487C66.5209 449.956 67.0199 451.986 67.3249 452.941C67.1729 452.773 65.3189 450.651 62.4389 450.935Z" stroke="white" stroke-width="1.71267" stroke-miterlimit="10" stroke-linecap="round" stroke-linejoin="round"/>
<path d="M304.239 912.794C304.256 915.339 306.83 917.259 307.088 917.478C306.849 917.397 304.872 915.694 302.574 917.362C300.598 918.794 299.023 922.27 299.856 924.82C299.95 922.912 299.948 918.123 298.183 917.487C296.418 916.851 292.959 920.178 291.156 920.745C291.341 920.604 295.524 916.438 295.478 913.867C295.438 911.62 291.667 912.18 289.273 911.605C291.276 912.323 296.299 911.972 297.865 910.471C299.427 908.988 297.298 906.614 296.737 904.514C297.36 905.323 298.244 908.45 301.143 909.366C303.63 910.154 306.571 908.586 307.579 908.359C307.393 908.499 304.208 909.811 304.239 912.794Z" stroke="white" stroke-width="1.71267" stroke-miterlimit="10" stroke-linecap="round" stroke-linejoin="round"/>
<path d="M198.298 704.358C196.108 710.539 204.005 696.752 208.449 701.326C212.893 705.901 206.434 692.666 211.41 690.277C216.385 687.888 203.942 688.276 204.389 681.628C204.835 674.981 200.519 687.359 194.606 685.774C188.694 684.19 197.809 693.738 191.984 695.561C186.159 697.384 201.035 696.632 198.298 704.358Z" stroke="white" stroke-width="1.71267"/>
<path d="M349.591 692.758C349.59 681.11 341.24 677.32 327.405 673.613C341.24 677.32 350.561 677.488 355.803 669.575C357.842 679.439 363.085 683.174 374.736 686.295C363.085 683.174 356.872 683.062 349.591 692.758Z" stroke="white" stroke-width="1.71267" stroke-linecap="round" stroke-linejoin="round"/>
<path d="M381.4 863.82C381.201 856.002 375.04 853.316 364.876 850.592C375.04 853.316 381.848 853.587 385.541 848.365C387.198 855.021 391.089 857.616 399.649 859.91C391.089 857.616 386.551 857.435 381.4 863.82Z" stroke="white" stroke-width="1.71267" stroke-linecap="round" stroke-linejoin="round"/>
<path d="M475.605 475.986C475.47 467.215 468.807 464.265 457.795 461.314C468.807 464.265 476.198 464.498 480.263 458.599C481.994 466.051 486.193 468.923 495.466 471.408C486.193 468.923 481.266 468.768 475.605 475.986Z" stroke="white" stroke-width="1.71267" stroke-linecap="round" stroke-linejoin="round"/>
<path d="M47.0259 823.918C46.8939 814.662 39.8898 811.556 28.3135 808.454C39.8898 811.556 47.6619 811.795 51.9429 805.565C53.7549 813.427 58.1679 816.454 67.9169 819.066C58.1679 816.454 52.9869 816.295 47.0259 823.918Z" stroke="white" stroke-width="1.71267" stroke-linecap="round" stroke-linejoin="round"/>
<path d="M9.75817 1027.2C9.61397 1020.37 4.31237 1018.04 -4.44043 1015.69C4.31237 1018.04 10.1802 1018.25 13.3817 1013.68C14.7869 1019.49 18.1326 1021.74 25.5033 1023.72C18.1326 1021.74 14.2207 1021.6 9.75817 1027.2Z" stroke="white" stroke-width="1.71267" stroke-linecap="round" stroke-linejoin="round"/>
<path d="M-3.65847 920.109C-6.44957 918.35 -9.32237 919.186 -9.74257 919.314C-9.48647 919.111 -6.55157 916.829 -6.76877 913.153C-6.95237 909.995 -9.34327 907.157 -12.7117 906.284C-10.6928 907.721 -7.78317 907.303 -5.85547 905.819C-3.92777 904.335 -2.82197 901.993 -2.18147 899.627C-2.15767 899.928 -1.89777 903.306 0.943733 905.051C3.42583 906.578 6.81793 906.169 9.11823 903.954C6.93443 905.641 5.86433 908.435 6.41003 911.196C6.93963 913.938 8.96553 916.208 11.652 917.062C10.3333 917.177 7.08713 917.711 4.06123 920.238C1.46293 922.404 0.333631 924.962 -0.122169 926.221C-0.145969 925.92 -0.37717 922.16 -3.65847 920.109Z" stroke="white" stroke-width="1.71267" stroke-miterlimit="10" stroke-linecap="round" stroke-linejoin="round"/>
</g>
</g>
</g>
<defs>
<clipPath id="clip0_254_3165">
<rect width="552" height="600" fill="white" transform="translate(-54 431)"/>
</clipPath>
<clipPath id="clip1_254_3165">
<rect width="552" height="600" fill="white" transform="translate(-54 431)"/>
</clipPath>
</defs>
</svg>
